<?xml version="1.0" encoding="UTF-8" standalone="no"?>
<svg width="18px" height="21px" viewBox="0 0 18 21" version="1.1" xmlns="http://www.w3.org/2000/svg" xmlns:xlink="http://www.w3.org/1999/xlink">
    <!-- Generator: Sketch 42 (36781) - http://www.bohemiancoding.com/sketch -->
    <title>MakerMount</title>
    <desc>Created with Sketch.</desc>
    <defs></defs>
    <g id="Symbols" stroke="none" stroke-width="1" fill="none" fill-rule="evenodd">
        <g id="Map,-Quests-&amp;-Tents" transform="translate(-443.000000, -114.000000)" fill="#464646">
            <g id="Makers-Mount-Quests" transform="translate(84.000000, 26.000000)">
                <g id="Group" transform="translate(350.000000, 79.000000)">
                    <g id="MakerMount" transform="translate(9.000000, 9.000000)">
                        <path d="M14.1617647,0.301229508 C12.6797647,1.7722623 10.6683529,2.67595082 8.55070588,2.80504918 C6.43305882,2.93414754 4.42129412,3.81236066 2.93929412,5.30921311 L2.83305882,5.41283607 L6.35294118,12.745623 L6.45917647,12.6423443 C7.94117647,11.1709672 9.95258824,10.2672787 12.0702353,10.1381803 C14.1878824,10.009082 16.1992941,9.13086885 17.6816471,7.63436066 L17.7875294,7.5307377 L14.268,0.197606557 L14.1617647,0.301229508 Z" id="Fill-1"></path>
                        <path d="M1.45588235,4.9742459 C1.29741176,4.6382459 0.900352941,4.50914754 0.581647059,4.66509836 C0.237176471,4.81967213 0.104823529,5.20696721 0.264705882,5.5174918 L7.41176471,20.5187213 C7.518,20.7510984 7.75658824,20.8801967 8.02129412,20.8801967 C8.12717647,20.8801967 8.20588235,20.8547213 8.31211765,20.8292459 C8.65658824,20.6746721 8.78894118,20.287377 8.62905882,19.9765082 L1.45588235,4.9742459 Z" id="Fill-2"></path>
                    </g>
                </g>
            </g>
        </g>
    </g>
</svg>