<svg width="16" height="16" viewBox="0 0 16 16" fill="none" xmlns="http://www.w3.org/2000/svg">
<path d="M14.2315 12.1874L9.23273 7.68551C9.16711 7.62613 9.07898 7.59363 8.99211 7.59988C8.90398 7.60426 8.82086 7.64363 8.76148 7.71051L7.75086 8.83488C7.63773 8.96175 7.63773 9.15363 7.75086 9.28051L12.2053 14.2379C12.4771 14.5098 12.839 14.6598 13.224 14.6598C13.6097 14.6598 13.9715 14.5098 14.2428 14.2379C14.5165 13.9654 14.6665 13.6029 14.6665 13.2186C14.6665 12.8336 14.5165 12.4717 14.2315 12.1873L14.2315 12.1874Z" fill="white"/>
<path d="M1.9861 4.01647C2.39922 4.42959 2.92298 4.66647 3.4236 4.66647C3.48298 4.66647 3.5411 4.66335 3.59797 4.65647L6.07541 7.41391L7.50354 6.12703L4.66674 3.57199C4.72237 3.04199 4.483 2.43762 4.02362 1.97825C3.31237 1.26762 2.23482 1.127 1.6849 1.67762C1.4024 1.96012 1.28178 2.38262 1.3549 2.83762C1.42303 3.25887 1.64677 3.67762 1.98615 4.01638L1.9861 4.01647Z" fill="white"/>
<path d="M14.3154 1.67738C13.7654 1.12676 12.6873 1.26738 11.9773 1.978C11.518 2.43738 11.2792 3.04112 11.3342 3.57175L1.7555 12.1999C1.48301 12.4718 1.33301 12.8337 1.33301 13.2187C1.33301 13.6043 1.48301 13.9662 1.75488 14.2374C2.02675 14.5093 2.38862 14.6593 2.77363 14.6593C3.158 14.6593 3.52051 14.5093 3.80488 14.2237L12.403 4.65613C12.943 4.71801 13.5523 4.478 14.0142 4.01613C14.3529 3.67738 14.5767 3.25863 14.6442 2.83738C14.7185 2.38237 14.5979 1.95988 14.3154 1.67738H14.3154Z" fill="white"/>
</svg>
