<svg width="16" height="16" viewBox="0 0 16 16" fill="none" xmlns="http://www.w3.org/2000/svg">
<path fill-rule="evenodd" clip-rule="evenodd" d="M12.3931 0.229341C11.264 1.35013 9.73147 2.03865 8.11802 2.13701C6.50458 2.23537 4.9718 2.90449 3.84266 4.04495L3.76172 4.1239L6.44353 9.71078L6.52448 9.6321C7.65362 8.51105 9.18612 7.82252 10.7996 7.72416C12.413 7.6258 13.9455 6.95669 15.0749 5.81649L15.1556 5.73754L12.4741 0.150391L12.3931 0.229341Z" fill="white"/>
<path fill-rule="evenodd" clip-rule="evenodd" d="M2.71278 3.78974C2.59204 3.53374 2.28952 3.43538 2.04669 3.5542C1.78424 3.67197 1.6834 3.96705 1.80522 4.20364L7.25059 15.6331C7.33153 15.8102 7.51331 15.9086 7.71499 15.9086C7.79566 15.9086 7.85563 15.8891 7.93657 15.8697C8.19902 15.752 8.29986 15.4569 8.17805 15.22L2.71278 3.78974Z" fill="white"/>
</svg>
