<svg width="16" height="16" viewBox="0 0 16 16" fill="none" xmlns="http://www.w3.org/2000/svg">
<g clip-path="url(#clip0)">
<path fill-rule="evenodd" clip-rule="evenodd" d="M4.12036 14.5018C0.485078 12.4029 -0.760266 7.75524 1.33856 4.11996C3.43739 0.484687 8.08508 -0.760657 11.7204 1.33817C15.3556 3.437 16.601 8.08469 14.5021 11.72C12.4033 15.3552 7.75563 16.6006 4.12036 14.5018V14.5018ZM11.9794 7.47413C11.3595 7.11624 11.1471 6.32352 11.505 5.70365C11.8629 5.08378 12.6556 4.87137 13.2755 5.22925C13.8953 5.58714 14.1077 6.37986 13.7499 6.99973C13.392 7.6196 12.5993 7.83201 11.9794 7.47413ZM2.50188 4.6397C4.12586 1.8269 7.72288 0.863078 10.5357 2.48705L9.94105 3.51699C7.69673 2.22123 4.8274 2.99006 3.53164 5.23439L2.50188 4.6397Z" fill="#464646"/>
</g>
<defs>
<clipPath id="clip0">
<rect width="16" height="16" fill="white"/>
</clipPath>
</defs>
</svg>
