<svg width="16" height="16" viewBox="0 0 16 16" fill="none" xmlns="http://www.w3.org/2000/svg">
<path d="M1.52883 12.865C1.19742 13.197 1.19742 13.7349 1.52883 14.0663L1.89076 14.4358C2.04972 14.5954 2.26617 14.6851 2.49142 14.6851C2.71667 14.6851 2.93311 14.5954 3.09208 14.4358L10.0418 8.11255L7.84629 5.91699L1.52883 12.865Z" fill="white"/>
<path d="M11.338 1.28003C10.2834 1.27886 9.28964 1.77511 8.65625 2.6192C8.67326 2.63093 8.68969 2.64442 8.70435 2.6585L9.80477 3.76068L12.1975 6.1528L13.3102 7.26555C13.3255 7.27962 13.339 7.29605 13.3507 7.31364C14.1062 6.74701 14.5878 5.88825 14.677 4.94795C14.7661 4.00825 14.4546 3.0739 13.8194 2.37579C13.1835 1.67718 12.2826 1.27947 11.3382 1.28005L11.338 1.28003Z" fill="white"/>
<path d="M9.24458 4.37489L8.23566 3.36597C8.06965 3.76661 7.98518 4.19656 7.98636 4.63005C7.98577 4.77142 7.99457 4.9122 8.01334 5.05239L10.9192 7.95475C11.0576 7.97411 11.1978 7.98349 11.338 7.98349C11.7692 7.98349 12.1962 7.90078 12.5962 7.74006L11.5768 6.71589L9.24458 4.37489Z" fill="white"/>
</svg>
