<svg width="16" height="16" viewBox="0 0 16 16" fill="none" xmlns="http://www.w3.org/2000/svg">
<path d="M8.53399 13.6469C8.53399 14.6813 7.64886 15.52 6.55668 15.52C5.4645 15.52 4.57911 14.6814 4.57911 13.6469C4.57911 12.6124 5.4645 11.7738 6.55668 11.7738C6.6919 11.7738 6.82394 11.7867 6.95153 11.8111C7.66495 11.9481 8.2389 12.4488 8.4484 13.1C8.50405 13.273 8.53399 13.4566 8.53399 13.6469Z" fill="#464646"/>
<path d="M12.1599 5.21799C10.5119 1.15965 6.22708 0.223123 4.90884 0.535286C4.03992 0.741047 3.91992 0.847495 3.91992 0.847495L6.95153 11.8111C7.66495 11.9481 8.2389 12.4488 8.4484 13.1C7.98244 10.9018 5.77197 3.65709 5.77197 3.65709C7.96927 3.34491 9.52316 3.65709 12.1599 5.21799Z" fill="#464646"/>
</svg>
