<svg width="254" height="33" viewBox="0 0 254 33" fill="none" xmlns="http://www.w3.org/2000/svg">
<path d="M93.1803 0L94.6375 0.148431C95.5711 0.259753 96.6688 0.426738 97.9305 0.649384L101.867 1.37298C103.28 1.63274 104.201 1.76261 104.63 1.76261C105.072 1.76261 105.343 1.83683 105.444 1.98526C105.532 2.13369 105.69 2.16461 105.917 2.07803C106.157 1.99144 106.459 2.0471 106.825 2.24501L107.374 2.54187L106.806 2.98716C106.428 3.29639 106.125 3.45101 105.898 3.45101C105.456 3.45101 105.419 4.09421 105.784 5.38061C105.898 5.77642 105.892 6.37633 105.765 7.18033C105.564 8.55331 105.374 11.2869 105.198 15.3811C105.097 17.3973 105.015 18.9002 104.952 19.8897C104.889 20.7926 104.926 21.7574 105.065 22.7841C105.57 26.3217 105.665 28.375 105.349 28.944C105.172 29.2779 104.611 29.4511 103.665 29.4635C100.183 29.5253 98.3721 29.7665 98.2333 30.1871C98.1702 30.3726 97.9936 30.4654 97.7034 30.4654C97.3627 30.4654 97.0473 29.7418 96.7571 28.2946C96.53 27.169 96.5552 24.4354 96.8328 20.0938L96.7382 17.7931L96.6436 17.8673C96.4038 18.0652 96.2272 18.6466 96.1137 19.6114C96.0001 20.5638 95.8739 21.0833 95.7352 21.1699C95.5964 21.2441 95.4639 21.7018 95.3377 22.5429C95.2242 23.3716 94.9718 24.0829 94.5807 24.6766C94.177 25.2703 93.912 26.1485 93.7859 27.3112C93.6723 28.4616 93.7732 29.1233 94.0887 29.2965L94.3725 30.5952L94.1833 30.6509C93.9814 30.6138 93.6912 30.6942 93.3127 30.8921C92.9469 31.09 92.5747 31.0653 92.1962 30.8179C91.7924 30.5705 90.8146 30.4777 89.2628 30.5396C87.345 30.6385 86.3798 30.2922 86.3672 29.5006C86.5565 29.1419 86.5249 28.6966 86.2726 28.1647C86.0076 27.6204 85.8752 27.2617 85.8752 27.0886C85.8752 26.9154 85.7995 26.6866 85.6481 26.4021C85.1812 25.5733 84.5189 23.8293 83.6609 21.1699C83.295 20.0319 82.9355 19.5001 82.5822 19.5743C82.3425 19.9454 82.21 22.1842 82.1848 26.2908V29.9644L81.4467 30.3355C80.9672 30.5829 80.6644 30.6942 80.5383 30.6695C80.4121 30.6447 80.2859 30.6571 80.1598 30.7066C79.8191 30.8055 78.9359 30.9972 77.5102 31.2817C77.2579 31.3312 76.4378 31.257 75.05 31.0591C72.35 30.6509 71 30.2427 71 29.8345C71 29.5253 71.1766 29.346 71.5299 29.2965C71.7949 29.2594 71.9967 29.0676 72.1355 28.7213C72.2743 28.3626 72.268 28.0596 72.1166 27.8122C72.0787 27.7503 72.0472 27.2927 72.022 26.4392C72.0093 25.5733 72.0093 24.7199 72.022 23.8788C72.0346 23.0377 72.0598 22.6171 72.0977 22.6171C72.1103 22.6171 72.1481 22.1347 72.2112 21.1699C72.2869 19.8959 72.4825 18.4487 72.7979 16.8283C72.9871 15.8635 73.0755 14.8616 73.0628 13.8226C72.9871 7.53903 73.0944 4.39725 73.3846 4.39725C72.6276 3.70458 72.3437 3.08612 72.5329 2.54187C72.596 2.3316 72.8105 2.22646 73.1764 2.22646L73.3278 2.00381C73.0881 1.85538 73.1133 1.73169 73.4035 1.63274C73.6937 1.52141 73.9523 1.55234 74.1794 1.7255C74.4065 1.91104 74.7346 1.95434 75.1635 1.85538C75.5799 1.74406 75.9962 1.81827 76.4126 2.07803C77.0056 2.47384 78.0717 2.56661 79.6109 2.35633C80.6203 2.22027 81.2322 2.14606 81.4467 2.13369C81.699 2.12132 81.8252 2.0471 81.8252 1.91104C81.8252 1.78735 81.9829 1.63892 82.2983 1.46575C82.6011 1.29258 82.8534 1.33587 83.0553 1.59563C83.2572 1.86775 83.4464 2.00381 83.6231 2.00381C83.8123 2.00381 83.9069 2.08421 83.9069 2.24501C83.9069 2.40581 84.1277 2.56661 84.5693 2.72741L85.0803 3.09849C84.9794 3.19744 85.0488 3.37679 85.2885 3.63655C85.5282 3.90867 85.6544 4.12513 85.667 4.28593C85.6796 4.44673 85.9256 4.84255 86.4051 5.47338C86.8719 6.10421 87.1053 6.55568 87.1053 6.8278C87.1053 7.73076 87.4838 8.86254 88.2408 10.2232C88.4679 10.6437 88.5815 10.9962 88.5815 11.2807C88.5815 11.392 88.6067 11.4786 88.6572 11.5405C88.7202 11.59 88.7959 11.6023 88.8843 11.5776C89.1871 11.4786 89.4646 10.7798 89.717 9.481C89.8305 8.89965 90.1207 8.15749 90.5875 7.25454C90.7137 6.98242 90.8335 6.50002 90.9471 5.80734C91.212 4.12513 91.6726 3.14796 92.3286 2.87584C92.5431 2.78926 92.5116 2.65938 92.234 2.48621C91.4518 2.00381 91.6221 1.63892 92.745 1.39154C93.1992 1.29258 93.3884 1.03283 93.3127 0.612276L93.1803 0Z" fill="white"/>
<path d="M119.202 1.03901C119.493 1.02664 119.593 1.18126 119.505 1.50286C119.442 1.73787 119.726 1.86775 120.357 1.89249C120.697 1.91723 121.372 1.92341 122.382 1.91104C125.826 1.91104 127.794 2.10895 128.286 2.50477C128.526 2.70267 128.816 3.16652 129.157 3.8963C129.498 4.61372 129.624 5.04045 129.535 5.17651C129.435 5.33731 129.46 5.41771 129.611 5.41771C129.838 5.41771 130.065 5.91867 130.292 6.92057C130.368 7.21743 130.646 7.87919 131.125 8.90583C131.605 9.95721 131.813 10.4829 131.75 10.4829C131.687 10.4829 131.895 11.1447 132.374 12.4682C132.854 13.804 133.093 14.6019 133.093 14.8616C133.106 15.1337 133.226 15.6161 133.453 16.3088C133.693 16.9767 133.838 17.5272 133.888 17.9601C133.939 18.3559 134.027 18.6466 134.153 18.8321C134.279 19.03 134.355 19.4568 134.38 20.1123C134.406 20.7679 134.488 21.0957 134.626 21.0957C134.752 21.0957 134.816 21.1885 134.816 21.374C134.816 21.5101 135.03 22.079 135.459 23.0809C135.901 24.0705 136.178 24.6147 136.292 24.7137C136.948 25.3074 137.276 26.1609 137.276 27.2741C137.276 28.3008 137.572 28.8141 138.165 28.8141C138.392 28.8141 138.506 28.9378 138.506 29.1852C138.506 29.4202 138.588 29.5377 138.752 29.5377C139.156 29.5377 139.067 29.8036 138.487 30.3355C138.146 30.4221 138.027 30.5458 138.127 30.7066C138.254 30.9168 137.938 30.9663 137.181 30.855C136.79 30.5952 135.907 30.62 134.532 30.9292C133.194 31.2384 132.128 31.4487 131.333 31.56C130.576 31.6714 130.097 31.8445 129.895 32.0795C129.239 32.8588 128.375 32.6918 127.302 31.5786C125.839 30.0572 125.29 29.2965 125.656 29.2965C125.807 29.2965 125.883 29.1852 125.883 28.9625C125.883 28.7275 125.788 28.6471 125.599 28.7213C125.41 28.7955 125.195 28.4059 124.956 27.5524L124.615 26.2722L122.968 26.2536C121.883 26.2289 120.943 26.2969 120.149 26.4577C119.354 26.6062 118.761 27.0948 118.37 27.9235C117.486 29.7912 117.335 30.7684 117.915 30.855C118.155 30.756 118.332 30.8426 118.445 31.1147C118.521 31.325 118.439 31.4363 118.199 31.4487C118.035 31.4611 117.695 31.4363 117.177 31.3745C116.218 31.2755 115.253 31.1457 114.282 30.9849C111.115 30.453 109.021 30.1932 107.999 30.2056C107.746 30.218 107.273 30.1005 106.579 29.8531C105.885 29.6057 105.532 29.4325 105.519 29.3336C105.494 29.2223 105.463 28.9687 105.425 28.5729C105.387 28.1771 105.28 27.9544 105.103 27.9049C104.813 27.806 104.914 27.5462 105.406 27.1257C105.62 27.1257 105.98 27.2494 106.485 27.4968C107.279 27.8802 107.544 27.7565 107.279 27.1257C106.8 26.7793 107.008 25.0477 107.904 21.9306C108.182 20.9658 108.327 20.3474 108.339 20.0752C108.352 19.7907 108.415 19.6485 108.529 19.6485C108.642 19.6485 108.756 19.3516 108.869 18.7579C108.983 18.1518 109.185 17.521 109.475 16.8654C109.765 16.2346 110.099 15.3749 110.478 14.2864C110.856 13.1979 111.115 12.6537 111.254 12.6537C111.38 12.6537 111.443 12.4558 111.443 12.06C111.443 11.6642 111.519 11.423 111.67 11.3364C111.809 11.2498 111.935 10.9839 112.049 10.5386C112.162 10.118 112.421 9.47482 112.825 8.60897C113.216 7.7555 113.411 7.29165 113.411 7.21743C113.411 6.62371 114.212 5.07756 115.815 2.57898C116.597 1.37917 117.152 1.03901 117.48 1.55852C117.594 1.73169 117.556 1.9296 117.367 2.15224C117.215 2.33778 117.19 2.48621 117.291 2.59753C117.404 2.69649 117.568 2.68412 117.783 2.56043C117.972 2.4491 118.155 2.1708 118.332 1.7255C118.496 1.28021 118.786 1.05138 119.202 1.03901ZM123.65 2.72741C123.725 2.72741 123.814 2.74596 123.915 2.78307L123.763 2.9315L123.442 2.80163C123.492 2.75215 123.561 2.72741 123.65 2.72741ZM124.823 4.71267C125.012 4.72504 125.107 4.78688 125.107 4.89821L125.012 4.8611C124.81 4.76215 124.432 4.76833 123.877 4.87965L124.426 4.76833C124.59 4.73122 124.722 4.71267 124.823 4.71267ZM117.972 5.54759C117.972 5.54759 117.915 5.55378 117.802 5.56614C117.726 5.56614 117.676 5.56614 117.65 5.56614C117.524 5.57851 117.43 5.60944 117.367 5.65891C117.316 5.70839 117.31 5.76405 117.348 5.8259C117.512 6.09802 117.386 6.5495 116.969 7.18033C117.625 6.19079 117.96 5.64654 117.972 5.54759ZM125.504 5.71458C125.656 6.06091 125.782 6.35777 125.883 6.60516L125.996 6.88347C126.047 6.62371 125.921 6.28974 125.618 5.88156C125.542 5.78261 125.504 5.72694 125.504 5.71458ZM126.167 7.29165C126.268 7.31639 126.312 7.37823 126.299 7.47719C126.287 7.57614 126.293 7.65654 126.318 7.71839L126.167 7.29165ZM127.302 7.53285C127.479 7.53285 127.567 7.61325 127.567 7.77405C127.567 7.93485 127.529 8.01525 127.454 8.01525C127.378 8.01525 127.29 7.93485 127.189 7.77405C127.088 7.61325 127.126 7.53285 127.302 7.53285ZM127.719 8.34922C127.946 8.46054 128.059 8.59042 128.059 8.73885C128.059 8.89965 127.977 8.98005 127.813 8.98005C127.649 8.98005 127.567 8.85635 127.567 8.60897C127.567 8.37396 127.618 8.28737 127.719 8.34922ZM129.895 11.3735C129.845 11.3735 129.807 11.4168 129.781 11.5034C129.655 11.825 129.649 12.0291 129.763 12.1156C130.204 12.4496 130.589 13.5319 130.917 15.3626L131.523 16.6428C131.636 16.5686 131.655 16.2841 131.579 15.7893C131.478 15.1832 131.182 14.237 130.69 12.9506C130.286 11.9116 130.021 11.3859 129.895 11.3735ZM121.492 13.2845C121.215 13.2598 120.83 13.9834 120.338 15.4553C119.619 17.6942 119.65 18.9187 120.432 19.129C121.782 19.5001 122.666 19.4753 123.082 19.0548C123.271 18.8692 123.252 18.6528 123.025 18.4054C122.836 18.1951 122.558 17.4962 122.192 16.3088C121.839 15.109 121.663 14.2926 121.663 13.8597C121.663 13.4886 121.606 13.2969 121.492 13.2845ZM110.837 16.9396C110.837 16.7788 110.919 16.6984 111.083 16.6984C111.247 16.6984 111.329 16.7788 111.329 16.9396C111.329 17.1004 111.247 17.1808 111.083 17.1808C110.919 17.1808 110.837 17.1004 110.837 16.9396ZM130.311 17.3293C130.602 17.6014 130.652 17.7127 130.463 17.6632C130.299 17.4901 130.248 17.3787 130.311 17.3293ZM124.445 17.3849C124.382 17.2118 124.451 17.3849 124.653 17.9044C124.665 17.9168 124.596 17.7436 124.445 17.3849ZM131.996 18.2755C131.996 18.0281 132.027 17.9044 132.09 17.9044C132.153 17.9044 132.229 18.0281 132.317 18.2755C132.418 18.5105 132.387 18.628 132.223 18.628C132.071 18.628 131.996 18.5105 131.996 18.2755ZM124.785 18.1456C125 18.2198 125.12 18.3312 125.145 18.4796C125.12 18.6404 125.025 18.6033 124.861 18.3683C124.71 18.1704 124.684 18.0962 124.785 18.1456ZM130.803 18.4239C131.359 19.7351 131.63 20.4092 131.617 20.4463C131.933 19.8402 131.661 19.1661 130.803 18.4239ZM116.856 25.2517C117.032 25.462 117.013 25.9197 116.799 26.6247C116.786 26.6495 116.767 26.6928 116.742 26.7546C116.717 26.8412 116.704 26.8783 116.704 26.8659C117.285 25.8022 117.335 25.2641 116.856 25.2517ZM109.664 26.5505C109.664 26.934 109.645 27.0515 109.607 26.903C109.607 26.5691 109.626 26.4516 109.664 26.5505ZM127.473 27.1999C127.574 28.2142 127.662 28.6224 127.738 28.4244C127.674 27.7441 127.586 27.336 127.473 27.1999ZM116.004 28.276C115.979 28.4368 115.834 28.5296 115.569 28.5543C115.304 28.5667 115.077 28.5914 114.887 28.6285C112.907 28.8759 112.345 28.9378 113.203 28.8141C115.058 28.5296 115.991 28.3502 116.004 28.276ZM108.983 28.5172L109.21 28.944L108.983 28.5172ZM127.889 28.9996C127.788 28.7028 127.838 28.8883 128.04 29.5562C128.053 29.5933 128.003 29.4078 127.889 28.9996ZM134.948 29.482C135.049 29.717 135.062 29.8098 134.986 29.7603C134.935 29.6614 134.923 29.5686 134.948 29.482ZM128.381 30.1314C127.574 29.4511 128.45 29.5006 131.012 30.2798C132.134 31.2199 131.258 31.1704 128.381 30.1314Z" fill="white"/>
<path d="M168.256 1.39154C168.874 1.39154 169.272 1.45957 169.449 1.59563C169.688 1.8059 169.928 1.81209 170.168 1.61418C170.407 1.41627 170.717 1.34824 171.095 1.41009C171.625 1.48431 171.732 1.89249 171.417 2.63464C171.341 2.80781 171.341 2.92532 171.417 2.98716C171.492 3.03664 171.694 3.06138 172.022 3.06138C172.376 3.06138 172.578 3.08612 172.628 3.13559C172.691 3.1727 172.647 3.27166 172.496 3.43246C172.281 3.69221 171.865 3.78498 171.246 3.71076C170.628 3.62418 170.224 3.69221 170.035 3.91486C169.859 4.12513 169.676 4.19935 169.486 4.1375C169.221 4.05092 168.553 4.88584 167.48 6.64227C167.304 6.90202 167.165 7.07519 167.064 7.16177C166.963 7.23599 166.856 7.49574 166.742 7.94103C166.629 8.37396 166.313 8.80069 165.796 9.22125C162.566 11.8559 160.951 13.4082 160.951 13.8783C160.951 14.0391 161.317 14.3668 162.049 14.8616C162.768 15.344 163.393 16.0491 163.922 16.9767C164.465 17.9044 165.052 18.8136 165.682 19.7042C166.301 20.5824 166.61 21.1204 166.61 21.3183C166.61 21.5286 166.673 21.6337 166.799 21.6337C166.925 21.6337 167.07 21.7884 167.234 22.0976C167.424 22.4439 167.808 23.1304 168.389 24.1571C169.007 25.2085 169.316 25.8455 169.316 26.0681C169.316 26.2784 169.455 26.4392 169.732 26.5505C169.997 26.6495 170.042 26.7855 169.865 26.9587C169.549 27.2803 169.688 27.7565 170.281 28.3873C171.114 29.2656 171.53 29.8778 171.53 30.2242C171.53 30.4097 171.663 30.6324 171.928 30.8921C172.193 31.1519 172.224 31.3992 172.022 31.6343C171.455 32.3022 171.07 32.2527 170.868 31.4858C170.78 31.1519 170.559 31.0282 170.206 31.1147L168.578 31.5044C166.648 31.9868 164.597 32.0424 162.427 31.6714C161.532 31.5106 160.604 31.4425 159.645 31.4673C158.977 31.4796 158.573 31.4611 158.434 31.4116C158.308 31.3621 158.257 31.2075 158.283 30.9478C158.333 30.5891 158.011 29.9026 157.318 28.8883C156.624 27.8616 156.277 27.237 156.277 27.0144C156.277 26.8041 156.207 26.6989 156.068 26.6989C155.766 26.6989 155.375 26.0929 154.895 24.8807C154.416 23.6561 154.252 22.8583 154.403 22.4872C154.479 22.2769 154.422 21.9615 154.233 21.541C154.056 21.1204 153.879 20.9102 153.703 20.9102C153.526 20.8978 153.04 21.2379 152.246 21.9306L151.053 22.9696L150.959 25.2517C150.896 26.9092 150.858 27.8307 150.845 28.0163C150.845 28.3255 150.946 28.7893 151.148 29.4078C151.35 30.0139 151.407 30.354 151.318 30.4283C151.243 30.5025 150.952 30.4468 150.448 30.2613C149.943 30.0757 148.959 30.1561 147.495 30.5025C143.723 31.4178 141.282 31.158 140.171 29.7232C139.755 29.1913 139.547 28.8326 139.547 28.6471C139.547 28.4739 139.465 28.3873 139.301 28.3873C139.137 28.3873 139.055 28.2265 139.055 27.9049C139.055 27.5833 139.175 27.4225 139.414 27.4225C139.667 27.4225 139.793 27.3421 139.793 27.1813C139.793 27.0205 139.667 26.9401 139.414 26.9401C139.213 26.8536 139.13 26.7793 139.168 26.7175C139.446 26.2722 139.604 24.2375 139.641 20.6133C139.667 19.2279 139.736 18.4734 139.85 18.3497C139.963 18.2384 139.97 18.1023 139.869 17.9415C139.73 17.7065 139.66 16.9334 139.66 15.6223C139.673 14.3112 139.755 13.6556 139.906 13.6556C140.083 13.6556 140.083 13.5938 139.906 13.4701C139.73 13.3587 139.629 13.1423 139.604 12.8207C139.427 10.0129 139.465 8.60897 139.717 8.60897C139.957 8.60897 140.02 8.52857 139.906 8.36777C139.805 8.1946 139.686 8.15131 139.547 8.23789C139.408 8.32448 139.301 8.22553 139.225 7.94103C139.112 7.55759 139.067 6.56805 139.093 4.97242C139.118 3.36443 139.187 2.52332 139.301 2.4491C140.058 1.99144 142.19 1.79354 145.698 1.85538C147.262 1.89249 148.328 1.90486 148.896 1.89249C149.464 1.88012 149.855 1.96052 150.069 2.13369C150.284 2.30686 150.858 2.34397 151.791 2.24501C152.738 2.14606 153.331 2.1708 153.57 2.31923L153.646 2.56043C153.444 2.56043 153.387 2.67793 153.476 2.91295C153.564 3.14796 153.299 3.31495 152.681 3.4139C151.747 3.5747 151.217 3.72313 151.091 3.85919C150.965 3.99526 150.915 4.47147 150.94 5.28784C150.965 6.27737 150.915 7.00097 150.788 7.45863C150.675 7.90393 150.744 8.12657 150.997 8.12657C151.236 8.12657 151.356 8.00906 151.356 7.77405C151.356 7.52666 151.438 7.40297 151.602 7.40297C151.766 7.40297 151.848 7.3102 151.848 7.12467C151.848 6.96387 152.668 6.07328 154.308 4.45292C155.961 2.82018 156.687 1.94197 156.485 1.81827C156.169 1.62037 156.283 1.49049 156.825 1.42864C157.217 1.37917 157.677 1.39154 158.207 1.46575C159.784 1.71314 162.604 1.70695 166.667 1.4472C167.348 1.41009 167.878 1.39154 168.256 1.39154ZM159.645 3.30258C159.242 3.38916 158.712 3.68602 158.056 4.19316C158.712 3.59944 159.242 3.30258 159.645 3.30258ZM167.102 3.35824C167.215 3.35824 167.278 3.36443 167.291 3.37679C167.342 3.42627 167.209 3.63036 166.894 3.98907C166.578 4.33541 166.376 4.50858 166.288 4.50858L166.212 4.56424C166.919 3.82209 167.26 3.43246 167.234 3.39535C167.209 3.37061 166.995 3.37061 166.591 3.39535C166.856 3.37061 167.026 3.35824 167.102 3.35824ZM148.896 4.28593V4.58279C148.82 4.43436 148.681 4.34159 148.48 4.30449L148.896 4.28593ZM143.124 4.47147L142.215 4.52713L142.234 4.71267L142.215 4.50858C142.228 4.50858 142.367 4.50239 142.632 4.49002C142.884 4.47765 143.048 4.47147 143.124 4.47147ZM163.62 7.14322L163.506 7.25454L163.62 7.14322ZM149.142 7.32876C149.117 8.52857 149.041 9.36968 148.915 9.85208C149.155 9.39442 149.23 8.55331 149.142 7.32876ZM154.441 7.84826L153.646 8.77596C153.722 8.63989 153.987 8.33066 154.441 7.84826ZM148.934 11.1323C149.022 11.3426 149.047 11.59 149.009 11.8744C149.123 11.6147 149.098 11.3673 148.934 11.1323ZM160.005 15.7151C160.257 15.9996 160.529 16.3707 160.819 16.8283C160.894 16.7046 160.623 16.3335 160.005 15.7151ZM141.894 16.1789C141.843 16.2779 141.786 16.3645 141.723 16.4387C141.622 16.5376 141.629 16.8036 141.742 17.2365C141.767 17.3354 141.786 17.4653 141.799 17.6261C141.824 17.3169 141.856 16.8345 141.894 16.1789ZM161.103 17.2922C161.443 17.8611 161.872 18.6528 162.389 19.667C161.897 18.6157 161.468 17.824 161.103 17.2922ZM141.761 18.9434C141.648 19.9082 141.584 21.0153 141.572 22.2646C141.572 23.5015 141.629 24.2065 141.742 24.3797C141.704 22.5367 141.711 20.7246 141.761 18.9434ZM152.34 19.2218C152.504 19.2218 152.586 19.3022 152.586 19.463C152.586 19.6238 152.548 19.7042 152.473 19.7042C152.41 19.7042 152.328 19.6238 152.227 19.463C152.126 19.3022 152.164 19.2218 152.34 19.2218ZM151.659 19.7042C151.722 19.6918 151.766 19.7042 151.791 19.7413C151.829 19.766 151.848 19.8093 151.848 19.8711C151.848 19.9948 151.754 20.0876 151.564 20.1494C151.489 20.1742 151.432 20.168 151.394 20.1309C151.369 20.0938 151.369 20.0381 151.394 19.9639C151.444 19.8155 151.533 19.7289 151.659 19.7042ZM150.732 20.4278C150.53 20.502 150.448 20.57 150.486 20.6318C150.574 20.7803 150.517 20.8978 150.315 20.9844L150.164 21.1142C150.277 21.1266 150.467 21.0833 150.732 20.9844C151.034 20.873 151.034 20.6875 150.732 20.4278ZM148.233 22.8026C148.221 23.0748 148.17 23.3531 148.082 23.6376C148.271 23.3531 148.322 23.0748 148.233 22.8026ZM157.128 23.3036L157.223 23.5633L157.128 23.3036ZM141.761 24.8807C141.761 24.9425 141.761 25.0291 141.761 25.1404C141.774 25.2517 141.78 25.326 141.78 25.3631C141.603 25.1404 141.597 24.9796 141.761 24.8807ZM148.158 25.0477C148.41 25.3569 148.536 25.9321 148.536 26.7732V27.0329C148.536 26.8226 148.536 26.6989 148.536 26.6618C148.562 25.7218 148.435 25.1837 148.158 25.0477ZM157.847 25.0848L157.923 25.2332C157.847 25.2085 157.822 25.159 157.847 25.0848ZM158.093 25.5857L158.131 25.697L158.093 25.5857ZM158.396 26.1794C158.384 26.6866 158.598 26.9896 159.04 27.0886C158.876 26.9525 158.661 26.6495 158.396 26.1794ZM148.461 27.8678C148.423 28.1028 148.391 28.2389 148.366 28.276C148.315 28.3131 147.987 28.3502 147.382 28.3873C148.025 28.2884 148.385 28.1152 148.461 27.8678ZM141.894 28.1461V28.443C141.742 28.3935 141.742 28.2946 141.894 28.1461ZM168.294 28.7955C168.95 29.4264 168.938 29.748 168.256 29.7603C168.824 29.7603 168.837 29.4387 168.294 28.7955ZM159.399 28.8883C159.349 29.1852 159.406 29.3707 159.57 29.4449C159.305 29.3336 159.248 29.148 159.399 28.8883ZM145.508 28.944C145.634 28.9316 145.698 29.0615 145.698 29.3336L145.376 29.482C145.275 29.2346 145.319 29.0553 145.508 28.944ZM144.467 29.5933C144.467 29.4325 144.549 29.3521 144.713 29.3521C144.877 29.3521 144.959 29.4325 144.959 29.5933C144.959 29.7541 144.877 29.8345 144.713 29.8345C144.549 29.8345 144.467 29.7541 144.467 29.5933ZM162.919 29.3892C162.352 29.5129 161.601 29.5748 160.667 29.5748C160.516 29.5748 160.346 29.5686 160.156 29.5562C160.737 29.581 161.475 29.5377 162.371 29.4264C162.497 29.414 162.68 29.4016 162.919 29.3892Z" fill="white"/>
<path d="M188.979 0.259753C189.459 0.259753 189.698 0.296861 189.698 0.371076C189.698 0.519507 190.474 0.581353 192.026 0.556614C193.578 0.519507 194.379 0.680307 194.43 1.03901C194.48 1.38535 194.581 1.56471 194.733 1.57707C195.843 1.66366 196.347 2.13987 196.247 3.00572C195.906 3.17889 195.761 3.42627 195.811 3.74787C195.849 3.99526 195.9 4.36015 195.963 4.84255C196.139 6.25264 196.423 7.10611 196.814 7.40297C197.079 7.60088 197.022 7.7555 196.644 7.86682C196.278 7.96577 196.095 8.12039 196.095 8.33066C196.095 8.5162 195.805 8.70792 195.225 8.90583C194.644 9.10374 194.19 9.16559 193.862 9.09137C193.547 9.00479 193.345 9.03571 193.256 9.18414C193.168 9.3202 191.433 9.36968 188.052 9.33257C184.696 9.28309 182.898 9.34494 182.658 9.51811C182.444 9.66654 182.299 10.0438 182.223 10.6499C182.147 11.256 182.198 11.6147 182.374 11.726C182.551 11.825 184.223 11.8992 187.39 11.9487C190.556 12.0105 192.304 12.2022 192.632 12.5238C192.973 12.8578 193.307 13.0248 193.635 13.0248C193.963 13.0248 194.14 13.1608 194.165 13.433C194.215 14.0143 194.304 14.4039 194.43 14.6019C194.531 14.7627 194.518 14.9544 194.392 15.177C194.013 15.7707 194.24 16.6119 195.073 17.7003C195.225 17.8982 195.25 18.4363 195.149 19.3145C195.124 19.5372 194.934 19.7165 194.581 19.8526C194.228 19.9763 193.976 19.9577 193.824 19.7969C193.685 19.6732 193.029 19.7165 191.856 19.9268C190.683 20.1494 189.944 20.2175 189.642 20.1309C189.351 20.0319 189.112 20.0381 188.923 20.1494C188.658 20.3102 187.219 20.4278 184.608 20.502C183.27 20.5514 182.545 20.7803 182.431 21.1885C182.179 22.1656 182.122 22.6604 182.261 22.6728C182.412 22.6851 183.239 22.7965 184.74 23.0067C187.806 23.4273 190.355 23.4397 192.386 23.0438C193.622 22.8088 194.304 22.7346 194.43 22.8212C194.556 22.8954 194.619 22.8336 194.619 22.6357L194.77 22.4872C194.859 22.5738 195.067 22.4625 195.395 22.1533C195.71 21.844 196.051 21.7822 196.417 21.9677C196.783 22.1656 197.016 22.345 197.117 22.5058C197.571 23.1861 197.395 24.7879 196.587 27.3112C196.247 28.3873 196.101 29.0553 196.152 29.315C196.202 29.6243 196.07 29.8531 195.755 30.0015C195.452 30.15 195.149 30.1314 194.846 29.9459C194.505 29.7356 194.24 29.7047 194.051 29.8531C193.496 30.2613 191.263 30.5767 187.352 30.7993C185.144 30.9107 182.759 30.9663 180.198 30.9663C177.649 30.9787 176.337 30.923 176.262 30.7993C176.173 30.6633 175.934 30.6014 175.542 30.6138C175.164 30.6385 174.949 30.7251 174.899 30.8736C174.836 31.0343 174.71 31.022 174.52 30.8364C174.319 30.6385 173.89 30.552 173.234 30.5767C172.048 30.6262 171.486 29.7789 171.549 28.0348C171.574 27.0453 171.675 26.6 171.852 26.6989L171.795 26.5134C171.593 26.3031 171.492 25.8702 171.492 25.2146C171.492 24.7817 171.574 24.5776 171.739 24.6024L171.985 24.6951C171.985 24.5343 171.896 24.3612 171.72 24.1756C171.291 23.7551 171.404 23.0624 172.06 22.0976L171.966 21.8007C171.713 21.4915 171.612 21.139 171.663 20.7432C171.726 20.2855 171.776 19.8835 171.814 19.5372C171.852 19.129 171.947 18.863 172.098 18.7394C172.262 18.628 172.249 18.5724 172.06 18.5724C171.871 18.56 171.808 18.2137 171.871 17.5334C171.934 16.853 171.985 15.6471 172.022 13.9154C172.073 12.2579 172.224 11.4353 172.477 11.4477C172.199 11.1261 172.085 10.7674 172.136 10.3716C172.186 9.93866 172.212 9.079 172.212 7.7926C172.224 6.49384 172.205 5.70221 172.155 5.41771C172.104 5.08375 172.016 4.82399 171.89 4.63845C171.776 4.44055 171.821 4.34159 172.022 4.34159C172.249 4.34159 172.136 4.1375 171.682 3.72932C171.228 3.30876 171 3.02427 171 2.87584C171 2.72741 171.328 2.4924 171.985 2.1708C172.641 1.83683 172.969 1.55852 172.969 1.33587C172.969 1.11323 174.18 1.0452 176.602 1.13178C178.999 1.206 180.961 1.11323 182.488 0.853476C184.973 0.432922 187.137 0.235015 188.979 0.259753ZM183.775 2.6903C182.589 2.78926 181.214 3.00572 179.649 3.33969C180.431 2.96861 181.807 2.75215 183.775 2.6903ZM176.886 4.06329C176.016 4.28593 175.536 4.49002 175.448 4.67556C175.662 4.50239 176.142 4.2983 176.886 4.06329ZM192.954 4.08184L193.029 4.10039C193.231 4.10039 193.345 4.15605 193.37 4.26738C193.256 4.20553 193.118 4.14369 192.954 4.08184ZM194.278 4.87965C194.505 5.12704 194.632 5.45482 194.657 5.86301C194.682 5.70221 194.714 5.57233 194.751 5.47338C194.84 5.2631 194.682 5.06519 194.278 4.87965ZM175.183 5.1023C175.183 5.13941 175.195 5.19507 175.221 5.26928L175.183 5.1023ZM180.16 9.12848C180.362 9.26454 180.476 9.58614 180.501 10.0933L180.577 9.18414L180.16 9.12848ZM190.02 13.9896C191.307 14.1627 192.026 14.3174 192.178 14.4534C192.38 14.639 192.562 15.0348 192.726 15.6409C192.79 15.5419 192.72 15.3007 192.518 14.9173C192.266 14.4472 192.083 14.206 191.969 14.1937C191.843 14.1813 191.534 14.1504 191.042 14.1009C190.815 14.0762 190.474 14.0391 190.02 13.9896ZM174.426 17.0324C174.375 17.3911 174.344 17.6199 174.331 17.7189C174.256 18.2013 174.18 19.296 174.104 21.0029C174.041 22.2398 174.041 23.0438 174.104 23.4149C174.117 21.5719 174.224 19.4444 174.426 17.0324ZM192.991 17.2922C192.878 17.3664 192.506 17.4158 191.875 17.4406L192.991 17.2922ZM182.204 17.589C182.267 17.6509 182.766 17.688 183.699 17.7003L183.642 17.7931L182.923 17.8859C182.419 17.824 182.179 17.7251 182.204 17.589ZM184.04 24.4168C184.86 24.4539 185.447 24.6024 185.8 24.8621C185.333 24.6766 184.746 24.5281 184.04 24.4168ZM181.674 24.5096C181.624 24.5838 181.586 24.6828 181.561 24.8065C181.523 24.9301 181.479 25.0415 181.428 25.1404C181.416 24.992 181.498 24.7817 181.674 24.5096ZM194.07 25.0662C194.386 25.0909 194.556 25.159 194.581 25.2703C194.505 25.1961 194.335 25.1281 194.07 25.0662ZM189.358 25.1219C188.853 25.2208 188.607 25.3631 188.62 25.5486C188.279 25.5486 188.254 25.462 188.544 25.2889C188.683 25.2146 188.954 25.159 189.358 25.1219ZM174.161 25.7898C173.997 26.7051 174.136 27.4102 174.577 27.9049C174.375 27.6081 174.237 26.903 174.161 25.7898ZM195.073 26.2908L194.865 26.4948C194.815 26.532 194.77 26.5876 194.733 26.6618C194.733 26.5258 194.733 26.433 194.733 26.3835L194.808 26.365C194.96 26.3155 195.048 26.2908 195.073 26.2908ZM186.103 28.276C185.977 28.2884 185.8 28.3193 185.573 28.3688C185.358 28.4059 185.163 28.4368 184.986 28.4616C183.535 28.6966 182.665 28.9068 182.374 29.0924C182.072 29.2903 183.958 29.3707 188.033 29.3336C187.44 29.346 186.948 29.3521 186.557 29.3521C183.15 29.3892 181.573 29.3336 181.826 29.1852C182.406 28.8636 183.832 28.5605 186.103 28.276ZM180.047 28.4987C178.659 28.8574 177.681 28.9749 177.113 28.8512C177.908 28.8759 178.886 28.7584 180.047 28.4987ZM194.411 28.944C194.209 29.3769 193.931 29.482 193.578 29.2594C193.54 29.2346 193.483 29.2099 193.408 29.1852C193.925 29.1357 194.259 29.0553 194.411 28.944Z" fill="white"/>
<path d="M205.633 0.259753C206.529 0.247384 207.343 0.290676 208.075 0.38963C209.16 0.538061 209.828 0.544245 210.081 0.408184C210.321 0.272123 210.649 0.284492 211.065 0.445292C211.469 0.593722 211.696 0.593722 211.746 0.445292C211.797 0.296861 212.112 0.296861 212.692 0.445292C213.273 0.606091 214.276 0.735968 215.702 0.834922C217.153 0.933875 217.973 1.07612 218.162 1.26166C218.603 1.65747 219.972 1.78735 222.269 1.65129C222.672 1.62655 222.969 1.74406 223.158 2.00381C223.347 2.26357 223.53 2.39344 223.707 2.39344C223.896 2.39344 224.054 2.49858 224.18 2.70886C224.319 2.9315 224.742 3.22218 225.448 3.58089C226.167 3.93959 226.438 4.19935 226.262 4.36015C226.098 4.52095 226.161 4.85492 226.451 5.36205C226.867 6.09184 227.139 7.08137 227.265 8.33066C227.404 9.57995 227.328 10.4334 227.038 10.8911C226.912 11.089 226.83 11.3302 226.792 11.6147C226.602 12.7898 225.801 14.1195 224.388 15.6038C223.884 16.148 223.404 16.5376 222.95 16.7726C222.508 16.9953 222.288 17.2489 222.288 17.5334C222.288 17.8178 222.704 18.4425 223.537 19.4073C224.369 20.3597 225.076 21.3493 225.656 22.3759C226.237 23.3902 226.634 23.9406 226.849 24.0272C227.076 24.1014 227.177 24.4354 227.151 25.0291C227.076 26.4021 227.486 27.4225 228.381 28.0905C228.609 28.2513 228.691 28.5296 228.627 28.9254C228.577 29.3212 228.432 29.5253 228.192 29.5377C227.94 29.5377 227.65 29.6243 227.322 29.7974C226.148 30.4283 224.06 30.855 221.057 31.0776C219.152 31.2261 218.118 31.0529 217.954 30.5581C217.853 30.2242 217.399 29.5191 216.591 28.443C215.796 27.3669 215.399 26.7793 215.399 26.6804C215.399 26.0743 214.377 24.6704 212.333 22.4687C211.677 21.7389 211.292 21.8007 211.178 22.6542C211.115 23.05 211.002 23.3098 210.838 23.4335C210.674 23.5448 210.718 23.6066 210.97 23.619C211.21 23.619 211.21 23.6994 210.97 23.8602L210.914 24.0829C211.141 24.0952 211.204 24.1694 211.103 24.3055C211.014 24.4539 210.926 25.5981 210.838 27.738C210.724 30.5952 210.573 32.1723 210.384 32.4692C210.068 32.9763 209.557 32.797 208.851 31.9311C208.485 31.4858 207.93 31.2075 207.185 31.0962C206.428 30.9849 206.05 30.9911 206.05 31.1147C206.05 31.2384 205.532 31.325 204.498 31.3745C203.741 31.4116 203.293 31.4611 203.154 31.5229C203.028 31.5971 202.965 31.8136 202.965 32.1723C202.965 32.6547 202.82 32.9268 202.53 32.9887C202.252 33.0505 202.031 32.8588 201.867 32.4135C201.703 31.9806 201.665 31.6961 201.754 31.56C201.829 31.424 201.703 31.2694 201.375 31.0962C201.047 30.923 200.883 30.8859 200.883 30.9849C200.883 31.0715 200.656 30.9663 200.202 30.6695C199.76 30.3726 199.319 30.1314 198.877 29.9459C198.461 29.7727 198.164 29.2532 197.988 28.3873C197.849 27.7689 197.786 26.2351 197.798 23.786C197.811 21.3245 197.887 19.9021 198.026 19.5186C198.139 19.197 198.309 17.7498 198.536 15.177C198.6 14.4843 198.675 13.8411 198.764 13.2474C198.852 12.6413 198.94 11.8806 199.029 10.9653C199.129 9.98814 199.249 9.18414 199.388 8.55331C199.54 7.89774 199.64 6.7103 199.691 4.99098C199.741 3.25929 199.886 2.39344 200.126 2.39344C200.379 2.39344 200.997 2.05947 201.981 1.39154C202.952 0.723599 203.936 0.352523 204.933 0.278307C205.097 0.265938 205.331 0.259753 205.633 0.259753ZM212.56 1.42864C212.623 1.42864 212.705 1.50904 212.806 1.66984C212.907 1.83064 212.869 1.91104 212.692 1.91104C212.528 1.91104 212.446 1.83064 212.446 1.66984C212.446 1.50904 212.484 1.42864 212.56 1.42864ZM206.39 3.07993C206.088 3.11704 205.823 3.17889 205.596 3.26547C205.785 3.16652 206.05 3.10467 206.39 3.07993ZM213.298 3.1727C214.446 3.20981 215.128 3.29639 215.342 3.43246L215.418 3.46956C214.686 3.34587 213.979 3.24692 213.298 3.1727ZM202.586 3.22836C202.195 3.32732 202 4.06947 202 5.45482C202.088 4.50239 202.195 3.87775 202.322 3.58089C202.46 3.28403 202.694 3.19126 203.022 3.30258C202.883 3.24073 202.738 3.21599 202.586 3.22836ZM216.061 3.43246L216.137 3.54378C215.859 3.53141 215.714 3.52523 215.702 3.52523C215.777 3.51286 215.897 3.48193 216.061 3.43246ZM221.114 4.82399C221.316 4.79925 221.48 4.84255 221.606 4.95387L221.114 4.82399ZM210.365 6.40107C210.882 6.64845 211.286 6.7907 211.576 6.8278C211.601 6.8278 211.677 6.84017 211.803 6.86491L210.365 6.40107ZM225.126 6.62371L225.051 6.67937C224.975 6.91439 225.088 7.38442 225.391 8.08946C225.707 8.79451 225.953 9.14703 226.129 9.14703C226.205 9.14703 226.205 8.94912 226.129 8.55331C225.902 7.32876 225.568 6.68556 225.126 6.62371ZM223.196 7.60706C223.461 8.53476 223.606 9.51192 223.631 10.5386C223.656 9.04189 223.511 8.06473 223.196 7.60706ZM214.131 7.68128L214.755 7.90393C214.617 7.85445 214.408 7.78023 214.131 7.68128ZM210.44 8.49765C209.898 8.49765 209.69 9.19032 209.816 10.5757C209.917 11.726 209.847 12.3445 209.608 12.4311C209.368 12.53 209.248 12.6846 209.248 12.8949C209.248 13.6742 210.415 13.5814 212.749 12.6166C213.62 12.2579 214.32 11.9116 214.85 11.5776C215.392 11.2312 215.62 10.99 215.531 10.854C215.443 10.7179 214.749 10.3283 213.45 9.68509C212.15 9.02952 211.324 8.65845 210.97 8.57186C210.756 8.52239 210.579 8.49765 210.44 8.49765ZM217.367 9.92629C217.405 10.186 217.474 10.3592 217.575 10.4458C217.487 10.2108 217.417 10.0376 217.367 9.92629ZM223.574 11.9301C223.524 12.3878 223.442 12.7898 223.328 13.1361C223.442 12.9506 223.524 12.5486 223.574 11.9301ZM218.105 12.6351C218.092 12.7712 218.048 12.8516 217.973 12.8763C218.036 12.765 218.08 12.6846 218.105 12.6351ZM216.875 12.6537C216.989 12.629 217.115 12.6723 217.253 12.7836C216.951 12.7712 216.591 12.8702 216.175 13.0804C216.528 12.8083 216.761 12.6661 216.875 12.6537ZM201.848 13.9525C201.823 14.3112 201.804 14.6019 201.792 14.8245C201.779 15.0471 201.785 15.1647 201.811 15.177C201.848 15.177 201.924 15.0286 202.038 14.7317C201.937 14.7812 201.874 14.5215 201.848 13.9525ZM208.453 13.9896C208.415 14.1009 208.371 14.1689 208.321 14.1937C208.384 14.1318 208.428 14.0638 208.453 13.9896ZM222.95 14.0452C222.647 14.5895 222.124 14.8925 221.379 14.9544C221.278 14.9667 221.19 14.9791 221.114 14.9915C222.06 15.2141 222.672 14.8987 222.95 14.0452ZM219.827 15.4739C219.802 15.746 219.644 15.8883 219.354 15.9006L219.581 15.678C219.644 15.6161 219.726 15.5481 219.827 15.4739ZM202.34 16.4758L202.303 16.55C202.151 16.7355 202.113 16.8963 202.189 17.0324C202.214 17.0695 202.221 17.2056 202.208 17.4406C202.233 17.2674 202.277 16.9458 202.34 16.4758ZM199.54 17.6076C199.514 17.6076 199.464 17.6138 199.388 17.6261C198.909 17.7251 198.669 19.0362 198.669 21.5595C198.682 25.5053 198.94 27.4782 199.445 27.4782C199.609 27.4782 199.64 26.7732 199.54 25.3631C199.237 20.6628 199.199 18.1827 199.426 17.923L199.54 17.6076ZM202.057 18.6837C201.968 19.2774 201.905 20.069 201.867 21.0586C201.905 20.3535 201.968 19.5619 202.057 18.6837ZM212.011 18.8136L212.768 19.7784C212.491 19.3083 212.364 19.03 212.39 18.9434C212.415 18.894 212.409 18.863 212.371 18.8507C212.245 18.9002 212.125 18.8878 212.011 18.8136ZM209.305 19.0548C209.381 19.2032 209.368 19.3764 209.267 19.5743C209.482 19.4506 209.494 19.2774 209.305 19.0548ZM213.923 21.374C214.049 21.4358 214.125 21.5472 214.15 21.708L213.923 21.374ZM223.196 21.9492C222.805 22.3079 223.032 23.0624 223.877 24.2127L225.808 26.2165C225.833 26.0929 225.713 25.7651 225.448 25.2332C225.095 24.5529 224.786 24.0643 224.521 23.7674C224.268 23.4706 224.149 23.2665 224.161 23.1552C224.186 23.0562 224.054 22.8336 223.764 22.4872C223.486 22.1409 223.297 21.9615 223.196 21.9492ZM214.15 22.7099C214.73 23.3654 215.02 23.5572 215.02 23.285C215.02 23.2232 214.989 23.1242 214.926 22.9882C215.077 23.1985 215.153 23.3345 215.153 23.3964C215.153 23.8417 214.818 23.6128 214.15 22.7099ZM201.848 23.0624C201.874 25.0044 201.993 26.4021 202.208 27.2556C202.057 26.501 201.949 25.4311 201.886 24.0457C201.861 23.6376 201.848 23.3098 201.848 23.0624ZM217.746 26.4948C217.897 26.903 218.092 27.2184 218.332 27.4411C218.193 27.2556 217.998 26.9401 217.746 26.4948ZM224.824 27.7565L225.505 28.3873L225.372 28.4059L224.824 27.7565ZM219.108 27.8678C219.247 27.9049 219.461 27.9544 219.752 28.0163C219.537 27.9792 219.323 27.9297 219.108 27.8678ZM207.677 28.1832C207.513 28.9501 206.882 29.346 205.785 29.3707C205.495 29.3831 205.122 29.3831 204.668 29.3707C205.753 29.482 206.542 29.5068 207.034 29.4449C207.438 29.3954 207.652 28.9749 207.677 28.1832ZM202.681 28.7213C202.782 28.8697 202.896 28.9934 203.022 29.0924C202.933 29.0676 202.87 29.0429 202.833 29.0182C202.807 28.9811 202.757 28.8821 202.681 28.7213Z" fill="white"/>
<path d="M240.721 1.22455C240.771 1.21218 240.834 1.23074 240.91 1.28021C241.087 1.39154 241.926 1.47194 243.427 1.52141C246.909 1.62037 249.344 2.77689 250.732 4.99098C250.972 5.37442 251.445 5.92485 252.151 6.64227C253.262 7.78023 253.514 8.31211 252.908 8.23789C252.782 8.22553 252.744 8.25645 252.795 8.33066C253.123 8.85017 252.543 9.43771 251.054 10.0933C250.019 10.5509 249.357 10.7365 249.067 10.6499C248.776 10.5509 248.751 10.588 248.991 10.7612C249.218 10.922 249.022 11.1261 248.404 11.3735C246.714 12.0662 245.931 11.8312 246.058 10.6684C246.259 10.4334 246.209 10.2726 245.906 10.186C245.603 10.0871 245.326 9.9634 245.073 9.81497C244.834 9.66654 244.361 9.41915 243.654 9.07282C242.96 8.73885 242.563 8.49765 242.462 8.34922C242.336 8.15131 242.083 8.08946 241.705 8.16368C241.326 8.22553 241.099 8.38014 241.023 8.62752C240.91 8.94912 240.651 9.1594 240.247 9.25835C239.705 9.39442 239.61 9.67891 239.964 10.1118C240.658 10.9406 241.661 11.4477 242.973 11.6332C245.13 11.9177 246.594 12.4001 247.363 13.0804C247.893 13.5505 248.493 13.7979 249.161 13.8226C250.36 13.8844 251.218 14.1627 251.735 14.6575C252.707 15.6223 253.192 16.5315 253.192 17.3849C253.192 17.6199 253.318 17.8364 253.571 18.0343C253.823 18.2446 253.905 18.461 253.817 18.6837C253.729 18.9063 253.773 19.3826 253.949 20.1123C254.139 20.9411 253.798 22.1965 252.927 23.8788L253.306 24.3055C253.722 23.9221 253.93 23.7984 253.93 23.9344C253.93 24.1076 253.747 24.4539 253.382 24.9734C253.028 25.4929 252.789 25.7527 252.662 25.7527C252.511 25.7527 252.473 25.8207 252.549 25.9568C252.65 26.0929 252.492 26.3773 252.076 26.8103C251.672 27.2432 251.464 27.5153 251.451 27.6266C251.426 27.8988 250.814 28.4244 249.615 29.2037C248.429 29.9706 247.401 30.5087 246.531 30.8179C245.244 31.2755 244.531 31.5477 244.392 31.6343C244.203 31.7456 243.503 31.8198 242.291 31.8569C241.093 31.894 240.254 31.8693 239.774 31.7827C238.185 31.4611 237.119 31.1704 236.576 30.9107C236.084 30.6509 235.39 30.3664 234.494 30.0572C233.598 29.748 232.942 29.3769 232.526 28.944C232.11 28.4987 231.687 28.109 231.258 27.7751C230.816 27.4535 230.211 26.6618 229.441 25.4002C228.672 24.1633 228.394 23.3283 228.609 22.8954C228.823 22.4625 228.955 22.0914 229.006 21.7822C229.12 21.2132 229.561 20.9287 230.331 20.9287C230.76 20.9287 231.031 20.873 231.145 20.7617C231.258 20.6504 231.491 20.57 231.845 20.5205C232.261 20.4587 232.854 20.3474 233.624 20.1866L235.422 19.8155C235.775 19.7413 236.128 19.531 236.481 19.1846C236.835 18.8259 237.049 18.7455 237.125 18.9434C237.201 19.1414 237.314 19.197 237.466 19.1104C237.617 19.0115 237.913 19.1846 238.355 19.6299C238.809 20.0629 238.935 20.3164 238.733 20.3906C238.014 20.6257 238.216 21.3183 239.339 22.4687C239.629 22.7779 239.926 22.982 240.229 23.0809C240.658 23.2294 241.156 23.1861 241.724 22.9511C242.304 22.7161 242.657 22.4068 242.783 22.0234L242.802 20.3535C242.676 20.0938 242.493 19.9639 242.254 19.9639C242.026 19.9639 241.888 19.8959 241.837 19.7598C241.736 19.5124 241.099 19.1599 239.926 18.7022C238.765 18.2322 237.831 17.9601 237.125 17.8859C236.103 17.7869 234.98 17.3293 233.756 16.5129C232.532 15.6965 231.719 15.0843 231.315 14.6761C230.053 13.3649 229.624 12.3321 230.028 11.5776C230.179 11.3055 230.343 10.619 230.52 9.51811C230.684 8.42962 230.892 7.63799 231.145 7.14322C231.409 6.63608 231.542 6.27737 231.542 6.0671C231.542 5.84445 231.605 5.73313 231.731 5.73313C231.857 5.73313 232.002 5.55996 232.166 5.21362C232.33 4.85492 232.696 4.53332 233.264 4.24882C233.844 3.93959 234.4 3.53759 234.93 3.04283C235.863 2.18935 237.377 1.70077 239.472 1.57707C240.254 1.5276 240.67 1.41009 240.721 1.22455ZM243.616 3.43246C243.969 3.44483 244.31 3.56233 244.638 3.78498C244.007 3.51286 243.49 3.42009 243.086 3.50667L242.481 3.61799C242.695 3.54378 242.929 3.4943 243.181 3.46956C243.269 3.45719 243.351 3.45101 243.427 3.45101C243.515 3.43864 243.578 3.43246 243.616 3.43246ZM240.342 4.1375C239.964 4.26119 239.648 4.37252 239.396 4.47147C239.699 4.31067 240.014 4.19935 240.342 4.1375ZM237.901 5.19507L237.768 5.25073C237.529 5.38679 237.264 5.54759 236.973 5.73313C237.377 5.41153 237.63 5.23836 237.73 5.21362C237.756 5.21362 237.812 5.20744 237.901 5.19507ZM247.969 5.21362C248.12 5.22599 248.24 5.2631 248.329 5.32495C248.429 5.37442 248.474 5.43627 248.461 5.51048C248.272 5.38679 248.108 5.28784 247.969 5.21362ZM234.343 5.28784C234.482 5.39916 234.507 5.55996 234.419 5.77024L234.267 5.62181C234.255 5.4239 234.28 5.31258 234.343 5.28784ZM235.8 6.60516C235.699 6.667 235.63 6.69793 235.592 6.69793C235.441 6.69793 235.169 7.08756 234.778 7.86682C234.236 8.94294 234.255 10.217 234.835 11.6889C234.57 10.7365 234.437 10.0067 234.437 9.49955C234.437 8.41106 234.892 7.44626 235.8 6.60516ZM250.107 6.7907C250.183 6.7907 250.259 6.84017 250.335 6.93913C250.246 6.86491 250.171 6.81544 250.107 6.7907ZM244.089 7.34731C244.203 7.44626 244.348 7.55759 244.525 7.68128C244.247 7.66891 244.102 7.55759 244.089 7.34731ZM250.883 7.7555C250.934 7.9534 250.864 8.16986 250.675 8.40488C251.054 8.15749 251.123 7.94103 250.883 7.7555ZM246.852 9.35112C246.903 9.45008 246.947 9.52429 246.985 9.57377C246.884 9.53666 246.84 9.46245 246.852 9.35112ZM237.976 9.9634C238.077 9.97577 238.115 10.1366 238.09 10.4458C238.077 10.7303 238.027 10.9158 237.939 11.0024C237.926 10.6437 237.939 10.2974 237.976 9.9634ZM247.344 10.0376C247.483 10.1737 247.635 10.2293 247.799 10.2046C247.698 10.3036 247.59 10.3345 247.477 10.2974C247.376 10.2603 247.332 10.1737 247.344 10.0376ZM234.589 12.0414C234.526 12.0662 234.501 12.1775 234.513 12.3754L234.665 12.5238C234.753 12.3135 234.728 12.1527 234.589 12.0414ZM240.304 13.1547C240.784 13.3278 241.37 13.5752 242.064 13.8968L242.008 13.8411C241.541 13.4206 241.137 13.2041 240.796 13.1918C240.62 13.1794 240.456 13.167 240.304 13.1547ZM235.743 14.1009C235.844 14.2741 235.933 14.3978 236.008 14.472L235.762 14.4163C235.787 14.3668 235.781 14.2617 235.743 14.1009ZM244.07 14.8802C244.689 15.2265 245.218 15.5419 245.66 15.8264L245.301 15.5295C245.023 15.3069 244.613 15.0904 244.07 14.8802ZM237.182 14.9544C237.32 15.0286 237.51 15.1152 237.749 15.2141L237.182 14.9544ZM248.026 16.1047C248.152 16.1047 248.322 16.2037 248.537 16.4016C248.36 16.3397 248.221 16.3088 248.12 16.3088C248.019 16.2964 247.969 16.315 247.969 16.3645C247.855 16.2037 247.874 16.1171 248.026 16.1047ZM240.399 16.6799C240.487 16.7417 240.538 16.7788 240.55 16.7912C240.639 16.8654 240.746 16.9334 240.872 16.9953C240.569 16.8469 240.412 16.7417 240.399 16.6799ZM250.827 18.6651C250.839 18.8012 250.839 18.8816 250.827 18.9063C250.827 18.8445 250.827 18.7641 250.827 18.6651ZM235.308 21.6894C235.485 21.6894 235.693 21.7884 235.933 21.9863C235.655 21.8502 235.295 21.7822 234.854 21.7822C235.056 21.708 235.207 21.677 235.308 21.6894ZM232.223 22.0976H232.299C231.668 22.246 231.353 22.4192 231.353 22.6171C231.302 22.4192 231.302 22.2893 231.353 22.2275C231.428 22.1533 231.719 22.11 232.223 22.0976ZM250.391 22.1161C250.29 22.6357 250.19 23.0129 250.089 23.2479C250.19 22.914 250.29 22.5367 250.391 22.1161ZM236.727 22.8026C236.992 23.1242 237.144 23.4273 237.182 23.7118C237.144 23.6376 237.112 23.5695 237.087 23.5077C236.961 23.2108 236.841 22.9758 236.727 22.8026ZM249.88 23.8602C249.666 24.4045 249.445 24.8436 249.218 25.1775C249.849 24.4972 250.07 24.0581 249.88 23.8602ZM240.38 25.1219C240.67 25.1095 240.859 25.1342 240.948 25.1961C240.658 25.1713 240.468 25.1466 240.38 25.1219ZM248.158 26.1609C247.729 26.4825 247.218 26.8103 246.625 27.1442C247.016 27.0082 247.527 26.6804 248.158 26.1609ZM233.983 27.3112C234.21 27.4968 234.501 27.6823 234.854 27.8678C234.766 27.8555 234.696 27.8493 234.646 27.8493C234.507 27.8493 234.286 27.6699 233.983 27.3112ZM246.02 27.4782C245.212 28.3069 244.02 28.8203 242.443 29.0182C243.629 28.61 244.821 28.0967 246.02 27.4782ZM248.253 27.8307C248.429 27.8307 248.549 27.9111 248.612 28.0719C248.65 28.1832 248.638 28.2698 248.575 28.3317C248.524 28.3812 248.417 28.4059 248.253 28.4059C247.925 28.4059 247.717 28.5296 247.628 28.777C247.527 29.012 247.262 29.1295 246.833 29.1295H246.171L246.909 28.5358C247.502 28.0781 247.95 27.8431 248.253 27.8307Z" fill="white"/>
<path d="M3.30268 3.33779H3.51171C4.51505 3.80225 5.31633 4.90007 5.91555 6.63125C7.47631 11.5011 8.62598 17.708 9.36455 25.2519C9.85228 27.7009 10.0962 29.8825 10.0962 31.7966C9.92893 32.2189 9.44816 32.43 8.65385 32.43C8.3194 31.7825 7.92921 29.4251 7.48328 25.3575C7.35786 24.9212 7.09309 23.1548 6.68896 20.0584L6.50084 20.0373C3.85312 20.2906 2.52926 20.4595 2.52926 20.544V23.8374L1.96488 31.5644C2.0903 31.7474 2.15301 31.9585 2.15301 32.1977C2.15301 32.437 1.90914 32.7044 1.4214 33C0.473802 33 0 32.5426 0 31.6277C0.431996 25.6882 0.647993 22.1274 0.647993 20.9451C0.592252 20.171 0.564381 19.3828 0.564381 18.5806C0.592252 14.513 0.9267 10.2062 1.56773 5.6601C1.88824 4.11189 2.46656 3.33779 3.30268 3.33779ZM3.67893 5.51232C2.96823 8.27094 2.61288 12.2752 2.61288 17.525C2.55713 17.525 2.52926 18.0669 2.52926 19.1506V18.8339C3.88099 18.4539 5.22575 18.2639 6.56354 18.2639V18.5806C6.56354 16.8916 5.64381 12.8593 3.80435 6.48346C3.45596 5.72343 3.41416 5.39972 3.67893 5.51232Z" fill="white"/>
<path d="M17.4933 4.45672H17.6814C18.9356 4.45672 19.9459 4.94933 20.7124 5.93455V6.23012C20.7124 6.45531 20.4824 6.70866 20.0226 6.99015C19.6742 6.99015 19.1586 6.77199 18.4758 6.33568C18.2249 6.20901 17.9323 6.14567 17.5978 6.14567H17.347C15.9674 6.48346 15.2776 11.1562 15.2776 20.164C15.2776 24.4708 15.7723 27.7431 16.7617 29.981C17.0265 30.5581 17.5421 31.0014 18.3085 31.311H18.4548C19.1516 31.1703 19.5 30.7481 19.5 30.0443C19.723 30.0443 20.0017 28.4891 20.3361 25.3786V21.2829V21.2618C20.9214 21.2618 21.214 21.304 21.214 21.3885C18.2876 21.1633 16.8244 20.8466 16.8244 20.4384L16.7408 20.0162V19.9106C16.7408 19.6714 16.9498 19.4462 17.3679 19.235H17.9741C18.1692 19.3899 19.3885 19.5658 21.6321 19.7628C22.0223 20.1569 22.2174 20.8255 22.2174 21.7685V23.8797C22.2174 24.2175 22.1895 24.6467 22.1338 25.1675C22.1895 25.266 22.2174 25.3786 22.2174 25.5053C21.8133 30.2203 21.1722 32.5778 20.2943 32.5778C20.2943 32.6341 19.723 32.7748 18.5803 33H18.1204C17.0334 32.7467 16.0928 32.1344 15.2985 31.1633C14.0304 28.7424 13.3963 25.0479 13.3963 20.0795C13.3963 10.6355 14.4345 5.46305 16.5109 4.56228L17.4933 4.45672Z" fill="white"/>
<path d="M29.1547 3.02111L29.3428 3.12667C28.9526 3.12667 28.7575 3.08445 28.7575 3C31.238 3.22519 32.4783 3.57706 32.4783 4.05559V4.20338C32.2971 4.72414 31.9696 4.98452 31.4958 4.98452L29.0711 4.73118C28.9596 4.73118 28.6042 4.75229 28.005 4.79451L28.0468 5.38564C28.0468 6.31457 28.1792 9.89655 28.444 16.1316H28.5276C28.9317 16.1316 29.2801 16.1034 29.5727 16.0471C30.8827 16.1597 31.9139 16.216 32.6664 16.216L33.1472 16.8705V17.2294C33.1472 17.6798 32.8615 17.905 32.2901 17.905C31.7885 17.905 30.9802 17.8487 29.8654 17.7361C29.1268 17.7924 28.66 17.8205 28.4649 17.8205V17.7361C28.4649 21.7051 28.653 26.1527 29.0293 31.0788C29.0989 31.0788 29.1338 31.0999 29.1338 31.1422C30.8757 31.0436 31.9905 30.9944 32.4783 30.9944C32.9103 31.1351 33.2168 31.3885 33.398 31.7544V31.9233C33.398 32.1485 33.175 32.4018 32.7291 32.6833C30.5134 32.7396 29.1826 32.7959 28.7366 32.8522C27.6915 32.8522 27.1689 32.3526 27.1689 31.3533C26.7787 25.9768 26.5836 21.494 26.5836 17.905V15.2027C26.3049 10.2484 26.1655 6.91274 26.1655 5.19564C25.9983 4.35116 25.9147 3.82336 25.9147 3.61224L26.5627 3.12667H27.6915C27.998 3.12667 28.4858 3.09148 29.1547 3.02111Z" fill="white"/>
<path d="M46.4574 3.19001C48.3526 3.19001 49.7809 7.11682 50.7425 14.9704C50.7982 15.7164 50.8261 16.6594 50.8261 17.7994V18.1372C50.8261 18.3624 50.8052 18.5876 50.7634 18.8128C50.8052 18.8691 50.8261 19.0943 50.8261 19.4884V19.5728C50.8261 19.9669 50.8052 20.1921 50.7634 20.2484C50.8052 20.4736 50.8261 20.6144 50.8261 20.6707C50.8261 26.7227 49.9482 30.4947 48.1923 31.9866C47.4816 32.2681 46.9869 32.4089 46.7082 32.4089H46.0393C43.7678 31.86 42.3673 29.1084 41.8378 24.1541L41.587 20.6918C41.587 12.6974 42.5973 7.11682 44.6179 3.95004C45.2868 3.44335 45.8999 3.19001 46.4574 3.19001ZM43.4682 20.4173C43.4682 23.5559 43.8793 26.3005 44.7015 28.6509C45.3843 30.0303 45.9139 30.7199 46.2901 30.7199H46.3737C47.2099 30.7199 47.7673 30.0373 48.046 28.6721C48.6452 27.2365 48.9448 24.1471 48.9448 19.4039V17.715C48.9448 14.4356 48.3665 10.6707 47.2099 6.42013C46.8336 5.57565 46.5549 5.09008 46.3737 4.96341C46.0672 5.076 45.8721 5.25897 45.7885 5.51232C44.2416 8.81985 43.4682 13.7882 43.4682 20.4173Z" fill="white"/>
<path d="M54.1263 3.50669C56.3977 3.61928 58.1675 3.67558 59.4356 3.67558L59.8119 4.2456C59.8119 4.99156 59.4635 5.36453 58.7667 5.36453C57.3314 5.30823 55.9309 5.28008 54.5652 5.28008L54.9624 15.4138V15.4771L55.0042 16.026C55.5198 15.9557 56.1956 15.9205 57.0318 15.9205H59.2057C59.6237 15.9205 59.8885 16.2794 60 16.9972L59.2475 17.6094H56.6973C55.6522 17.6094 55.1296 17.5813 55.1296 17.525V18.4539C55.1296 19.2702 55.1853 22.6481 55.2968 28.5876V29.4954L55.3804 30.0021C55.3804 30.354 55.3665 30.5299 55.3386 30.5299L55.3804 30.931V31.8811C55.3804 32.1063 55.1714 32.3315 54.7533 32.5567H54.3562C54.0496 32.5567 53.7639 32.3385 53.4992 31.9022C53.2901 20.2906 53.1856 14.4849 53.1856 14.4849L52.8303 13.6404L52.9975 13.9782C52.7745 9.51654 52.663 6.1879 52.663 3.99226C53.109 3.66854 53.5967 3.50669 54.1263 3.50669Z" fill="white"/>
</svg>
