<?xml version="1.0" encoding="utf-8"?>
<!-- Generator: Adobe Illustrator 24.2.1, SVG Export Plug-In . SVG Version: 6.00 Build 0)  -->
<svg version="1.1" id="Layer_1" xmlns="http://www.w3.org/2000/svg" xmlns:xlink="http://www.w3.org/1999/xlink" x="0px" y="0px"
	 viewBox="0 0 2152.5 688.4" xml:space="preserve">
<style type="text/css">
	.st0{fill:#464646;}
	.st1{fill:#BFF1EC;}
	.st2{fill:#D4B899;}
	.st3{fill:#FFFFFF;}
	.st4{clip-path:url(#SVGID_2_);fill:#D35446;}
	.st5{clip-path:url(#SVGID_2_);fill:#FFFFFF;}
	.st6{clip-path:url(#SVGID_2_);}
	.st7{fill:#D35446;}
	.st8{opacity:0.97;}
	.st9{fill-rule:evenodd;clip-rule:evenodd;fill:#464646;}
	.st10{fill:#1695A3;}
</style>
<g>
	<ellipse class="st0" cx="172" cy="418" rx="131.5" ry="18.8"/>
	<g>
		<path class="st1" d="M303.5,412c0,100-37.8,264.7-131.5,264.7S40.5,512,40.5,412c0,10.4,58.9,18.8,131.5,18.8
			C244.6,430.8,303.5,422.3,303.5,412z"/>
		<path class="st0" d="M286.6,437.6c-2.5,41.1-10.9,93.2-28.7,138.3c-10.6,26.8-23.1,47.8-37.3,62.2c-14.9,15.1-30.8,22.5-48.7,22.5
			c-17.9,0-33.8-7.4-48.7-22.5C109.1,623.7,96.5,602.8,86,576c-17.8-45.1-26.2-97.2-28.7-138.3c5.6,1.3,12.1,2.4,19.4,3.5
			c25.6,3.7,59.4,5.7,95.2,5.7c35.9,0,69.7-2,95.3-5.7C274.5,440.1,281,438.9,286.6,437.6 M303.5,412c0,10.4-58.9,18.8-131.5,18.8
			c-72.6,0-131.5-8.4-131.5-18.8C40.5,512,78.3,676.6,172,676.6S303.5,512,303.5,412L303.5,412z"/>
	</g>
	<g>
		<rect x="157.4" y="174.1" class="st2" width="36.3" height="255.7"/>
		<path class="st0" d="M199.7,435.8h-48.3V168.1h48.3V435.8z M163.4,423.8h24.3V180.1h-24.3V423.8z"/>
	</g>
	<rect x="171.1" y="101.5" class="st0" width="8.8" height="63.1"/>
	<path class="st0" d="M45.1,419c-0.6,0-1.3-0.1-1.9-0.4c-2.6-1.1-3.8-4-2.7-6.5l129-313.5c1.1-2.6,4-3.8,6.5-2.7
		c2.6,1.1,3.8,4,2.7,6.5l-129,313.5C49,417.8,47.1,419,45.1,419z"/>
	
		<rect x="234.6" y="90.5" transform="matrix(0.9352 -0.3541 0.3541 0.9352 -76.2024 101.6258)" class="st0" width="10" height="337.1"/>
	<g>
		<path class="st3" d="M318.1,329.7c0,0-63.1,11.2-142.3,11.2S31,330.3,31,330.3V157.8c0,0,65.9,10.5,144.9,10.5
			s142.3-11.2,142.3-11.2V329.7z"/>
		<path class="st0" d="M175.9,358.3c-79.6,0-144.9-10.3-147.7-10.8l-14.7-2.4V137.3l20.3,3.2c0.6,0.1,65.6,10.3,142.1,10.3
			c76.4,0,138.6-10.8,139.2-10.9l20.5-3.6l0,208l-14.5,2.6C318.5,347.4,255.6,358.3,175.9,358.3z M48.5,315.1
			c23.5,3,72.4,8.3,127.4,8.3c54.7,0,102-5.5,124.8-8.7V177.5c-25.2,3.4-71.2,8.3-124.8,8.3c-54.1,0-101.6-4.8-127.4-8V315.1z"/>
	</g>
	<g>
		<polygon class="st2" points="195.2,122.6 155.9,122.6 142.8,78 208.3,78 		"/>
		<path class="st0" d="M199.7,128.6h-48.3L134.8,72h81.5L199.7,128.6z M160.4,116.6h30.3l9.6-32.5h-49.5L160.4,116.6z"/>
	</g>
	<path class="st0" d="M175.5,83c-2.8,0-5-2.2-5-5V21.2c0-2.8,2.2-5,5-5s5,2.2,5,5V78C180.5,80.8,178.3,83,175.5,83z"/>
	<g>
		<polygon class="st3" points="238,37.3 170,59.6 170,14.1 		"/>
		<path class="st0" d="M178,25.2l34.9,11.9L178,48.6V25.2 M170,14.1v45.6L238,37.3L170,14.1L170,14.1z"/>
	</g>
	<g>
		<defs>
			<path id="SVGID_1_" d="M312.2,312.7c0,0-59.2,10.5-133.4,10.5s-135.9-9.9-135.9-9.9V151.5c0,0,61.8,9.9,135.9,9.9
				s133.4-10.5,133.4-10.5V312.7z"/>
		</defs>
		<clipPath id="SVGID_2_">
			<use xlink:href="#SVGID_1_"  style="overflow:visible;"/>
		</clipPath>
		<path class="st4" d="M178.3,253.5v0.2c0,0.5,0.1,0.9,0.1,1.4c-0.3,7-2.4,15.2-5.7,23.8C158.1,316.6,121,363,121,363
			s-57.6-67.6-57.6-109.4c0-2.1,0.3-4.2,0.9-6.1c3.1-28.8,27.3-51.2,56.9-51.2C152.7,196.3,178.3,221.9,178.3,253.5z"/>
		<circle class="st5" cx="122.4" cy="256" r="22.6"/>
		
			<rect x="227.9" y="209.8" transform="matrix(0.6149 -0.7886 0.7886 0.6149 -101.0205 281.684)" class="st4" width="20" height="68.9"/>
		
			<rect x="203.7" y="234.6" transform="matrix(0.6688 -0.7434 0.7434 0.6688 -103.3812 257.1439)" class="st4" width="66.5" height="20"/>
		<g class="st6">
			<path class="st7" d="M123,362.5l-8.1-8.9c0.1-0.1,3.7-3.4,9.6-8.3l7.8,9.1C126.6,359.3,123,362.5,123,362.5z"/>
			<path class="st7" d="M137.7,349.8l-7.7-9.2c6-5,12-9.8,17.8-14.2l7.3,9.5C149.5,340.2,143.6,344.9,137.7,349.8z M160.8,331.6
				l-7.1-9.7c6.7-4.9,13.1-9.3,18.9-13l6.4,10.1C173.4,322.6,167.3,326.9,160.8,331.6z M185,315.4l-6.1-10.3
				c8.2-4.8,15.5-8.3,21.6-10.1l3.6,11.5C198.8,308,192.4,311.1,185,315.4z M210.4,305l-2.3-11.8c7.7-1.5,13.7-4,17.8-7.4l7.7,9.2
				C227.9,299.7,220.1,303.1,210.4,305z M239.6,288.6l-9.8-6.9c2.7-3.8,4-8.6,4-14.6c0-1,0-2-0.1-3.1l12-0.8
				c0.1,1.3,0.1,2.6,0.1,3.9C245.7,275.5,243.7,282.7,239.6,288.6z"/>
			<path class="st7" d="M232.8,257.4c-0.3-1.6-0.5-3.1-0.8-4.4c-0.7-3.9-1.3-7-1-9.6l11.9,1.4c-0.1,0.9,0.5,3.8,0.9,6
				c0.3,1.5,0.6,3,0.8,4.7L232.8,257.4z"/>
		</g>
	</g>
	<rect x="214" y="439" class="st0" width="15.9" height="158.1"/>
	<rect x="114.6" y="439" class="st0" width="15.9" height="158.1"/>
	<polygon class="st0" points="152.3,535.1 130.3,535.1 130.4,597.1 	"/>
	<polygon class="st0" points="214.3,535.1 172.3,535.1 152.3,597.1 214.3,597.1 	"/>
	<circle class="st3" cx="30.8" cy="245.2" r="9.7"/>
	<circle class="st3" cx="318.1" cy="238.2" r="3.8"/>
	<circle class="st3" cx="318.1" cy="250.2" r="3.8"/>
</g>
<g class="st8">
	<g>
		<path class="st0" d="M531.5,561.4c0,3.7-0.6,7.1-1.9,10.2c-1.2,3.1-3,5.8-5.3,8s-5,3.9-8.3,5.1c-3.2,1.2-6.8,1.8-10.7,1.8h-19
			v-89.7h20.9c3.2,0,6.2,0.5,8.9,1.5c2.7,1,5,2.5,6.9,4.4c1.9,1.9,3.4,4.2,4.5,6.9c1,2.7,1.6,5.6,1.6,8.9c0,5.2-1.3,9.6-3.9,13.1
			s-5.9,6.2-10,8c5,1.3,9,3.7,11.9,7.4C530,550.7,531.5,555.5,531.5,561.4z M503.8,535.3c2.3,0,4.4-0.4,6.4-1.1
			c2-0.7,3.7-1.7,5.2-3.1c1.4-1.3,2.6-2.9,3.4-4.8c0.8-1.9,1.2-4,1.2-6.4c0-4.4-1.3-7.8-3.8-10c-2.5-2.2-5.8-3.3-9.9-3.3h-11.1v28.7
			H503.8z M522.6,561c0-2.7-0.5-5-1.4-7s-2.2-3.7-3.9-5s-3.5-2.3-5.7-2.9c-2.2-0.6-4.5-0.9-6.9-0.9h-9.5v31.5H506
			c5.1,0,9.1-1.3,12.1-4C521.1,570.1,522.6,566.2,522.6,561z"/>
		<path class="st0" d="M543.8,496.8h37.5v10.1h-28.2v28.7h27v10.1h-27v30.7h28.5v10.1h-37.8V496.8z"/>
		<path class="st0" d="M626.6,495.2c3,0,6.2,0.4,9.5,1.1c3.3,0.8,6.1,1.8,8.3,3l-1.5,9.6c-2.3-1.1-4.7-2-7.4-2.6
			c-2.6-0.7-5.2-1-7.8-1c-8.4,0-15,3.1-19.7,9.4c-4.7,6.3-7.1,15.3-7.1,26.9c0,11.7,2.4,20.7,7.1,26.9c4.7,6.3,11.3,9.4,19.7,9.4
			c2.6,0,5.2-0.3,7.8-1s5.1-1.5,7.4-2.6l1.5,9.6c-2.2,1.3-5,2.3-8.3,3c-3.3,0.8-6.5,1.1-9.5,1.1c-5.5,0-10.5-1.2-14.8-3.5
			c-4.3-2.3-8-5.6-11-9.7c-3-4.1-5.2-9-6.8-14.7c-1.6-5.7-2.4-11.9-2.4-18.6s0.8-12.9,2.4-18.6c1.6-5.7,3.9-10.6,6.8-14.7
			c3-4.1,6.6-7.4,11-9.7C616.1,496.4,621.1,495.2,626.6,495.2z"/>
		<path class="st0" d="M684.6,588.2c-5.3,0-9.9-1.3-14-3.8c-4.1-2.5-7.5-5.9-10.3-10.1c-2.8-4.2-4.9-9.2-6.3-14.8
			c-1.4-5.7-2.2-11.6-2.2-17.8s0.7-12.1,2.2-17.8c1.4-5.7,3.6-10.6,6.3-14.8c2.8-4.2,6.2-7.6,10.3-10.1c4.1-2.5,8.8-3.8,14-3.8
			c5.3,0,9.9,1.3,14,3.8c4.1,2.5,7.5,5.9,10.3,10.1c2.8,4.2,4.9,9.2,6.3,14.8c1.4,5.7,2.2,11.6,2.2,17.8s-0.7,12.1-2.2,17.8
			c-1.5,5.7-3.6,10.6-6.3,14.8c-2.8,4.2-6.2,7.6-10.3,10.1C694.5,586.9,689.8,588.2,684.6,588.2z M684.6,578.2
			c3.8,0,7.2-0.9,10.2-2.8c3-1.9,5.4-4.5,7.4-7.8c2-3.3,3.4-7.2,4.4-11.7c1-4.4,1.5-9.2,1.5-14.2c0-5-0.5-9.8-1.5-14.2
			s-2.5-8.3-4.4-11.6c-2-3.3-4.4-5.9-7.4-7.8c-3-1.9-6.4-2.9-10.2-2.9c-3.8,0-7.2,1-10.2,2.9c-3,1.9-5.4,4.5-7.4,7.8
			c-2,3.3-3.4,7.1-4.4,11.6c-1,4.4-1.5,9.2-1.5,14.2c0,5,0.5,9.8,1.5,14.2c1,4.4,2.5,8.3,4.4,11.7c2,3.3,4.4,5.9,7.4,7.8
			C677.3,577.2,680.7,578.2,684.6,578.2z"/>
		<path class="st0" d="M787.7,496.8h8.4l4.9,89.7h-8.9l-3.2-69.9l-19.4,53.8H760l-19.4-53.8l-3.2,69.9h-8.9l4.9-89.7h8.4l23,63.5
			L787.7,496.8z"/>
		<path class="st0" d="M815.5,496.8H853v10.1h-28.2v28.7h27v10.1h-27v30.7h28.5v10.1h-37.8V496.8z"/>
		<path class="st0" d="M946.2,586.5h-9.5l-6.2-21.7h-31.4l-6.1,21.7h-9.5l26.8-89.7h9.1L946.2,586.5z M901.9,554.9h25.9l-12.9-46.8
			L901.9,554.9z"/>
		<path class="st0" d="M1003.7,586.5L966,516.1v70.5h-8.9v-89.7h8.9l37.7,70.5v-70.5h8.9v89.7H1003.7z"/>
		<path class="st0" d="M1060.3,586.5h-9.3v-89.7h9.3V586.5z"/>
		<path class="st0" d="M1123.5,586.5l-37.7-70.5v70.5h-8.9v-89.7h8.9l37.7,70.5v-70.5h8.9v89.7H1123.5z"/>
		<path class="st0" d="M1148.6,496.8h18.7c5.8,0,11,1.1,15.8,3.4c4.7,2.2,8.8,5.4,12.1,9.4c3.4,4,6,8.7,7.8,14.2
			c1.8,5.5,2.7,11.5,2.7,17.9s-0.9,12.4-2.7,17.9c-1.8,5.5-4.4,10.2-7.8,14.2c-3.4,4-7.4,7.1-12.1,9.4c-4.7,2.2-10,3.4-15.8,3.4
			h-18.7V496.8z M1167.3,576.6c4,0,7.8-0.8,11.4-2.4c3.5-1.6,6.6-3.8,9.2-6.8s4.7-6.6,6.2-10.9s2.3-9.2,2.3-14.8
			c0-5.5-0.8-10.4-2.3-14.8c-1.5-4.4-3.6-8-6.2-11c-2.6-3-5.7-5.2-9.2-6.8c-3.5-1.6-7.3-2.4-11.4-2.4h-9.4v69.8H1167.3z"/>
		<path class="st0" d="M1217.6,496.8h37.5v10.1h-28.2v28.7h27v10.1h-27v30.7h28.5v10.1h-37.8V496.8z"/>
		<path class="st0" d="M1311.2,523.1c0,4.3-0.7,8.2-2.1,11.7c-1.4,3.5-3.4,6.4-5.9,8.8s-5.5,4.3-8.9,5.6c-3.4,1.3-7.1,2-11.1,2h-4.6
			v35.4h-9.3v-89.7h16.3c3.6,0,7,0.5,10.2,1.6c3.1,1.1,5.9,2.7,8.2,4.9c2.3,2.2,4.1,4.9,5.5,8.2
			C1310.5,514.8,1311.2,518.7,1311.2,523.1z M1301.9,523c0-3-0.4-5.5-1.3-7.5c-0.9-2-2.1-3.7-3.6-5c-1.5-1.3-3.3-2.2-5.4-2.8
			c-2.1-0.6-4.2-0.9-6.5-0.9h-6.7v34.4h5c2.7,0,5.2-0.4,7.4-1.2c2.3-0.8,4.2-2,5.9-3.6c1.6-1.6,2.9-3.5,3.8-5.7
			C1301.4,528.4,1301.9,525.8,1301.9,523z"/>
		<path class="st0" d="M1320.4,496.8h37.5v10.1h-28.2v28.7h27v10.1h-27v30.7h28.5v10.1h-37.8V496.8z"/>
		<path class="st0" d="M1418.6,586.5l-37.7-70.5v70.5h-8.9v-89.7h8.9l37.7,70.5v-70.5h8.9v89.7H1418.6z"/>
		<path class="st0" d="M1443.6,496.8h18.7c5.8,0,11,1.1,15.8,3.4c4.7,2.2,8.8,5.4,12.1,9.4c3.4,4,6,8.7,7.8,14.2
			c1.8,5.5,2.7,11.5,2.7,17.9s-0.9,12.4-2.7,17.9c-1.8,5.5-4.4,10.2-7.8,14.2c-3.4,4-7.4,7.1-12.1,9.4c-4.7,2.2-10,3.4-15.8,3.4
			h-18.7V496.8z M1462.3,576.6c4,0,7.8-0.8,11.4-2.4c3.5-1.6,6.6-3.8,9.2-6.8s4.7-6.6,6.2-10.9s2.3-9.2,2.3-14.8
			c0-5.5-0.8-10.4-2.3-14.8c-1.5-4.4-3.6-8-6.2-11c-2.6-3-5.7-5.2-9.2-6.8c-3.5-1.6-7.3-2.4-11.4-2.4h-9.4v69.8H1462.3z"/>
		<path class="st0" d="M1512.6,496.8h37.5v10.1h-28.2v28.7h27v10.1h-27v30.7h28.5v10.1h-37.8V496.8z"/>
		<path class="st0" d="M1610.7,586.5l-37.7-70.5v70.5h-8.9v-89.7h8.9l37.7,70.5v-70.5h8.9v89.7H1610.7z"/>
		<path class="st0" d="M1678.9,496.8v10.1H1659v79.6h-9.3v-79.6h-19.8v-10.1H1678.9z"/>
		<path class="st0" d="M1720.2,496.8v79.6h28.1v10.1h-37.4v-89.7H1720.2z"/>
		<path class="st0" d="M1758.6,496.8h37.5v10.1h-28.2v28.7h27v10.1h-27v30.7h28.5v10.1h-37.8V496.8z"/>
		<path class="st0" d="M1867.5,586.5h-9.5l-6.2-21.7h-31.4l-6.1,21.7h-9.5l26.8-89.7h9.1L1867.5,586.5z M1823.2,554.9h25.9
			l-12.9-46.8L1823.2,554.9z"/>
		<path class="st0" d="M1887.7,586.5h-9.3v-89.7h17.5c3.6,0,7,0.5,10.2,1.6c3.1,1.1,5.9,2.7,8.2,4.8c2.4,2.1,4.2,4.8,5.6,7.9
			c1.3,3.2,2,6.8,2,11c0,6.2-1.5,11.6-4.5,16.2c-3,4.6-7.2,7.9-12.6,10l23.7,38.3h-11.4l-21.9-36.1c-0.3,0-0.8,0-1.5,0.1
			c-0.7,0-1.4,0.1-2.1,0.1c-0.7,0-1.5,0-2.2,0s-1.3,0-1.7,0V586.5z M1912.6,522.4c0-2.8-0.5-5.2-1.4-7.2c-0.9-2-2.1-3.6-3.7-4.9
			c-1.6-1.2-3.3-2.1-5.4-2.7c-2-0.6-4.1-0.9-6.4-0.9h-8.1v33.8h4.6c2.8,0,5.5-0.4,7.9-1.1c2.5-0.7,4.6-1.8,6.4-3.3
			c1.8-1.5,3.2-3.4,4.3-5.7C1912,528.3,1912.6,525.6,1912.6,522.4z"/>
		<path class="st0" d="M1984,586.5l-37.7-70.5v70.5h-8.9v-89.7h8.9l37.7,70.5v-70.5h8.9v89.7H1984z"/>
		<path class="st0" d="M2009.1,496.8h37.5v10.1h-28.2v28.7h27v10.1h-27v30.7h28.5v10.1h-37.8V496.8z"/>
		<path class="st0" d="M2069.9,586.5h-9.3v-89.7h17.5c3.6,0,7,0.5,10.2,1.6c3.1,1.1,5.9,2.7,8.2,4.8c2.4,2.1,4.2,4.8,5.6,7.9
			c1.3,3.2,2,6.8,2,11c0,6.2-1.5,11.6-4.5,16.2c-3,4.6-7.2,7.9-12.6,10l23.7,38.3h-11.4l-21.9-36.1c-0.3,0-0.8,0-1.5,0.1
			c-0.7,0-1.4,0.1-2.1,0.1c-0.7,0-1.5,0-2.2,0s-1.3,0-1.7,0V586.5z M2094.7,522.4c0-2.8-0.5-5.2-1.4-7.2c-0.9-2-2.1-3.6-3.7-4.9
			c-1.6-1.2-3.3-2.1-5.4-2.7c-2-0.6-4.1-0.9-6.4-0.9h-8.1v33.8h4.6c2.8,0,5.5-0.4,7.9-1.1c2.5-0.7,4.6-1.8,6.4-3.3
			c1.8-1.5,3.2-3.4,4.3-5.7C2094.2,528.3,2094.7,525.6,2094.7,522.4z"/>
	</g>
	<g id="Shape_1">
		<g>
			<rect x="479.1" y="428.1" class="st9" width="1660.5" height="10.2"/>
		</g>
	</g>
	<g>
		<path class="st10" d="M511.5,104.4h1.2c5.9,3.6,10.7,12.3,14.2,25.8c9.2,38.2,16.1,86.9,20.4,146.1c2.9,19.2,4.3,36.3,4.3,51.3
			c-1,3.3-3.8,5-8.5,5c-2-5.1-4.3-23.6-6.9-55.5c-0.7-3.4-2.3-17.3-4.7-41.6l-1.1-0.2c-15.7,2-23.5,3.3-23.5,4v25.8l-3.3,60.6
			c0.7,1.4,1.1,3.1,1.1,5c0,1.9-1.4,4-4.3,6.3c-5.6,0-8.4-3.6-8.4-10.8c2.6-46.6,3.8-74.5,3.8-83.8c-0.3-6.1-0.5-12.3-0.5-18.5
			c0.2-31.9,2.1-65.7,5.9-101.4C503.1,110.4,506.6,104.4,511.5,104.4z M513.7,121.4c-4.2,21.6-6.3,53.1-6.3,94.2
			c-0.3,0-0.5,4.3-0.5,12.8v-2.5c8-3,16-4.5,23.9-4.5v2.5c0-13.2-5.4-44.9-16.3-94.9C512.4,123.1,512.2,120.5,513.7,121.4z"/>
		<path class="st10" d="M611.9,113.1h1.1c7.4,0,13.4,3.9,18,11.6v2.3c0,1.8-1.4,3.8-4.1,6c-2.1,0-5.1-1.7-9.2-5.1
			c-1.5-1-3.2-1.5-5.2-1.5h-1.5c-8.2,2.6-12.3,39.3-12.3,110c0,33.8,2.9,59.5,8.8,77c1.6,4.5,4.6,8,9.2,10.4h0.9
			c4.1-1.1,6.2-4.4,6.2-9.9c1.3,0,3-12.2,5-36.6v-32.1V245c3.5,0,5.2,0.3,5.2,1c-17.3-1.8-26-4.2-26-7.5l-0.5-3.3v-0.8
			c0-1.9,1.2-3.6,3.7-5.3h3.6c1.2,1.2,8.4,2.6,21.7,4.1c2.3,3.1,3.5,8.3,3.5,15.7v16.6c0,2.6-0.2,6-0.5,10.1
			c0.3,0.8,0.5,1.7,0.5,2.6c-2.4,37-6.2,55.5-11.4,55.5c0,0.4-3.4,1.5-10.2,3.3h-2.7c-6.4-2-12-6.8-16.7-14.4
			c-7.5-19-11.3-48-11.3-86.9c0-74.1,6.1-114.7,18.4-121.7L611.9,113.1z"/>
		<path class="st10" d="M697.5,101.9l1.1,0.8c-2.3,0-3.5-0.3-3.5-1c14.7,1.8,22,4.5,22,8.3v1.2c-1.1,4.1-3,6.1-5.8,6.1l-14.4-2
			c-0.7,0-2.8,0.2-6.3,0.5l0.2,4.6c0,7.3,0.8,35.4,2.4,84.3h0.5c2.4,0,4.5-0.2,6.2-0.7c7.8,0.9,13.9,1.3,18.3,1.3l2.8,5.1v2.8
			c0,3.5-1.7,5.3-5.1,5.3c-3,0-7.8-0.4-14.4-1.3c-4.4,0.4-7.1,0.7-8.3,0.7v-0.7c0,31.1,1.1,66,3.3,104.7c0.4,0,0.6,0.2,0.6,0.5
			c10.3-0.8,16.9-1.2,19.8-1.2c2.6,1.1,4.4,3.1,5.4,6v1.3c0,1.8-1.3,3.8-4,6c-13.1,0.4-21,0.9-23.6,1.3c-6.2,0-9.3-3.9-9.3-11.8
			c-2.3-42.2-3.5-77.3-3.5-105.5v-21.2c-1.7-38.9-2.5-65-2.5-78.5c-1-6.6-1.5-10.8-1.5-12.4l3.8-3.8h6.7
			C690.6,102.7,693.5,102.4,697.5,101.9z"/>
		<path class="st10" d="M832.8,103.2c11.2,0,19.7,30.8,25.4,92.4c0.3,5.9,0.5,13.2,0.5,22.2v2.6c0,1.8-0.1,3.5-0.4,5.3
			c0.2,0.4,0.4,2.2,0.4,5.3v0.7c0,3.1-0.1,4.9-0.4,5.3c0.2,1.8,0.4,2.9,0.4,3.3c0,47.5-5.2,77.1-15.6,88.8c-4.2,2.2-7.1,3.3-8.8,3.3
			h-4c-13.5-4.3-21.8-25.9-24.9-64.8l-1.5-27.2c0-62.7,6-106.5,18-131.3C825.9,105.2,829.5,103.2,832.8,103.2z M815.1,238.4
			c0,24.6,2.4,46.2,7.3,64.6c4,10.8,7.2,16.2,9.4,16.2h0.5c5,0,8.3-5.4,9.9-16.1c3.5-11.3,5.3-35.5,5.3-72.7v-13.2
			c0-25.7-3.4-55.3-10.3-88.6c-2.2-6.6-3.9-10.4-5-11.4c-1.8,0.9-3,2.3-3.5,4.3C819.7,147.4,815.1,186.3,815.1,238.4z"/>
		<path class="st10" d="M894.7,105.7c13.5,0.9,23.9,1.3,31.4,1.3l2.2,4.5c0,5.9-2.1,8.8-6.2,8.8c-8.5-0.4-16.8-0.7-24.9-0.7
			l2.4,79.5v0.5l0.2,4.3c3.1-0.6,7.1-0.8,12-0.8h12.9c2.5,0,4,2.8,4.7,8.4l-4.5,4.8H910c-6.2,0-9.3-0.2-9.3-0.7v7.3
			c0,6.4,0.3,32.9,1,79.5v7.1l0.5,4c0,2.8-0.1,4.1-0.2,4.1l0.2,3.1v7.5c0,1.8-1.2,3.5-3.7,5.3h-2.4c-1.8,0-3.5-1.7-5.1-5.1
			l-1.9-136.6l-2.1-6.6l1,2.6c-1.3-35-2-61.1-2-78.3C888.7,107,891.6,105.7,894.7,105.7z"/>
	</g>
	<g>
		<path class="st0" d="M1155.6,85.1l8.8,1.2c5.6,0.9,12.2,2.3,19.9,4.1l23.7,6c8.5,2.1,14.1,3.2,16.7,3.2c2.7,0,4.3,0.6,4.9,1.8
			c0.5,1.2,1.5,1.5,2.9,0.8c1.4-0.7,3.3-0.3,5.5,1.4l3.3,2.4l-3.4,3.7c-2.3,2.5-4.1,3.8-5.5,3.8c-2.7,0-2.9,5.3-0.7,15.9
			c0.7,3.3,0.6,8.2-0.1,14.8c-1.2,11.3-2.4,33.8-3.4,67.5c-0.6,16.6-1.1,28.9-1.5,37.1c-0.4,7.4-0.2,15.4,0.7,23.8
			c3,29.1,3.6,46,1.7,50.7c-1.1,2.7-4.4,4.2-10.2,4.3c-21,0.5-31.9,2.5-32.7,6c-0.4,1.5-1.4,2.3-3.2,2.3c-2.1,0-4-6-5.7-17.9
			c-1.4-9.3-1.2-31.7,0.5-67.5l-0.6-18.9l-0.6,0.6c-1.4,1.6-2.5,6.4-3.2,14.3c-0.7,7.9-1.4,12.2-2.3,12.8c-0.8,0.7-1.6,4.4-2.3,11.3
			c-0.7,6.9-2.3,12.7-4.6,17.6c-2.4,4.9-4,12.1-4.7,21.6c-0.7,9.5-0.1,15,1.8,16.4l1.7,10.7l-1.1,0.5c-1.2-0.3-2.9,0.4-5.2,2
			c-2.2,1.6-4.5,1.4-6.8-0.6c-2.4-2-8.3-2.8-17.7-2.3c-11.6,0.8-17.4-2-17.5-8.5c1.1-3,1-6.6-0.6-11c-1.6-4.5-2.4-7.4-2.4-8.9
			c0-1.4-0.5-3.3-1.4-5.6c-2.8-6.8-6.8-21.2-12-43c-2.2-9.4-4.4-13.7-6.5-13.1c-1.4,3.1-2.2,21.5-2.4,55.2v30.2l-4.4,3.1
			c-2.9,2-4.7,2.9-5.5,2.7c-0.8-0.2-1.5-0.1-2.3,0.3c-2.1,0.8-7.4,2.4-16,4.7c-1.5,0.4-6.5-0.2-14.8-1.8
			c-16.3-3.4-24.4-6.7-24.4-10.1c0-2.5,1.1-4,3.2-4.4c1.6-0.3,2.8-1.9,3.7-4.8c0.8-2.9,0.8-5.4-0.1-7.4c-0.2-0.5-0.4-4.3-0.5-11.4
			c-0.1-7.1-0.1-14.1-0.1-21c0.1-6.9,0.2-10.4,0.5-10.4c0.1,0,0.3-4,0.7-11.9c0.5-10.5,1.6-22.4,3.5-35.7c1.1-7.9,1.7-16.2,1.6-24.7
			c-0.5-51.7,0.2-77.5,1.9-77.5c-4.6-5.7-6.3-10.8-5.1-15.3c0.4-1.7,1.7-2.6,3.9-2.6l0.9-1.8c-1.4-1.2-1.3-2.3,0.5-3.1
			c1.7-0.9,3.3-0.6,4.7,0.8c1.4,1.5,3.3,1.9,5.9,1.1c2.5-0.9,5-0.3,7.5,1.8c3.6,3.3,10,4,19.3,2.3c6.1-1.1,9.8-1.7,11.1-1.8
			c1.5-0.1,2.3-0.7,2.3-1.8c0-1,1-2.2,2.9-3.7c1.8-1.4,3.3-1.1,4.6,1.1c1.2,2.2,2.4,3.4,3.5,3.4c1.1,0,1.7,0.7,1.7,2
			c0,1.3,1.3,2.6,4,4l3.1,3.1c-0.6,0.8-0.2,2.3,1.3,4.4c1.4,2.2,2.2,4,2.3,5.3c0.1,1.3,1.6,4.6,4.4,9.8c2.8,5.2,4.2,8.9,4.2,11.1
			c0,7.4,2.3,16.7,6.8,27.9c1.4,3.5,2.1,6.4,2.1,8.7c0,0.9,0.2,1.6,0.5,2.1c0.3,0.5,0.8,0.6,1.3,0.4c1.8-0.8,3.5-6.6,5-17.2
			c0.7-4.8,2.4-10.9,5.2-18.3c0.8-2.2,1.5-6.2,2.2-11.9c1.6-13.8,4.4-21.9,8.3-24.1c1.3-0.7,1.1-1.8-0.6-3.2c-4.7-4-3.7-7,3.1-9
			c2.7-0.8,3.9-3,3.4-6.4L1155.6,85.1z"/>
		<path class="st0" d="M1312.4,93.7c1.7-0.1,2.4,1.2,1.8,3.8c-0.4,1.9,1.3,3,5.1,3.2c2.1,0.2,6.1,0.3,12.2,0.2
			c20.8,0,32.6,1.6,35.6,4.9c1.4,1.6,3.2,5.4,5.2,11.4c2.1,6,2.8,9.5,2.3,10.6c-0.6,1.3-0.5,2,0.5,2c1.4,0,2.7,4.1,4.1,12.4
			c0.5,2.4,2.1,7.9,5,16.3c2.9,8.6,4.1,13,3.8,13c-0.4,0,0.9,5.4,3.8,16.3c2.9,11,4.3,17.6,4.3,19.7c0.1,2.2,0.8,6.2,2.2,11.9
			c1.4,5.5,2.3,10,2.6,13.6c0.3,3.3,0.8,5.6,1.6,7.2c0.8,1.6,1.2,5.1,1.4,10.5c0.2,5.4,0.6,8.1,1.5,8.1c0.8,0,1.1,0.8,1.1,2.3
			c0,1.1,1.3,5.8,3.9,14c2.6,8.2,4.3,12.7,5,13.5c4,4.9,5.9,11.9,5.9,21.1c0,8.4,1.8,12.7,5.4,12.7c1.4,0,2.1,1,2.1,3s0.5,3,1.5,3
			c2.4,0,1.9,2.2-1.6,6.6c-2.1,0.7-2.8,1.7-2.2,3.1c0.8,1.7-1.1,2.1-5.7,1.2c-2.4-2.1-7.7-1.9-16,0.6c-8.1,2.5-14.5,4.3-19.3,5.2
			c-4.6,0.9-7.5,2.3-8.7,4.3c-4,6.4-9.2,5-15.6-4.1c-8.8-12.5-12.1-18.8-9.9-18.8c0.9,0,1.4-0.9,1.4-2.7c0-1.9-0.6-2.6-1.7-2
			s-2.4-2.6-3.9-9.6l-2.1-10.5l-9.9-0.2c-6.5-0.2-12.2,0.3-17,1.6c-4.8,1.3-8.4,5.3-10.7,12.1c-5.3,15.4-6.2,23.4-2.7,24.1
			c1.4-0.8,2.5-0.1,3.2,2.1c0.5,1.7,0,2.6-1.5,2.7c-1,0.1-3-0.1-6.2-0.6c-5.8-0.8-11.6-1.9-17.5-3.2c-19.1-4.4-31.7-6.5-37.9-6.4
			c-1.5,0.1-4.4-0.9-8.6-2.9c-4.2-2-6.3-3.5-6.4-4.3c-0.2-0.9-0.3-3-0.6-6.3c-0.2-3.3-0.9-5.1-1.9-5.5c-1.7-0.8-1.1-2.9,1.8-6.4
			c1.3,0,3.5,1,6.5,3.1c4.8,3.2,6.4,2.1,4.8-3.1c-2.9-2.8-1.6-17.1,3.8-42.7c1.7-7.9,2.5-13,2.6-15.3c0.1-2.3,0.5-3.5,1.1-3.5
			s1.4-2.5,2.1-7.4c0.7-4.9,1.9-10.1,3.7-15.5c1.7-5.2,3.8-12.3,6-21.2c2.3-9,3.8-13.4,4.7-13.4c0.8,0,1.1-1.6,1.1-4.9
			c0-3.3,0.5-5.2,1.4-6c0.8-0.7,1.6-2.9,2.3-6.6c0.7-3.5,2.2-8.7,4.7-15.9c2.4-7,3.5-10.8,3.5-11.4c0-4.9,4.8-17.6,14.5-38.2
			c4.7-9.9,8.1-12.7,10-8.4c0.7,1.4,0.5,3.1-0.7,4.9c-0.9,1.5-1,2.7-0.4,3.6c0.6,0.9,1.6,0.8,2.9-0.2c1.1-0.9,2.2-3.2,3.3-6.9
			C1308.1,95.7,1309.9,93.8,1312.4,93.7z M1254.9,303.5c0,3.2-0.1,4.1-0.3,2.9C1254.6,303.7,1254.7,302.7,1254.9,303.5z M1262,224.5
			c0-1.3,0.5-2,1.5-2c1,0,1.5,0.7,1.5,2c0,1.3-0.5,2-1.5,2C1262.5,226.5,1262,225.8,1262,224.5z M1293.1,317.7
			c-0.2,1.3-1,2.1-2.6,2.3c-1.6,0.1-3,0.3-4.1,0.6c-11.9,2-15.3,2.5-10.2,1.5C1287.4,319.8,1293,318.3,1293.1,317.7z M1298.3,292.8
			c1.1,1.7,1,5.5-0.3,11.3c-0.1,0.2-0.2,0.6-0.3,1.1c-0.2,0.7-0.2,1-0.2,0.9C1300.8,297.4,1301.2,293,1298.3,292.8z M1305,130.8
			l-1,0.2c-0.5,0-0.8,0-0.9,0c-0.8,0.1-1.3,0.4-1.7,0.8c-0.3,0.4-0.4,0.9-0.2,1.4c1,2.2,0.2,6-2.3,11.1
			C1302.9,136.1,1304.9,131.6,1305,130.8z M1326.2,194.4c-1.7-0.2-4,5.7-7,17.9c-4.3,18.4-4.1,28.5,0.6,30.2
			c8.1,3.1,13.5,2.8,16-0.6c1.1-1.5,1-3.3-0.3-5.3c-1.1-1.7-2.8-7.5-5-17.3c-2.2-9.8-3.3-16.5-3.3-20.1
			C1327.2,196.1,1326.9,194.5,1326.2,194.4z M1339.2,107.6c0.5,0,1,0.2,1.6,0.5l-0.9,1.2l-1.9-1.1
			C1338.3,107.8,1338.7,107.6,1339.2,107.6z M1346.3,123.9c1.1,0.1,1.7,0.6,1.7,1.5l-0.6-0.3c-1.2-0.8-3.5-0.8-6.8,0.2l3.3-0.9
			C1344.9,124.1,1345.7,123.9,1346.3,123.9z M1344,228.1c-0.4-1.4,0,0,1.3,4.3C1345.3,232.5,1344.9,231.1,1344,228.1z M1346.1,234.4
			c1.3,0.6,2,1.5,2.2,2.7c-0.2,1.3-0.7,1-1.7-0.9C1345.6,234.6,1345.5,234,1346.1,234.4z M1350.4,132.1c0.9,2.8,1.7,5.3,2.3,7.3
			l0.7,2.3c0.3-2.1-0.5-4.9-2.3-8.2C1350.6,132.7,1350.4,132.2,1350.4,132.1z M1354.4,145.1c0.6,0.2,0.9,0.7,0.8,1.5
			c-0.1,0.8,0,1.5,0.1,2L1354.4,145.1z M1361.2,147.1c1.1,0,1.6,0.7,1.6,2c0,1.3-0.2,2-0.7,2c-0.5,0-1-0.7-1.6-2
			C1359.9,147.8,1360.2,147.1,1361.2,147.1z M1362.3,308.9c0.6,8.3,1.1,11.7,1.6,10.1C1363.5,313.4,1363,310,1362.3,308.9z
			 M1363.8,153.8c1.4,0.9,2.1,2,2.1,3.2c0,1.3-0.5,2-1.5,2c-1,0-1.5-1-1.5-3.1C1362.8,154,1363.1,153.3,1363.8,153.8z M1364.8,323.7
			c-0.6-2.4-0.3-0.9,0.9,4.6C1365.8,328.6,1365.5,327,1364.8,323.7z M1367.7,333c-4.9-5.6,0.4-5.2,15.9,1.2
			C1390.4,341.9,1385.1,341.5,1367.7,333z M1376.9,178.7c-0.3,0-0.5,0.4-0.7,1.1c-0.8,2.6-0.8,4.3-0.1,5c2.7,2.7,5,11.7,7,26.7
			l3.7,10.5c0.7-0.6,0.8-2.9,0.3-7c-0.6-5-2.4-12.8-5.4-23.4C1379.2,183.1,1377.6,178.8,1376.9,178.7z M1379.4,227.7
			c1.7,2.2,2.1,3.2,0.9,2.7C1379.3,229,1379,228.1,1379.4,227.7z M1382.4,236.7c3.3,10.8,5,16.3,4.9,16.6
			C1389.2,248.3,1387.5,242.8,1382.4,236.7z M1389.5,235.4c0-2,0.2-3,0.6-3c0.4,0,0.9,1,1.4,3c0.6,2,0.4,3-0.6,3
			C1390,238.4,1389.5,237.4,1389.5,235.4z M1407.3,327.6c0.6,1.9,0.7,2.7,0.2,2.3C1407.3,329.1,1407.2,328.4,1407.3,327.6z"/>
		<path class="st0" d="M1608,96.6c3.7,0,6.1,0.6,7.2,1.7c1.4,1.7,2.9,1.8,4.3,0.2c1.4-1.6,3.3-2.2,5.6-1.7c3.2,0.6,3.8,4,1.9,10.1
			c-0.5,1.4-0.5,2.4,0,2.8c0.5,0.5,1.7,0.7,3.7,0.7c2.1,0,3.4,0.2,3.7,0.5c0.3,0.4,0.1,1.2-0.9,2.5c-1.3,2.1-3.8,2.9-7.5,2.2
			c-3.7-0.7-6.1-0.1-7.2,1.7c-1.1,1.8-2.2,2.4-3.4,1.9c-1.6-0.7-5.6,6.2-12.1,20.6c-1.1,2.1-1.9,3.5-2.5,4.2
			c-0.6,0.7-1.3,2.8-1.9,6.5c-0.7,3.6-2.6,7.1-5.7,10.5c-19.5,21.7-29.2,34.4-29.2,38.3c0,1.3,2.2,4,6.6,8.1
			c4.3,4,8.1,9.8,11.4,17.4c3.2,7.6,6.8,15.1,10.6,22.4c3.7,7.2,5.6,11.7,5.6,13.3c0,1.7,0.4,2.6,1.1,2.6c0.8,0,1.6,1.3,2.6,3.8
			c1.1,2.8,3.5,8.5,7,16.9c3.7,8.6,5.6,13.9,5.6,15.6c0,1.8,0.8,3.1,2.5,4c1.6,0.8,1.9,1.9,0.8,3.4c-1.9,2.6-1.1,6.6,2.5,11.8
			c5,7.2,7.5,12.3,7.5,15.1c0,1.5,0.8,3.4,2.4,5.5c1.6,2.1,1.8,4.2,0.6,6.1c-3.4,5.5-5.7,5.1-7-1.2c-0.5-2.7-1.9-3.8-4-3.1l-9.8,3.2
			c-11.6,4-24,4.4-37.1,1.4c-5.4-1.3-11-1.9-16.8-1.7c-4,0.1-6.4-0.1-7.2-0.5c-0.8-0.4-1.1-1.7-1-3.8c0.3-3-1.6-8.6-5.8-16.9
			c-4.2-8.4-6.3-13.6-6.3-15.4c0-1.7-0.4-2.6-1.3-2.6c-1.8,0-4.2-5-7.1-15c-2.9-10-3.9-16.6-3-19.6c0.5-1.7,0.1-4.3-1-7.8
			c-1.1-3.5-2.2-5.2-3.3-5.3c-1.1-0.1-4,2.8-8.8,8.5l-7.2,8.5l-0.6,18.8c-0.4,13.6-0.6,21.2-0.7,22.7c0,2.5,0.6,6.4,1.8,11.4
			c1.2,5,1.6,7.8,1.1,8.4c-0.5,0.6-2.3,0.2-5.3-1.4c-3-1.5-9-0.9-17.8,2c-22.7,7.5-37.5,5.4-44.2-6.4c-2.5-4.4-3.8-7.3-3.8-8.9
			c0-1.4-0.5-2.1-1.5-2.1c-1,0-1.5-1.3-1.5-4c0-2.6,0.7-4,2.2-4s2.2-0.7,2.2-2c0-1.3-0.8-2-2.3-2c-1.2-0.7-1.7-1.3-1.5-1.8
			c1.7-3.7,2.6-20.4,2.9-50.2c0.2-11.4,0.6-17.6,1.3-18.6c0.7-0.9,0.7-2,0.1-3.4c-0.8-1.9-1.2-8.3-1.2-19.1
			c0-10.8,0.5-16.2,1.4-16.2c1.1,0,1.1-0.5,0-1.5c-1.1-0.9-1.7-2.7-1.8-5.3c-1.1-23.1-0.8-34.6,0.7-34.6c1.4,0,1.8-0.7,1.2-2.1
			c-0.6-1.4-1.4-1.7-2.2-1c-0.8,0.7-1.5-0.1-1.9-2.4c-0.7-3.2-1-11.3-0.8-24.5c0.2-13.2,0.6-20.1,1.3-20.7
			c4.6-3.8,17.4-5.4,38.6-4.9c9.4,0.3,15.9,0.4,19.3,0.3c3.4-0.1,5.8,0.6,7.1,2c1.3,1.4,4.8,1.7,10.4,0.9c5.7-0.8,9.3-0.6,10.7,0.6
			l0.5,2c-1.2,0-1.6,1-1,2.9c0.5,1.9-1.1,3.3-4.8,4.1c-5.6,1.3-8.8,2.5-9.6,3.7c-0.8,1.1-1.1,5-0.9,11.8c0.2,8.1-0.2,14.1-0.9,17.9
			c-0.7,3.7-0.3,5.5,1.3,5.5c1.4,0,2.2-1,2.2-3c0-2,0.5-3,1.5-3c1,0,1.5-0.8,1.5-2.3c0-1.3,5-8.7,14.9-22.1
			c9.9-13.4,14.3-20.6,13.1-21.6c-1.9-1.6-1.2-2.7,2.1-3.2c2.4-0.4,5.1-0.3,8.3,0.3c9.5,2,26.5,2,51-0.2
			C1602.6,96.7,1605.8,96.6,1608,96.6z M1448.3,241c-0.7,7.9-1,17-1.1,27.2c0,10.2,0.3,16.1,1,17.5
			C1448,270.5,1448,255.6,1448.3,241z M1448.3,289.8c0,0.5,0,1.2,0.1,2.1c0,0.9,0.1,1.5,0.1,1.8
			C1447.3,291.9,1447.3,290.6,1448.3,289.8z M1449.1,218.2c-0.3,0.8-0.6,1.5-1,2.1c-0.6,0.8-0.6,3,0.1,6.6c0.2,0.8,0.3,1.9,0.3,3.2
			C1448.7,227.6,1448.9,223.6,1449.1,218.2z M1449.1,316.7v2.4C1448.2,318.7,1448.2,317.9,1449.1,316.7z M1456.5,121.9l-5.5,0.5
			l0.1,1.5l-0.1-1.7c0.1,0,0.9-0.1,2.5-0.2C1455.1,122,1456.1,121.9,1456.5,121.9z M1464.6,328.6c0-1.3,0.5-2,1.5-2
			c1,0,1.5,0.7,1.5,2c0,1.3-0.5,2-1.5,2C1465.1,330.5,1464.6,329.9,1464.6,328.6z M1470.9,323.2c0.8-0.1,1.1,1,1.1,3.2l-1.9,1.2
			C1469.5,325.6,1469.8,324.1,1470.9,323.2z M1488.7,314.4c-0.2,1.9-0.4,3.1-0.6,3.4c-0.3,0.3-2.3,0.6-5.9,0.9
			C1486.1,317.8,1488.2,316.4,1488.7,314.4z M1487.3,272.7c-0.1,2.2-0.4,4.5-0.9,6.9C1487.6,277.2,1487.9,274.9,1487.3,272.7z
			 M1486.9,291.2c1.5,2.5,2.3,7.3,2.3,14.2v2.1c0-1.7,0-2.7,0-3.1C1489.3,296.7,1488.5,292.3,1486.9,291.2z M1491.3,120.4v2.4
			c-0.5-1.2-1.3-2-2.5-2.3L1491.3,120.4z M1492.8,145.4c-0.2,9.9-0.6,16.8-1.4,20.8C1492.9,162.4,1493.3,155.5,1492.8,145.4z
			 M1491.5,176.7c0.5,1.7,0.7,3.8,0.5,6.1C1492.7,180.7,1492.5,178.6,1491.5,176.7z M1502.4,253.2c-1.2,0.6-1.7,1.2-1.5,1.7
			c0.5,1.2,0.2,2.2-1,2.9l-0.9,1.1c0.7,0.1,1.8-0.3,3.4-1.1C1504.2,256.8,1504.2,255.3,1502.4,253.2z M1508,247.2
			c0.4-0.1,0.7,0,0.9,0.2c0.2,0.3,0.3,0.6,0.3,1.1c0,1-0.6,1.8-1.7,2.3c-0.5,0.2-0.8,0.2-1-0.2c-0.2-0.3-0.2-0.8-0.1-1.4
			C1506.7,248.1,1507.2,247.4,1508,247.2z M1512.1,243.2c1,0,1.5,0.7,1.5,2c0,1.3-0.2,2-0.6,2c-0.4,0-0.9-0.7-1.5-2
			C1510.8,243.9,1511,243.2,1512.1,243.2z M1524.7,149.7l-4.8,7.6C1520.4,156.2,1522,153.7,1524.7,149.7z M1545.3,291.5l0.5,1.2
			C1545.3,292.5,1545.1,292.1,1545.3,291.5z M1556.1,112.3c-2.4,0.7-5.6,3.2-9.6,7.3C1550.5,114.7,1553.7,112.3,1556.1,112.3z
			 M1548.6,300.5c-0.1,4.2,1.2,6.7,3.9,7.5C1551.5,306.8,1550.2,304.3,1548.6,300.5z M1554.6,322.8c-0.3,2.4,0,4,1,4.6
			C1554.1,326.4,1553.7,324.9,1554.6,322.8z M1558.3,214.4c1.5,2.3,3.2,5.4,4.9,9.2C1563.7,222.5,1562,219.5,1558.3,214.4z
			 M1575.9,326.9c-3.4,1-7.9,1.5-13.6,1.5c-0.9,0-1.9-0.1-3.1-0.2c3.5,0.2,7.9-0.2,13.3-1.1C1573.3,327.1,1574.4,327,1575.9,326.9z
			 M1564.9,227.4c2.1,4.7,4.6,11.2,7.8,19.5C1569.7,238.3,1567.1,231.8,1564.9,227.4z M1601.1,112.8c0.7,0,1.1,0.1,1.1,0.2
			c0.3,0.4-0.5,2.1-2.4,5c-1.9,2.9-3.1,4.3-3.7,4.3l-0.5,0.5c4.3-6.1,6.3-9.3,6.2-9.6c-0.2-0.2-1.4-0.2-3.9,0
			C1599.6,112.9,1600.6,112.8,1601.1,112.8z M1608.3,322c4,5.2,3.9,7.8-0.2,7.9C1611.5,329.9,1611.5,327.3,1608.3,322z"/>
		<path class="st0" d="M1733,87.3c2.9,0,4.3,0.3,4.3,0.9c0,1.2,4.7,1.7,14,1.5c9.4-0.3,14.2,1,14.5,3.9c0.3,2.9,0.9,4.4,1.8,4.5
			c6.7,0.7,9.7,4.6,9.1,11.8c-2.1,1.4-2.9,3.5-2.6,6.1c0.2,2,0.5,5,0.9,9c1.1,11.6,2.8,18.6,5.1,21.1c1.6,1.6,1.3,2.9-1,3.7
			c-2.2,0.9-3.4,2.2-3.4,3.9c0,1.5-1.8,3.1-5.2,4.7c-3.5,1.6-6.2,2.1-8.2,1.5c-1.9-0.7-3.1-0.5-3.7,0.8c-0.5,1.1-11,1.5-31.4,1.2
			c-20.2-0.4-31.1,0.1-32.5,1.5c-1.3,1.2-2.2,4.3-2.6,9.3c-0.5,5-0.2,7.9,0.9,8.9c1.1,0.8,11.1,1.4,30.2,1.8
			c19.1,0.5,29.6,2.1,31.6,4.7c2.1,2.7,4.1,4.1,6,4.1c2,0,3,1.1,3.2,3.4c0.3,4.8,0.8,8,1.6,9.6c0.6,1.3,0.5,2.9-0.2,4.7
			c-2.3,4.9-0.9,11.8,4.1,20.8c0.9,1.6,1.1,6.1,0.5,13.3c-0.2,1.8-1.3,3.3-3.4,4.3c-2.1,1.1-3.7,0.9-4.6-0.4
			c-0.8-1-4.8-0.7-11.9,1.1c-7.1,1.8-11.5,2.4-13.3,1.6c-1.8-0.8-3.3-0.7-4.4,0.2c-1.6,1.3-10.3,2.3-26,2.9
			c-8.1,0.4-12.4,2.3-13.1,5.6c-1.5,8-1.8,12.1-1,12.2c0.9,0.1,5.8,1,14.9,2.7c18.5,3.5,33.8,3.6,46.1,0.3
			c7.5-1.9,11.6-2.6,12.3-1.9c0.8,0.7,1.1,0.2,1.1-1.4l0.9-1.2c0.5,0.7,1.8-0.2,3.8-2.7c1.9-2.5,4-3.1,6.2-1.5
			c2.2,1.6,3.6,3.1,4.2,4.4c2.7,5.6,1.7,18.8-3.2,39.5c-2.1,8.9-2.9,14.3-2.6,16.5c0.3,2.5-0.5,4.4-2.3,5.6
			c-1.9,1.2-3.7,1.1-5.5-0.5c-2.1-1.7-3.7-2-4.8-0.8c-3.3,3.4-16.8,6-40.4,7.8c-13.3,0.9-27.7,1.4-43.1,1.5
			c-15.4,0-23.3-0.4-23.8-1.5c-0.5-1.1-2-1.6-4.3-1.4c-2.3,0.2-3.6,0.8-3.9,2.1c-0.4,1.3-1.1,1.2-2.3-0.3c-1.2-1.6-3.8-2.3-7.8-2.1
			c-7.2,0.4-10.5-6.6-10.2-20.9c0.2-8.1,0.8-11.8,1.8-11l-0.3-1.5c-1.2-1.7-1.8-5.3-1.8-10.7c0-3.6,0.5-5.2,1.5-5l1.5,0.8
			c0-1.3-0.5-2.7-1.6-4.3c-2.6-3.5-1.9-9.2,2.1-17.1l-0.6-2.4c-1.5-2.5-2.1-5.4-1.8-8.7c0.4-3.8,0.7-7.1,0.9-9.9
			c0.2-3.4,0.8-5.5,1.7-6.6c1-0.9,0.9-1.4-0.2-1.4c-1.1-0.1-1.5-2.9-1.1-8.5c0.4-5.6,0.7-15.5,0.9-29.8c0.3-13.6,1.2-20.4,2.7-20.3
			c-1.7-2.6-2.4-5.6-2.1-8.9c0.3-3.6,0.5-10.7,0.5-21.3c0-10.6-0.1-17.1-0.4-19.5c-0.3-2.7-0.8-4.9-1.5-6.5
			c-0.7-1.6-0.5-2.4,0.7-2.4c1.4,0,0.7-1.7-2.1-5.1c-2.7-3.4-4.1-5.7-4.1-6.9c0-1.2,2-3.2,5.9-5.9c4-2.7,5.9-5,5.9-6.8
			s7.3-2.4,21.9-1.7c14.5,0.6,26.3-0.2,35.5-2.3C1708.8,88.7,1721.9,87.1,1733,87.3z M1645.2,225.2c-0.3,3-0.5,4.8-0.6,5.6
			c-0.5,4-0.9,13-1.4,27c-0.4,10.2-0.4,16.8,0,19.8C1643.4,262.6,1644,245.1,1645.2,225.2z M1643.6,297.3c-1,7.5-0.2,13.3,2.5,17.4
			C1644.9,312.2,1644.1,306.4,1643.6,297.3z M1649.8,127.1c0,0.3,0.1,0.8,0.2,1.4L1649.8,127.1z M1660.1,118.6
			c-5.2,1.8-8.1,3.5-8.7,5C1652.7,122.2,1655.6,120.5,1660.1,118.6z M1679.1,319.6c-8.4,3-14.3,3.9-17.7,2.9
			C1666.2,322.7,1672.1,321.7,1679.1,319.6z M1701.6,107.3c-7.2,0.8-15.4,2.6-24.9,5.3C1681.4,109.6,1689.7,107.8,1701.6,107.3z
			 M1679.8,160.2c1.2,1.1,1.9,3.8,2.1,7.9l0.5-7.5L1679.8,160.2z M1688.9,286.7c-0.3,0.6-0.5,1.4-0.7,2.4c-0.2,1-0.5,1.9-0.8,2.7
			C1687.4,290.7,1687.9,289,1688.9,286.7z M1715.6,317.7c-0.8,0.1-1.8,0.3-3.1,0.7c-1.3,0.4-2.5,0.6-3.6,0.8
			c-8.7,1.9-14,3.7-15.7,5.2c-1.8,1.6,9.5,2.3,34.1,2c-3.6,0.1-6.5,0.2-8.9,0.2c-20.5,0.3-30-0.2-28.5-1.4
			C1693.3,322.6,1701.9,320.1,1715.6,317.7z M1692.1,229.8c0.4,0.5,3.4,0.8,9,0.9l-0.3,0.8l-4.3,0.8
			C1693.4,231.8,1692,230.9,1692.1,229.8z M1703.2,286c4.9,0.3,8.5,1.5,10.6,3.7C1711,288.1,1707.5,286.9,1703.2,286z M1735.3,291.8
			c-3,0.8-4.5,2-4.5,3.5c-2.1,0-2.2-0.7-0.5-2.1C1731.2,292.5,1732.8,292.1,1735.3,291.8z M1739.3,200.2c7.8,1.4,12.1,2.7,13,3.8
			c1.2,1.5,2.3,4.8,3.3,9.8c0.4-0.8,0-2.8-1.3-6c-1.5-3.9-2.6-5.8-3.3-6c-0.8-0.1-2.6-0.4-5.6-0.8
			C1744,200.9,1742,200.6,1739.3,200.2z M1757.2,227.4c-0.7,0.6-2.9,1-6.7,1.2L1757.2,227.4z M1756.9,118.7l0.5,0.2
			c1.2,0,1.9,0.5,2.1,1.4C1758.8,119.7,1757.9,119.2,1756.9,118.7z M1765.7,323.2c-1.2,3.6-2.9,4.4-5,2.6c-0.2-0.2-0.6-0.4-1-0.6
			C1762.8,324.8,1764.8,324.1,1765.7,323.2z M1763.7,291.3c1.9,0.2,2.9,0.8,3.1,1.7C1766.3,292.4,1765.3,291.8,1763.7,291.3z
			 M1764.9,125.3c1.4,2,2.1,4.7,2.3,8.1c0.2-1.3,0.3-2.4,0.6-3.2C1768.3,128.4,1767.4,126.8,1764.9,125.3z M1769.7,301.4l-1.3,1.7
			c-0.3,0.3-0.6,0.8-0.8,1.4c0-1.1,0-1.9,0-2.3l0.5-0.2C1769,301.6,1769.6,301.4,1769.7,301.4z"/>
		<path class="st0" d="M1833.3,87.3c5.4-0.1,10.3,0.3,14.7,1.1c6.5,1.2,10.6,1.3,12.1,0.2c1.4-1.1,3.4-1,5.9,0.3
			c2.4,1.2,3.8,1.2,4.1,0c0.3-1.2,2.2-1.2,5.7,0c3.5,1.3,9.5,2.4,18.1,3.2c8.7,0.8,13.7,2,14.8,3.5c2.7,3.3,10.9,4.3,24.8,3.2
			c2.4-0.2,4.2,0.8,5.4,2.9c1.1,2.1,2.2,3.2,3.3,3.2c1.1,0,2.1,0.9,2.9,2.6c0.8,1.8,3.4,4.2,7.6,7.2c4.3,3,6,5.1,5,6.4
			c-1,1.3-0.7,4.1,1.1,8.2c2.5,6,4.2,14.1,5,24.4c0.8,10.3,0.3,17.3-1.4,21.1c-0.8,1.6-1.3,3.6-1.5,6c-1.1,9.7-6,20.6-14.5,32.8
			c-3,4.5-5.9,7.7-8.6,9.5c-2.7,1.9-4.1,4-4.1,6.3c0,2.3,2.5,7.5,7.5,15.4c5,7.8,9.3,15.9,12.8,24.3c3.5,8.4,5.9,12.9,7.2,13.6
			c1.3,0.7,1.9,3.4,1.8,8.3c-0.5,11.3,2,19.7,7.4,25.2c1.4,1.3,1.9,3.6,1.5,6.9c-0.3,3.3-1.2,4.9-2.7,5c-1.5,0-3.3,0.7-5.2,2.1
			c-7.1,5.2-19.7,8.7-37.8,10.5c-11.5,1.2-17.7-0.2-18.7-4.3c-0.6-2.7-3.3-8.5-8.2-17.4c-4.8-8.9-7.2-13.7-7.2-14.5
			c0-5-6.2-16.5-18.5-34.6c-4-6-6.3-5.5-7,1.5c-0.4,3.3-1.1,5.4-2.1,6.3c-1,1-0.7,1.5,0.8,1.6c1.4,0,1.4,0.7,0,2l-0.3,1.8
			c1.4,0.1,1.7,0.7,1.1,1.8c-0.5,1.2-1.1,10.6-1.6,28.2c-0.7,23.5-1.6,36.5-2.7,38.9c-1.9,4.2-5,2.7-9.2-4.4c-2.2-3.7-5.6-6-10-6.9
			c-4.6-0.9-6.8-0.9-6.8,0.2c0,1-3.1,1.7-9.4,2.1c-4.6,0.3-7.2,0.7-8,1.3c-0.8,0.6-1.2,2.3-1.2,5.3c0,4-0.9,6.2-2.6,6.7
			c-1.7,0.5-3.1-1.1-4.1-4.7c-1-3.6-1.2-5.9-0.7-7c0.5-1.1-0.3-2.4-2.3-3.8c-2-1.4-3-1.7-3-0.9c0,0.7-1.4-0.2-4.1-2.6
			c-2.7-2.4-5.3-4.4-8-6c-2.5-1.4-4.3-5.7-5.4-12.8c-0.8-5.1-1.2-17.7-1.1-37.9c0.1-20.2,0.5-31.9,1.4-35c0.7-2.6,1.7-14.5,3.1-35.7
			c0.4-5.7,0.8-11,1.4-15.9c0.5-5,1.1-11.2,1.6-18.8c0.6-8,1.3-14.7,2.2-19.8c0.9-5.4,1.5-15.2,1.8-29.4c0.3-14.2,1.2-21.3,2.7-21.3
			s5.2-2.7,11.1-8.2c5.9-5.5,11.8-8.5,17.8-9.2C1830,87.3,1831.4,87.3,1833.3,87.3z M1796.5,230c-0.2,0-0.5,0.1-0.9,0.2
			c-2.9,0.8-4.3,11.6-4.3,32.4c0.1,32.5,1.6,48.7,4.7,48.7c1,0,1.2-5.8,0.6-17.4c-1.8-38.7-2.1-59.1-0.7-61.2L1796.5,230z
			 M1810.5,199.9c-0.2,3-0.3,5.3-0.3,7.2c-0.1,1.8,0,2.8,0.1,2.9c0.2,0,0.7-1.2,1.4-3.7C1811,206.7,1810.6,204.6,1810.5,199.9z
			 M1810.5,274.8c0.2,16,0.9,27.5,2.2,34.5c-0.9-6.2-1.6-15-1.9-26.4C1810.5,279.6,1810.5,276.9,1810.5,274.8z M1811.7,238.8
			c-0.5,4.9-0.9,11.4-1.1,19.5C1810.8,252.6,1811.2,246,1811.7,238.8z M1814.9,111.7c-2.4,0.8-3.5,6.9-3.5,18.3
			c0.5-7.8,1.2-13,2-15.4s2.2-3.2,4.2-2.3C1816.7,111.8,1815.8,111.6,1814.9,111.7z M1813.4,220.7l-0.2,0.6c-0.9,1.5-1.1,2.8-0.7,4
			c0.2,0.3,0.2,1.4,0.1,3.4C1812.8,227.2,1813,224.5,1813.4,220.7z M1815.5,321.4c0.6,1.2,1.3,2.2,2.1,3.1c-0.5-0.2-0.9-0.4-1.1-0.7
			C1816.3,323.5,1815.9,322.7,1815.5,321.4z M1845.6,317c-1,6.3-4.8,9.6-11.4,9.8c-1.8,0.1-4,0.1-6.7,0c6.5,0.9,11.3,1.1,14.3,0.6
			C1844.2,326.9,1845.4,323.5,1845.6,317z M1837.8,110.5c-1.8,0.3-3.4,0.8-4.8,1.5C1834.2,111.2,1835.8,110.7,1837.8,110.5z
			 M1850.3,200.2c-0.2,0.9-0.5,1.5-0.8,1.7C1849.9,201.4,1850.1,200.8,1850.3,200.2z M1862.3,155c-3.3,0-4.5,5.7-3.8,17.1
			c0.6,9.5,0.2,14.6-1.3,15.3c-1.4,0.8-2.2,2.1-2.2,3.8c0,6.4,7,5.6,21.1-2.3c5.2-2.9,9.5-5.8,12.7-8.6c3.2-2.8,4.6-4.8,4.1-5.9
			c-0.5-1.1-4.7-4.3-12.6-9.7c-7.8-5.3-12.8-8.4-14.9-9.1C1864.2,155.2,1863.1,155,1862.3,155z M1855.4,241.9
			c0.5,1.2,0.4,2.6-0.2,4.3C1856.5,245.1,1856.6,243.7,1855.4,241.9z M1861.8,137.8c3.1,2,5.6,3.2,7.3,3.5c0.2,0,0.6,0.1,1.4,0.3
			L1861.8,137.8z M1871.7,239.9l4.6,7.9c-1.7-3.9-2.4-6.2-2.3-6.9c0.2-0.4,0.1-0.7-0.1-0.8C1873.1,240.6,1872.4,240.5,1871.7,239.9z
			 M1875,96.9c0.4,0,0.9,0.7,1.5,2c0.6,1.3,0.4,2-0.6,2c-1,0-1.5-0.7-1.5-2C1874.4,97.6,1874.6,96.9,1875,96.9z M1879.5,111.2
			c6.9,0.3,11,1,12.3,2.1l0.5,0.3C1887.9,112.7,1883.6,111.8,1879.5,111.2z M1883.2,261c0.8,0.5,1.2,1.4,1.4,2.7L1883.2,261z
			 M1884.5,148.3l3.8,1.8C1887.4,149.7,1886.2,149.1,1884.5,148.3z M1884.6,271.9c3.5,5.4,5.2,7,5.2,4.7c0-0.5-0.2-1.3-0.6-2.4
			c0.9,1.7,1.4,2.8,1.4,3.4C1890.7,281.2,1888.7,279.4,1884.6,271.9z M1896.1,113.4l0.5,0.9c-1.7-0.1-2.5-0.2-2.6-0.2
			C1894.4,114,1895.2,113.8,1896.1,113.4z M1901,189.2c0.7-0.2,1.4,0.2,2.3,1.1c-1.8-0.1-4,0.7-6.5,2.4
			C1899,190.5,1900.4,189.3,1901,189.2z M1904,166.8c0.2,2.1,0.6,3.6,1.3,4.3C1904.7,169.1,1904.3,167.7,1904,166.8z M1906.3,303.1
			c0.9,3.4,2.1,6,3.5,7.8C1909,309.3,1907.8,306.7,1906.3,303.1z M1908.5,189.1c-0.1,1.1-0.3,1.8-0.8,2
			C1908,190.1,1908.3,189.5,1908.5,189.1z M1914.5,314.4c0.8,0.3,2.1,0.7,3.9,1.2C1917.1,315.3,1915.8,314.9,1914.5,314.4z
			 M1918.8,212.4c-0.2,2.2-1.1,3.4-2.9,3.5l1.4-1.8C1917.7,213.6,1918.2,213,1918.8,212.4z M1926.6,124.8c1.2-0.2,2.2,0.2,3,1.1
			L1926.6,124.8z M1937.7,200.7c-1.8,4.5-5,7-9.5,7.5c-0.6,0.1-1.1,0.2-1.6,0.3C1932.3,210.3,1936,207.7,1937.7,200.7z
			 M1939.2,265.7c-2.4,3-1,9.2,4.1,18.6l11.6,16.5c0.2-1-0.6-3.7-2.2-8.1c-2.1-5.6-4-9.6-5.6-12.1c-1.5-2.4-2.2-4.1-2.2-5
			c0.2-0.8-0.6-2.6-2.3-5.5C1940.9,267.3,1939.8,265.8,1939.2,265.7z M1939.2,147.7c1.6,7.6,2.5,15.7,2.6,24.1
			C1941.9,159.5,1941.1,151.5,1939.2,147.7z M1941.4,183.3c-0.3,3.8-0.8,7.1-1.5,9.9C1940.6,191.7,1941.1,188.4,1941.4,183.3z
			 M1949,313.5l4.1,5.2l-0.8,0.2L1949,313.5z M1950.8,139.6l-0.5,0.5c-0.5,1.9,0.2,5.8,2.1,11.6c1.9,5.8,3.3,8.7,4.4,8.7
			c0.5,0,0.5-1.6,0-4.9C1955.5,145.4,1953.5,140.1,1950.8,139.6z"/>
		<path class="st0" d="M2044.7,95.2c0.3-0.1,0.7,0.1,1.1,0.5c1.1,0.9,6.1,1.6,15.2,2c21,0.8,35.7,10.3,44,28.5
			c1.4,3.2,4.3,7.7,8.6,13.6c6.7,9.4,8.2,13.7,4.6,13.1c-0.8-0.1-1,0.2-0.7,0.8c2,4.3-1.5,9.1-10.5,14.5c-6.2,3.8-10.2,5.3-12,4.6
			c-1.8-0.8-1.9-0.5-0.5,0.9c1.4,1.3,0.2,3-3.5,5c-10.2,5.7-14.9,3.8-14.1-5.8c1.2-1.9,0.9-3.3-0.9-4c-1.8-0.8-3.5-1.8-5-3.1
			c-1.4-1.2-4.3-3.3-8.6-6.1c-4.2-2.7-6.6-4.7-7.2-6c-0.8-1.6-2.3-2.2-4.6-1.6c-2.3,0.6-3.7,1.9-4.1,3.9c-0.7,2.6-2.2,4.4-4.7,5.2
			c-3.3,1.1-3.8,3.5-1.7,7c4.2,6.8,10.2,11,18.1,12.5c13,2.3,21.8,6.3,26.5,11.9c3.2,3.9,6.8,5.9,10.8,6.1
			c7.2,0.5,12.4,2.8,15.5,6.9c5.9,7.9,8.8,15.4,8.8,22.4c0,1.9,0.8,3.7,2.3,5.3c1.5,1.7,2,3.5,1.5,5.3c-0.5,1.8-0.3,5.7,0.8,11.8
			c1.1,6.8-0.9,17.1-6.2,31l2.3,3.5c2.5-3.2,3.8-4.2,3.8-3.1c0,1.4-1.1,4.3-3.3,8.5c-2.2,4.3-3.6,6.4-4.4,6.4
			c-0.9,0-1.1,0.6-0.7,1.7c0.6,1.1-0.3,3.5-2.8,7c-2.5,3.6-3.7,5.8-3.8,6.7c-0.2,2.2-3.8,6.5-11,12.9c-7.2,6.4-13.4,10.8-18.7,13.4
			c-7.8,3.8-12.1,6-12.9,6.7c-1.1,0.9-5.3,1.5-12.6,1.8c-7.3,0.3-12.3,0.1-15.2-0.6c-9.6-2.6-16-5-19.3-7.2c-3-2.1-7.2-4.5-12.6-7
			c-5.4-2.5-9.4-5.6-11.9-9.2c-2.5-3.7-5.1-6.9-7.6-9.6c-2.7-2.6-6.3-9.2-11-19.5c-4.6-10.2-6.3-17-5-20.6c1.3-3.6,2.1-6.6,2.4-9.2
			c0.7-4.7,3.3-7,8-7c2.6,0,4.2-0.5,4.9-1.4c0.7-0.9,2.1-1.6,4.2-2c2.5-0.5,6.1-1.4,10.7-2.7l10.8-3.1c2.1-0.6,4.3-2.4,6.4-5.3
			c2.1-2.9,3.4-3.5,3.9-1.9c0.5,1.6,1.1,2.1,2.1,1.3c0.9-0.8,2.7,0.7,5.4,4.3c2.7,3.6,3.5,5.6,2.3,6.3c-4.3,1.9-3.1,7.6,3.7,17.1
			c1.7,2.5,3.5,4.2,5.4,5c2.6,1.2,5.6,0.9,9.1-1.1c3.5-1.9,5.6-4.5,6.3-7.6l0.1-13.7c-0.8-2.1-1.8-3.2-3.3-3.2
			c-1.4,0-2.3-0.6-2.6-1.7c-0.6-2-4.4-5-11.5-8.8c-7-3.8-12.7-6-16.9-6.6c-6.2-0.8-12.9-4.6-20.3-11.3c-7.4-6.7-12.3-11.8-14.7-15.1
			c-7.6-10.8-10.2-19.3-7.8-25.5c0.9-2.2,1.9-7.9,3-16.9c1-9,2.2-15.5,3.8-19.5c1.6-4.2,2.4-7.1,2.4-8.9c0-1.8,0.4-2.7,1.1-2.7
			c0.8,0,1.6-1.4,2.6-4.3c1-2.9,3.2-5.6,6.6-7.9c3.5-2.5,6.8-5.8,10-9.9c5.6-7,14.8-11,27.4-12.1
			C2041.9,97.7,2044.4,96.7,2044.7,95.2z M1993.5,266.9h0.5c-3.8,1.2-5.7,2.6-5.7,4.3c-0.3-1.6-0.3-2.7,0-3.2
			C1988.7,267.4,1990.4,267,1993.5,266.9z M2004.1,309.8c1.4,1.5,3.1,3.1,5.2,4.6c-0.5-0.1-1-0.2-1.3-0.2
			C2007.2,314.2,2005.9,312.7,2004.1,309.8z M2006.2,128.6c0.8,0.9,1,2.2,0.5,4l-0.9-1.2C2005.7,129.8,2005.9,128.8,2006.2,128.6z
			 M2015,139.5c-0.6,0.5-1,0.8-1.3,0.8c-0.9,0-2.5,3.2-4.9,9.6c-3.3,8.9-3.2,19.3,0.3,31.4c-1.6-7.8-2.4-13.8-2.4-18
			C2006.8,154.3,2009.6,146.4,2015,139.5z M2007.7,184.2c-0.4,0.2-0.5,1.1-0.5,2.7l0.9,1.2C2008.7,186.4,2008.6,185.1,2007.7,184.2z
			 M2012.1,263.5c1.1,0,2.3,0.8,3.8,2.4c-1.7-1.1-3.8-1.7-6.5-1.7C2010.5,263.7,2011.5,263.4,2012.1,263.5z M2014.7,201.1
			c0.6,1.4,1.1,2.4,1.6,3.1l-1.5-0.5C2015,203.3,2014.9,202.4,2014.7,201.1z M2020.6,272.7c1.6,2.6,2.5,5.1,2.7,7.5
			c-0.2-0.6-0.4-1.2-0.6-1.7C2022,276.1,2021.3,274.1,2020.6,272.7z M2027.7,127.9l-0.8,0.5c-1.4,1.1-3,2.4-4.8,4
			c2.4-2.6,4-4.1,4.6-4.3C2026.8,128,2027.2,128,2027.7,127.9z M2023.4,208.1c0.8,0.6,2,1.3,3.4,2.1L2023.4,208.1z M2028.2,167.1
			c0.6,0.1,0.8,1.4,0.7,4c-0.1,2.3-0.4,3.9-0.9,4.6C2027.9,172.7,2027.9,169.8,2028.2,167.1z M2042.4,119.2c-2.3,1-4.2,1.9-5.7,2.7
			C2038.5,120.6,2040.4,119.7,2042.4,119.2z M2042.2,193.3c2.9,1.4,6.4,3.5,10.6,6.1l-0.3-0.5c-2.8-3.5-5.2-5.2-7.3-5.3
			C2044.1,193.5,2043.1,193.4,2042.2,193.3z M2042.6,291.8c1.7-0.1,2.9,0.1,3.4,0.6C2044.3,292.2,2043.2,292,2042.6,291.8z
			 M2042.8,222.3c0.5,0.5,0.8,0.8,0.9,0.9c0.5,0.6,1.2,1.2,1.9,1.7C2043.8,223.7,2042.8,222.9,2042.8,222.3z M2076.6,311.2
			c-4.9,6.8-12.1,11-21.6,12.7C2062.2,320.5,2069.4,316.3,2076.6,311.2z M2062.2,113.4c2.1,0.1,4.2,1.1,6.2,2.9
			c-3.8-2.2-6.9-3-9.4-2.3l-3.7,0.9c1.3-0.6,2.7-1,4.2-1.2c0.5-0.1,1-0.2,1.5-0.2C2061.5,113.4,2061.9,113.4,2062.2,113.4z
			 M2064.9,207.5c3.7,2.8,6.9,5.4,9.6,7.8l-2.2-2.4C2070.6,211,2068.2,209.3,2064.9,207.5z M2065,145.6c0.7,0.8,1.6,1.7,2.6,2.7
			C2066,148.2,2065.1,147.3,2065,145.6z M2090.1,314.1c1.1,0,1.8,0.7,2.2,2c0.2,0.9,0.2,1.6-0.2,2.1c-0.3,0.5-1,0.7-2,0.7
			c-2,0-3.2,1-3.8,3.1c-0.6,1.9-2.2,2.9-4.8,2.9h-4l4.4-4.9C2085.6,316.1,2088.3,314.2,2090.1,314.1z M2089.5,300.3
			c-2.6,2.6-5.7,5.3-9.2,8.1C2082.7,307.3,2085.7,304.6,2089.5,300.3z M2081.7,162.1c0.3,0.8,0.6,1.4,0.8,1.8
			C2081.9,163.6,2081.6,163,2081.7,162.1z M2084.6,167.7c0.8,1.1,1.7,1.6,2.7,1.4c-0.6,0.8-1.2,1.1-1.9,0.8
			C2084.8,169.5,2084.6,168.8,2084.6,167.7z M2088.7,217.6c0.8,0,1.8,0.8,3.1,2.4c-1.1-0.5-1.9-0.8-2.5-0.8
			c-0.6-0.1-0.9,0.1-0.9,0.5C2087.7,218.4,2087.8,217.7,2088.7,217.6z M2088.4,128c0.9,0.1,1.7,0.4,2.2,0.8c0.6,0.5,0.8,1,0.7,1.6
			C2090.2,129.4,2089.2,128.6,2088.4,128z M2099.9,281.4c-1.3,4.5-2.6,8.1-4,10.8C2099.7,286.6,2101.1,283,2099.9,281.4z
			 M2103,267.1c-0.6,4.3-1.2,7.4-1.8,9.3C2101.8,273.6,2102.4,270.5,2103,267.1z M2101.3,141c0.5,0,0.9,0.4,1.4,1.2
			C2102.1,141.6,2101.7,141.2,2101.3,141z M2106,148.9c0.3,1.6-0.1,3.4-1.3,5.3C2107,152.2,2107.4,150.5,2106,148.9z M2105.6,238.7
			c0.1,1.1,0.1,1.8,0,2C2105.6,240.1,2105.6,239.5,2105.6,238.7z"/>
	</g>
</g>
</svg>
