<svg width="10" height="10" viewBox="0 0 10 10" fill="none" xmlns="http://www.w3.org/2000/svg">
<path d="M9.72911 8.13377L6.59316 4.9996L9.72681 1.86389C10.0885 1.50372 10.0885 0.924443 9.72831 0.562772L9.43715 0.270888C9.26606 0.0953045 9.03192 0 8.78579 0H8.78429C8.53816 0 8.30702 0.0967968 8.13443 0.270119L4.99924 3.40737L1.86329 0.273961C1.50383 -0.0862111 0.925265 -0.0877095 0.563565 0.272461L0.271659 0.561348C0.096061 0.733931 0 0.968045 0 1.2134C0 1.46028 0.0968044 1.69214 0.270141 1.86546L3.40764 5.0004L0.273215 8.13611C-0.0884847 8.49628 -0.0884846 9.07556 0.271714 9.43798L0.562872 9.72911C0.735468 9.90469 0.968851 10 1.21498 10C1.45961 10 1.69375 9.90245 1.86634 9.72988L5.00076 6.5934L8.13595 9.72623C8.3138 9.90557 8.55017 9.99635 8.78731 9.99635C9.0222 9.99635 9.25707 9.90706 9.43717 9.72773L9.72832 9.43734C9.90467 9.26626 9.99998 9.03214 9.99998 8.78604C10.0015 8.53993 9.90468 8.3073 9.73134 8.13398L9.72911 8.13377Z" fill="white"/>
</svg>
