<?xml version="1.0" encoding="UTF-8" standalone="no"?>
<svg width="48px" height="66px" viewBox="0 0 48 66" version="1.1" xmlns="http://www.w3.org/2000/svg" xmlns:xlink="http://www.w3.org/1999/xlink">
    <!-- Generator: Sketch 41.2 (35397) - http://www.bohemiancoding.com/sketch -->
    <title>Combined Shape</title>
    <desc>Created with Sketch.</desc>
    <defs></defs>
    <g id="Symbols" stroke="none" stroke-width="1" fill="none" fill-rule="evenodd">
        <g id="Exit" transform="translate(-12.000000, -7.000000)" fill="#FFFFFF">
            <g id="Combined-Shape">
                <g transform="translate(12.000000, 7.000000)">
                    <path d="M47.5,59.25 L40.75,66 L35.5,66 L41.5,60 L34,60 L28,66 L0.25,66 L7,59.25 L7,48 L20.5,48 L25.375,36.121 L35.5,58.5 L43,58.5 L31,31.5 L34,22.5 L38.5,28.5 L47.5,28.5 L47.5,59.25 Z M47.5,24 L41.5,24 L35.5,15 L14.5,15 L10.387,24.527 L14.52,26.309 L17.473,19.461 L17.5,19.5 L23.5,19.5 L19.375,28.621 L16,42 L7,42 L7,0.75 L47.5,0.75 L47.5,24 Z M40,8.129 C40,15.129 29.5,15.129 29.5,8.129 C29.5,1.129 40,1.129 40,8.129 Z"></path>
                </g>
            </g>
        </g>
    </g>
</svg>