<?xml version="1.0" encoding="utf-8"?>
<!-- Generator: Adobe Illustrator 23.0.6, SVG Export Plug-In . SVG Version: 6.00 Build 0)  -->
<svg version="1.1" id="Layer_1" xmlns="http://www.w3.org/2000/svg" xmlns:xlink="http://www.w3.org/1999/xlink" x="0px" y="0px"
	 viewBox="0 0 1242 148" style="enable-background:new 0 0 1242 148;" xml:space="preserve">
<style type="text/css">
	.st0{fill:#00396B;}
</style>
<g>
	<path class="st0" d="M77.24,47.73H46.07v22.12h27.6v6.58h-27.6v29.34h-8.13V41.06h39.3V47.73z"/>
	<path class="st0" d="M81.54,87.77V59.25h7.86v27.42c0,4.27,0.93,7.69,2.79,10.28c1.86,2.59,4.74,3.88,8.64,3.88
		c4.26,0,7.68-1.6,10.24-4.8c2.56-3.2,3.84-7.18,3.84-11.93V59.25h7.77v36.2c0,3.35,0.21,6.8,0.64,10.33h-7.4
		c-0.31-1.95-0.52-4.42-0.64-7.4h-0.18c-3.35,5.79-8.71,8.68-16.09,8.68c-5.79,0-10.15-1.78-13.07-5.35
		C83,98.14,81.54,93.49,81.54,87.77z"/>
	<path class="st0" d="M147.9,59.25h12.34v5.94H147.9v28.06c0,5,2.28,7.49,6.85,7.49c1.65,0,3.17-0.21,4.57-0.64l1.19,5.76
		c-2.07,0.79-4.48,1.19-7.22,1.19c-4.08,0-7.3-1.14-9.64-3.43c-2.35-2.29-3.52-5.53-3.52-9.73v-28.7h-8.23v-5.03l8.13-0.91V47.82
		l7.86-2.74V59.25z"/>
	<path class="st0" d="M170.38,87.77V59.25h7.86v27.42c0,4.27,0.93,7.69,2.79,10.28c1.86,2.59,4.74,3.88,8.64,3.88
		c4.26,0,7.68-1.6,10.24-4.8c2.56-3.2,3.84-7.18,3.84-11.93V59.25h7.77v36.2c0,3.35,0.21,6.8,0.64,10.33h-7.4
		c-0.31-1.95-0.52-4.42-0.64-7.4h-0.18c-3.35,5.79-8.71,8.68-16.09,8.68c-5.79,0-10.15-1.78-13.07-5.35
		C171.84,98.14,170.38,93.49,170.38,87.77z"/>
	<path class="st0" d="M227.23,69.67c0-3.41-0.21-6.89-0.64-10.42h7.4c0.3,2.07,0.52,4.54,0.64,7.4h0.18
		c2.68-5.79,7.56-8.68,14.62-8.68c0.49,0,1.37,0.09,2.65,0.27l-0.46,6.67c-0.61-0.12-1.55-0.18-2.83-0.18
		c-4.45,0-7.86,1.49-10.24,4.48c-2.38,2.99-3.56,6.86-3.56,11.61v24.95h-7.77V69.67z"/>
	<path class="st0" d="M297.89,85.3h-34.55c0.3,4.75,1.74,8.53,4.3,11.33c2.56,2.8,6.22,4.2,10.97,4.2c2.8,0,5.32-0.38,7.54-1.14
		c2.22-0.76,4.46-1.9,6.72-3.43l3.47,5.03c-2.62,1.89-5.41,3.32-8.36,4.3c-2.96,0.97-6.23,1.46-9.83,1.46
		c-7.13,0-12.69-2.25-16.68-6.76c-3.99-4.51-5.99-10.51-5.99-18.01c0-4.81,0.85-9.05,2.56-12.71c1.71-3.66,4.19-6.5,7.45-8.55
		c3.26-2.04,7.18-3.06,11.75-3.06c6.76,0,11.93,2.19,15.49,6.58c3.56,4.39,5.35,10.21,5.35,17.46
		C298.07,83.47,298.01,84.57,297.89,85.3z M290.48,79.26c-0.12-4.63-1.31-8.35-3.56-11.15c-2.26-2.8-5.52-4.2-9.78-4.2
		c-4.33,0-7.68,1.45-10.05,4.34c-2.38,2.89-3.66,6.57-3.84,11.01H290.48z"/>
	<path class="st0" d="M365.52,83.74c-0.09,4.39,0.55,19.1-0.18,24.31c-1.19,0.64-1.1,0.82-2.74,1.37c-2.19,0.46-2.92,0.37-5.48,0.18
		c-1.65-1.74-4.02-3.66-5.12-6.95c-2.1-6.58,0-16.27,0.09-21.75c0.09-2.83,0.55-12.16,0.64-16.82c0.18-3.02,0.46-5.21,0-12.34
		c-3.93,0.82-9.96,1.74-12.16,1.92c-4.75-1.1-9.41,0-14.44-4.39c0.82-2.1,1.37-2.74,3.47-4.02c6.67-4.02,21.3-5.76,30.07-6.76
		c5.67-0.64,15.35-0.82,17.09-1.01c4.57-0.09,7.13,0.64,10.42,1.37c2.38,3.29,4.11,4.94,4.84,10.42c-2.29,1.28-2.83,1.83-6.95,1.83
		c-3.02-2.29-11.52-1.74-18.83-1.1c0.18,4.11,0.09,8.13-0.18,11.42C365.89,66.47,365.61,79.54,365.52,83.74z"/>
	<path class="st0" d="M427.86,90.96c0.91-1.1,1.83-2.01,2.92-2.1c1.92,0,2.83,1.19,2.47,3.84c-0.82,5.94-6.22,11.79-11.79,14.81
		c-3.84,1.65-13.44-0.09-15.08-2.56c-5.58-8.68-1.65-23.67,0.09-33.73c-1.37,1.28-5.3,0.27-5.67-0.82
		c-0.82,0.82-3.93,13.8-5.21,17.37c-2.1,5.76-2.47,7.86-4.94,9.51c-1.28,0.91-7.86,2.65-8.23-0.64c2.65-3.02,4.75-7.59,8.13-21.3
		c1.1-4.57,0-19.01,4.02-19.38c6.03,0.27,6.58,4.02,10.33,4.66c6.58,1.1,8.41-3.47,13.44-3.66c2.83-0.09,5.12,4.84,4.75,8.32
		c-0.27,2.74-1.46,4.39-2.47,7.49c-2.1,6.49-4.39,15.72-3.56,21.94c0.55,4.11,4.3,2.65,6.58,0.73
		C425.3,94.07,426.4,92.61,427.86,90.96z"/>
	<path class="st0" d="M470.18,105.59c-2.56,1.28-5.48,1.74-8.59,1.74c-6.12,0-9.78-5.21-10.15-9.23
		c-3.38,3.75-10.15,8.41-15.54,8.41c-7.68,0-9.78-11.33-9.78-16.82c0-15.81,9.78-32.36,24.4-32.36c2.92,0,7.31,2.38,7.95,3.93
		c0.27-0.91,3.02-1.74,4.02-1.74c2.01,0,5.03,0.55,5.03,2.01c0,3.29-3.84,19.38-3.84,27.51c0,5.94,2.38,7.49,3.75,7.49
		c0.91,0,1.92-0.55,2.74-1.1c1.46-1.19,2.74-2.83,4.2-4.48c0.91-1.1,1.83-2.01,2.92-2.1c1.92,0,2.83,1.19,2.47,3.84
		C479.14,97.64,474.47,103.12,470.18,105.59z M453.27,73.42c0-1.46-0.91-3.84-1.92-3.84c-5.58,0.27-12.06,9.87-12.06,20.29
		c0,2.47,0.27,3.38,1.28,3.38c6.21,0,11.88-11.15,12.7-19.47V73.42z"/>
	<path class="st0" d="M489.65,105.59c-3.93,2.19-8.96,3.66-13.07,0.37c-2.29-1.83-4.3-6.31-4.75-10.33
		c-0.82-7.22,2.29-30.8,5.94-34.09c1.19-0.27,9.32,0.09,9.87,1.55c1.83,2.65-3.75,23.58-3.75,30.25c0.55,3.11,2.1,3.75,5.67,2.1
		c1.37-0.64,2.74-2.83,4.2-4.48c0.91-1.1,1.83-2.01,2.92-2.1c1.92,0,2.92,1.19,2.56,3.84C498.6,97.64,493.94,103.12,489.65,105.59z
		 M484.89,55.87c-3.75,0-5.12-2.65-5.12-4.57c0-3.66,2.47-5.58,5.67-5.58c2.74,0,4.94,2.92,4.94,5.12
		C490.38,53.4,487.91,55.87,484.89,55.87z"/>
	<path class="st0" d="M521.45,105.68c-3.29,2.19-7.59,3.66-12.98,3.75c-15.54,0.09-15.54-21.75-14.99-35.65
		c0.55-15.08,6.12-30.71,12.25-38.94c2.74-3.75,7.59-6.31,11.7-6.4c5.48-0.09,8.59,7.68,8.04,19.83
		c-0.82,17.37-8.87,32.45-18.28,42.32c0.82,4.2,1.92,7.95,6.76,7.86c1.37,0,5.3-0.91,7.59-3.02c1.46-1.19,2.74-2.83,4.2-4.48
		c0.91-1.1,1.83-2.01,2.92-2.1c1.92,0,2.83,1.19,2.47,3.84C530.5,97.73,525.75,102.76,521.45,105.68z M509.57,51.3
		c-2.92,7.59-4.84,19.83-4.02,27.05c4.48-5.39,9.32-16.91,11.24-27.6c0.73-4.11,0.18-10.15-0.91-10.79
		C513.87,42.07,511.49,46.64,509.57,51.3z"/>
	<path class="st0" d="M566.15,106.32c-3.11,0-7.31-1.28-10.33-3.38c-3.29,2.01-7.04,3.2-11.33,3.2c-3.75,0-6.67-1.37-8.87-3.47
		c0,1.1,0,2.19,0.09,3.2c-2.1,1.19-2.65,1.74-4.02,1.74c-0.64,0-1.92-0.09-3.2-0.37c-3.02-5.39-2.01-16.09-1.74-23.4
		c0.73-11.33,1.92-27.97,2.65-37.38c0.82-10.05,1.28-15.72,7.59-15.72c4.48,0,7.31,1.01,6.58,3.56
		c-2.74,10.05-3.84,20.11-4.75,29.34l-0.73,6.67c4.84-5.12,10.6-6.76,15.08-6.76c9.14,0,14.62,5.67,14.62,15.08
		c0,6.31-1.83,12.43-5.03,17.37c0.73,0.64,1.46,1.01,2.38,1.01c5.85,0,7.68-7.86,11.24-8.13c1.65,0,2.56,0.91,2.56,2.83
		c0,0.27-0.09,0.64-0.09,1.01C578.12,98.64,571.08,106.32,566.15,106.32z M549.97,73.78c-3.66,0-11.15,4.39-11.15,13.16
		c0,6.12,2.92,8.04,6.86,8.04c6.76,0,10.88-8.04,10.88-13.34C556.55,77.35,554.08,73.78,549.97,73.78z"/>
	<path class="st0" d="M601.16,105.68c-3.29,2.19-7.59,3.66-12.98,3.75c-15.54,0.09-15.54-21.75-14.99-35.65
		c0.55-15.08,6.12-30.71,12.25-38.94c2.74-3.75,7.59-6.31,11.7-6.4c5.48-0.09,8.59,7.68,8.04,19.83
		c-0.82,17.37-8.87,32.45-18.28,42.32c0.82,4.2,1.92,7.95,6.76,7.86c1.37,0,5.3-0.91,7.59-3.02c1.46-1.19,2.74-2.83,4.2-4.48
		c0.91-1.1,1.83-2.01,2.92-2.1c1.92,0,2.83,1.19,2.47,3.84C610.2,97.73,605.45,102.76,601.16,105.68z M589.27,51.3
		c-2.92,7.59-4.84,19.83-4.02,27.05c4.48-5.39,9.32-16.91,11.24-27.6c0.73-4.11,0.18-10.15-0.91-10.79
		C593.57,42.07,591.19,46.64,589.27,51.3z"/>
	<path class="st0" d="M647.77,105.59c-2.56,1.28-5.48,1.74-8.59,1.74c-6.12,0-9.78-5.21-10.15-9.23
		c-3.38,3.75-10.15,8.41-15.54,8.41c-7.68,0-9.78-11.33-9.78-16.82c0-15.81,9.78-32.36,24.4-32.36c2.93,0,7.31,2.38,7.95,3.93
		c0.27-0.91,3.02-1.74,4.02-1.74c2.01,0,5.03,0.55,5.03,2.01c0,3.29-3.84,19.38-3.84,27.51c0,5.94,2.38,7.49,3.75,7.49
		c0.91,0,1.92-0.55,2.74-1.1c1.46-1.19,2.74-2.83,4.2-4.48c0.91-1.1,1.83-2.01,2.93-2.1c1.92,0,2.83,1.19,2.47,3.84
		C656.73,97.64,652.07,103.12,647.77,105.59z M630.86,73.42c0-1.46-0.91-3.84-1.92-3.84c-5.58,0.27-12.06,9.87-12.06,20.29
		c0,2.47,0.27,3.38,1.28,3.38c6.21,0,11.88-11.15,12.7-19.47V73.42z"/>
	<path class="st0" d="M700.6,99.01c-3.2,1.92-34.28,10.05-38.39,10.33c-2.83,0.18-4.66-6.95-5.12-9.96
		c-0.37-2.29,20.02-28.7,20.02-28.7s-18.37,3.02-20.47,3.02s-3.84-2.28-3.84-3.84c0-1.55,0-4.57,1.83-5.76
		c1.83-1.19,31.35-5.58,34.82-4.66c3.47,0.91,3.11,6.31,3.38,9.14S674,96.81,674,96.81c4.57-0.46,20.75-3.75,25.68-5.76
		c4.39-0.27,5.58,0.18,5.58,2.56S702.15,98.09,700.6,99.01z"/>
	<path class="st0" d="M721.62,107.78c-11.88,0.18-22.3-8.68-22.85-22.03c-0.55-13.8,5.94-28.24,21.3-28.61
		c5.76-0.09,10.97,4.48,10.97,11.52c0,5.76-2.29,9.05-5.94,13.71c-3.11,3.84-7.31,8.41-9.51,10.05c1.55,3.66,4.75,5.48,8.77,5.39
		c6.12,0,9.32-2.92,12.89-6.85c0.91-1.1,1.83-2.01,2.92-2.1c1.92,0,3.11,1.28,2.47,3.84C740.08,103.03,730.95,107.6,721.62,107.78z
		 M719.52,66.38c-6.86-0.82-9.23,13.71-8.41,18.19c1.55-1.46,4.57-4.66,6.86-8.5c1.46-2.56,2.65-5.39,2.83-8.23
		C720.53,66.83,719.98,66.38,719.52,66.38z"/>
	<path class="st0" d="M776.83,90.96c0.91-1.1,1.83-2.01,2.92-2.1c1.92,0,2.83,1.19,2.47,3.84c-0.82,5.94-6.21,11.79-11.79,14.81
		c-3.84,1.65-13.44-0.09-15.08-2.56c-5.58-8.68-1.64-23.67,0.09-33.73c-1.37,1.28-5.3,0.27-5.67-0.82
		c-0.82,0.82-3.93,13.8-5.21,17.37c-2.1,5.76-2.47,7.86-4.94,9.51c-1.28,0.91-7.86,2.65-8.23-0.64c2.65-3.02,4.75-7.59,8.13-21.3
		c1.1-4.57,0-19.01,4.02-19.38c6.03,0.27,6.58,4.02,10.33,4.66c6.58,1.1,8.41-3.47,13.44-3.66c2.83-0.09,5.12,4.84,4.75,8.32
		c-0.27,2.74-1.46,4.39-2.47,7.49c-2.1,6.49-4.39,15.72-3.56,21.94c0.55,4.11,4.3,2.65,6.58,0.73
		C774.27,94.07,775.37,92.61,776.83,90.96z"/>
	<path class="st0" d="M863.21,47.37l-4.75,5.21c-2.26-2.01-4.83-3.55-7.72-4.62c-2.9-1.07-5.96-1.6-9.19-1.6
		c-7.92,0-13.89,2.47-17.92,7.4c-4.02,4.94-6.03,11.46-6.03,19.56c0,8.04,2.01,14.53,6.03,19.47c4.02,4.94,9.93,7.4,17.73,7.4
		c3.47,0,6.76-0.65,9.87-1.96c3.11-1.31,5.82-3.09,8.13-5.35l4.94,5.39c-2.8,2.8-6.2,5.01-10.19,6.63
		c-3.99,1.61-8.33,2.42-13.03,2.42c-6.76,0-12.54-1.43-17.32-4.3c-4.78-2.86-8.41-6.85-10.88-11.97s-3.7-11.03-3.7-17.73
		c0-6.7,1.23-12.61,3.7-17.73c2.47-5.12,6.11-9.09,10.92-11.93c4.81-2.83,10.63-4.25,17.46-4.25c4.33,0,8.38,0.69,12.16,2.06
		C857.2,42.84,860.46,44.81,863.21,47.37z"/>
	<path class="st0" d="M874.26,41.06h7.77v24.68h0.18c1.52-2.31,3.59-4.19,6.21-5.62c2.62-1.43,5.85-2.15,9.69-2.15
		c5.85,0,10.18,1.69,12.98,5.07c2.8,3.38,4.21,7.6,4.21,12.66v30.07h-7.77V77.25c0-3.72-0.91-6.78-2.74-9.19
		c-1.83-2.41-4.78-3.61-8.87-3.61c-4.2,0-7.57,1.39-10.1,4.16c-2.53,2.77-3.79,6.26-3.79,10.47v26.69h-7.77V41.06z"/>
	<path class="st0" d="M925.45,93.07c0-6.03,2.18-10.22,6.54-12.57c4.36-2.34,10.92-3.52,19.7-3.52c2.13,0,3.75,0.03,4.84,0.09v-2.65
		c0-3.47-0.95-6.06-2.83-7.77c-1.89-1.71-4.78-2.56-8.68-2.56c-4.94,0-9.6,1.31-13.99,3.93l-2.74-5.21
		c5.24-3.23,10.97-4.84,17.18-4.84c6.52,0,11.29,1.52,14.3,4.57c3.02,3.05,4.52,7.68,4.52,13.89v19.01c0,3.35,0.21,6.8,0.64,10.33
		h-7.13c-0.43-2.68-0.64-4.78-0.64-6.31h-0.27c-1.71,2.5-3.85,4.39-6.44,5.67c-2.59,1.28-5.93,1.92-10.01,1.92
		c-4.51,0-8.13-1.2-10.88-3.61C926.82,101.03,925.45,97.58,925.45,93.07z M956.53,88.59v-6.03l-4.11-0.09
		c-4.57,0-8.21,0.31-10.92,0.91c-2.71,0.61-4.72,1.65-6.03,3.11c-1.31,1.46-1.97,3.5-1.97,6.12c0,2.68,0.79,4.74,2.38,6.17
		c1.58,1.43,3.78,2.15,6.58,2.15c2.92,0,5.45-0.62,7.59-1.87c2.13-1.25,3.75-2.82,4.84-4.71C955.98,92.46,956.53,90.54,956.53,88.59
		z"/>
	<path class="st0" d="M987.24,41.06v64.71h-7.77V41.06H987.24z"/>
	<path class="st0" d="M1010.82,41.06v64.71h-7.77V41.06H1010.82z"/>
	<path class="st0" d="M1065.66,85.3h-34.55c0.3,4.75,1.74,8.53,4.3,11.33c2.56,2.8,6.22,4.2,10.97,4.2c2.8,0,5.32-0.38,7.54-1.14
		c2.22-0.76,4.46-1.9,6.72-3.43l3.47,5.03c-2.62,1.89-5.41,3.32-8.36,4.3c-2.96,0.97-6.23,1.46-9.83,1.46
		c-7.13,0-12.69-2.25-16.68-6.76c-3.99-4.51-5.99-10.51-5.99-18.01c0-4.81,0.85-9.05,2.56-12.71s4.19-6.5,7.45-8.55
		c3.26-2.04,7.17-3.06,11.75-3.06c6.76,0,11.93,2.19,15.49,6.58c3.56,4.39,5.35,10.21,5.35,17.46
		C1065.84,83.47,1065.78,84.57,1065.66,85.3z M1058.25,79.26c-0.12-4.63-1.31-8.35-3.56-11.15c-2.25-2.8-5.52-4.2-9.78-4.2
		c-4.33,0-7.68,1.45-10.05,4.34c-2.38,2.89-3.66,6.57-3.84,11.01H1058.25z"/>
	<path class="st0" d="M1078.18,69.67c0-3.41-0.21-6.89-0.64-10.42h7.4c0.3,1.65,0.52,3.84,0.64,6.58h0.18
		c1.52-2.38,3.66-4.28,6.4-5.71c2.74-1.43,6-2.15,9.78-2.15c5.85,0,10.19,1.69,13.03,5.07c2.83,3.38,4.25,7.6,4.25,12.66v30.07
		h-7.77V77.25c0-3.72-0.91-6.78-2.74-9.19c-1.83-2.41-4.78-3.61-8.87-3.61c-4.21,0-7.57,1.39-10.1,4.16
		c-2.53,2.77-3.79,6.26-3.79,10.47v26.69h-7.77V69.67z"/>
	<path class="st0" d="M1128.27,115.28c0-2.62,0.75-4.98,2.24-7.08c1.49-2.1,3.94-4.01,7.36-5.71c-2.99-1.34-4.48-3.38-4.48-6.12
		c0-1.65,0.59-3.11,1.78-4.39c1.19-1.28,2.85-2.22,4.98-2.83c-2.86-1.16-5.1-2.92-6.72-5.3c-1.62-2.38-2.42-5.39-2.42-9.05
		c0-5.18,1.71-9.26,5.12-12.25c3.41-2.98,8.17-4.48,14.26-4.48c1.65,0,3.03,0.09,4.16,0.27c1.13,0.18,2.48,0.49,4.07,0.91h16.18
		v6.22l-10.33-1.1c1.46,1.04,2.65,2.5,3.56,4.39c0.91,1.89,1.37,4.14,1.37,6.76c0,4.94-1.68,8.79-5.03,11.56
		c-3.35,2.77-8.04,4.16-14.08,4.16c-3.05,0-5.44,0.4-7.18,1.19c-1.74,0.79-2.6,1.89-2.6,3.29c0,2.5,2.96,3.78,8.87,3.84
		c8.59,0.12,14.82,1.27,18.69,3.43c3.87,2.16,5.8,5.44,5.8,9.83c0,5.24-2.18,9.29-6.54,12.16c-4.36,2.86-10.46,4.3-18.33,4.3
		c-6.83,0-11.99-1.22-15.49-3.66C1130.02,123.17,1128.27,119.72,1128.27,115.28z M1166.2,113.45c0-1.83-0.69-3.32-2.06-4.48
		c-1.37-1.16-3.7-2.04-6.99-2.65c-3.29-0.61-7.8-0.91-13.53-0.91c-2.74,1.22-4.72,2.6-5.94,4.16c-1.22,1.55-1.83,3.34-1.83,5.35
		c0,5.67,4.48,8.5,13.44,8.5c5.54,0,9.75-0.85,12.61-2.56C1164.77,119.15,1166.2,116.68,1166.2,113.45z M1162.18,74.88
		c0-3.35-1-6.03-3.02-8.04c-2.01-2.01-5-3.02-8.96-3.02c-3.66,0-6.57,0.98-8.73,2.92c-2.16,1.95-3.25,4.57-3.25,7.86
		c0,3.47,0.99,6.19,2.97,8.14c1.98,1.95,4.98,2.92,9,2.92C1158.19,85.66,1162.18,82.07,1162.18,74.88z"/>
	<path class="st0" d="M1222.96,85.3h-34.55c0.3,4.75,1.74,8.53,4.3,11.33c2.56,2.8,6.22,4.2,10.97,4.2c2.8,0,5.32-0.38,7.54-1.14
		c2.22-0.76,4.46-1.9,6.72-3.43l3.47,5.03c-2.62,1.89-5.41,3.32-8.36,4.3c-2.96,0.97-6.23,1.46-9.83,1.46
		c-7.13,0-12.69-2.25-16.68-6.76c-3.99-4.51-5.99-10.51-5.99-18.01c0-4.81,0.85-9.05,2.56-12.71s4.19-6.5,7.45-8.55
		c3.26-2.04,7.17-3.06,11.75-3.06c6.76,0,11.93,2.19,15.49,6.58c3.56,4.39,5.35,10.21,5.35,17.46
		C1223.14,83.47,1223.08,84.57,1222.96,85.3z M1215.56,79.26c-0.12-4.63-1.31-8.35-3.56-11.15c-2.25-2.8-5.52-4.2-9.78-4.2
		c-4.33,0-7.68,1.45-10.05,4.34c-2.38,2.89-3.66,6.57-3.84,11.01H1215.56z"/>
</g>
</svg>
