<svg width="66" height="67" viewBox="0 0 80 82" aria-hidden="true" color="#fff">
    <path d="M0.00703842 80.2132L80.2202 80.2132L80.2202 0L56.566 0L0.00703842 80.2132Z" fill="black"/>
    <path d="M75.5328 65.133C73.5511 72.9263 68.2032 72.1654 68.2032 72.1654C64.5362 71.862 62.8562 72.9325 62.8562 72.9325C59.9544 74.9204 61.1753 72.4751 61.1753 72.4751C62.8544 69.8768 65.757 69.4167 65.757 69.4167C71.2571 69.108 71.8658 64.8296 71.8649 63.3018" fill="white" class="octo-arm"/>
    <path d="M80.2708 70.1725C80.2708 70.1725 80.5752 68.0334 79.5056 67.8812L71.4054 63.4552C69.5714 62.5395 68.654 61.3178 68.8062 60.2482C64.9897 65.5979 59.4922 70.4902 49.7111 65.6068C46.6545 64.0808 44.9728 62.0955 44.0544 59.3459C43.1379 59.652 40.3874 59.0425 37.3299 55.9886C37.3299 55.9886 37.9395 53.2381 43.4378 49.8736C44.5524 45.0176 46.9203 40.5385 50.3055 36.8829C49.0793 30.161 51.0645 28.4792 51.0645 28.4792C55.1898 28.6296 57.4829 30.92 58.2473 31.6835C60.5386 30.9183 63.5943 30.9165 66.6509 32.4425C76.432 37.326 75.8252 44.66 73.2313 50.6201C74.6061 50.161 76.5922 50.007 79.0375 51.2279L86.3733 54.8905C86.9847 55.1957 88.5116 53.6669 88.5116 53.6669L80.2708 70.1725Z" fill="white"/>
</svg>