<svg width="79" height="79" viewBox="0 0 79 79" fill="none" xmlns="http://www.w3.org/2000/svg">
<path d="M31.7336 60.6269C22.8638 62.5911 20.9115 56.809 20.9115 56.809C19.3527 52.9553 17.4183 51.8048 17.4183 51.8048C13.9371 49.8884 17.0249 49.8764 17.0249 49.8764C20.5001 50.249 22.4405 52.9433 22.4405 52.9433C25.5491 58.335 30.1748 56.7731 31.7157 55.9952" fill="white"/>
<path d="M29.0599 67.9696C29.0599 67.9696 31.3727 67.1887 30.9823 66.0323L31.3279 55.6096C31.3189 53.2937 32.0849 51.7469 33.2413 51.3564C25.9034 50.2269 18.172 47.169 18.1242 34.8179C18.1093 30.9582 19.2567 28.2519 21.5636 25.9271C20.7887 25.1582 20.0048 22.0734 21.5307 17.4358C21.5307 17.4358 24.6155 16.6519 30.806 20.4877C36.2718 19.1425 41.9947 19.2535 47.4043 20.8094C53.5619 16.1539 56.2682 17.3013 56.2682 17.3013C58.2144 21.5395 57.07 25.0178 56.6885 26.1772C58.6258 28.0996 60.1816 31.1814 60.1966 35.0411C60.2444 47.3921 52.5369 50.5098 45.2049 50.9241C46.3673 52.0776 47.5327 54.0029 47.5447 57.0907L47.5805 66.354C47.5835 67.126 49.9023 67.889 49.9023 67.889L29.0599 67.9696Z" fill="white"/>
</svg>
