<?xml version="1.0" encoding="UTF-8" standalone="no"?>
<svg width="14px" height="21px" viewBox="0 0 14 21" version="1.1" xmlns="http://www.w3.org/2000/svg" xmlns:xlink="http://www.w3.org/1999/xlink">
    <!-- Generator: Sketch 42 (36781) - http://www.bohemiancoding.com/sketch -->
    <title>Locked_grey</title>
    <desc>Created with Sketch.</desc>
    <defs></defs>
    <g id="Symbols" stroke="none" stroke-width="1" fill="none" fill-rule="evenodd">
        <g id="Map,-Quests-&amp;-Tents" transform="translate(-965.000000, -231.000000)" fill="#464646">
            <g id="Coding-Valley-Quests" transform="translate(834.000000, 224.000000)">
                <g id="Locked" transform="translate(120.000000, 0.000000)">
                    <path d="M17.9783721,14.0432559 C14.1238834,14.0432559 11,17.1675439 11,21.0216279 C11,24.875712 14.1238834,28 17.9783721,28 C21.8324561,28 24.9567441,24.875712 24.9567441,21.0216279 C24.9567441,17.1675439 21.8324561,14.0432559 17.9783721,14.0432559 Z M18.8125404,21.0483278 L18.8125404,23.2340753 C18.8125404,23.6952547 18.4395514,24.0682436 17.9783721,24.0682436 C17.5167881,24.0682436 17.1437992,23.6952547 17.1437992,23.2340753 L17.1437992,21.0483278 C16.7930602,20.7910383 16.5624705,20.3784041 16.5624705,19.9091339 C16.5624705,19.1267471 17.1959853,18.4932323 17.9783721,18.4932323 C18.7603543,18.4932323 19.3942736,19.1267471 19.3942736,19.9091339 C19.3942736,20.3784041 19.1632794,20.7910383 18.8125404,21.0483278 Z M14.5648356,11.2430071 C14.5648356,9.98811379 15.5854984,8.96745102 16.8403917,8.96745102 L19.1159478,8.96745102 C20.3708412,8.96745102 21.3915039,9.98811379 21.3915039,11.2430071 L21.3915039,13.9089475 C21.9352101,14.1694734 22.4425074,14.4935126 22.9085413,14.8665015 L22.9085413,11.2430071 C22.9085413,9.15232731 21.2066276,7.45041362 19.1159478,7.45041362 L16.8403917,7.45041362 C14.7497119,7.45041362 13.0477982,9.15232731 13.0477982,11.2430071 L13.0477982,14.8648834 C13.5138321,14.4918944 14.0211294,14.1678552 14.5648356,13.9073293 L14.5648356,11.2430071 Z" id="Locked_grey"></path>
                </g>
            </g>
        </g>
    </g>
</svg>