<svg width="14" height="21" viewBox="0 0 14 21" fill="none" xmlns="http://www.w3.org/2000/svg">
<path fill-rule="evenodd" clip-rule="evenodd" d="M6.97837 7.04328C3.12388 7.04328 0 10.1676 0 14.0217C0 17.8757 3.12388 21 6.97837 21C10.8325 21 13.9567 17.8757 13.9567 14.0217C13.9567 10.1676 10.8325 7.04328 6.97837 7.04328ZM7.81254 14.0484V16.2341C7.81254 16.6953 7.43955 17.0683 6.97837 17.0683C6.51679 17.0683 6.1438 16.6953 6.1438 16.2341V14.0484C5.79306 13.7911 5.56247 13.3784 5.56247 12.9092C5.56247 12.1268 6.19599 11.4933 6.97837 11.4933C7.76035 11.4933 8.39427 12.1268 8.39427 12.9092C8.39427 13.3784 8.16328 13.7911 7.81254 14.0484ZM3.56484 4.24303C3.56484 2.98814 4.5855 1.96748 5.84039 1.96748H8.11595C9.37084 1.96748 10.3915 2.98814 10.3915 4.24303V6.90897C10.9352 7.1695 11.4425 7.49354 11.9085 7.86653V4.24303C11.9085 2.15235 10.2066 0.450439 8.11595 0.450439H5.84039C3.74971 0.450439 2.0478 2.15235 2.0478 4.24303V7.86491C2.51383 7.49192 3.02113 7.16788 3.56484 6.90736V4.24303Z" fill="white"/>
</svg>
