<?xml version="1.0" encoding="UTF-8" standalone="no"?>
<svg width="21px" height="16px" viewBox="0 0 21 16" version="1.1" xmlns="http://www.w3.org/2000/svg" xmlns:xlink="http://www.w3.org/1999/xlink">
    <!-- Generator: Sketch 41.2 (35397) - http://www.bohemiancoding.com/sketch -->
    <title>Page 1</title>
    <desc>Created with Sketch.</desc>
    <defs></defs>
    <g id="Welcome" stroke="none" stroke-width="1" fill="none" fill-rule="evenodd">
        <g id="Map" transform="translate(-1397.000000, -22.000000)" fill="#FFFFFF">
            <g id="Header" transform="translate(0.000000, -4.000000)">
                <g id="Profile" transform="translate(1248.000000, 14.000000)">
                    <g id="Page-1" transform="translate(149.000000, 12.000000)">
                        <path d="M20.7288261,7.94233962 L20.7288261,7.94233962 C19.4569565,6.78641509 18.186,5.62867925 16.9043913,4.48241509 C16.9031739,4.80784906 16.9019565,5.76875472 16.9007391,6.88332075 L10.3526957,6.88332075 L10.3526957,9.1154717 L16.9007391,9.1154717 C16.9007391,10.2312453 16.9031739,11.1921509 16.9056087,11.5175849 C18.1680435,10.3984906 19.4082609,9.25343396 20.6636957,8.12498113 C20.7136087,8.07184906 20.8359565,8.00241509 20.7288261,7.94233962 L20.7288261,7.94233962 Z" id="Fill-1"></path>
                        <path d="M8.10326087,13.5800755 C5.00043478,13.5800755 2.47769565,11.0756226 2.47769565,8 C2.47769565,4.9234717 5.00043478,2.41992453 8.10326087,2.41992453 C9.933,2.41992453 11.5463478,3.30415094 12.5744348,4.65207547 L15.2067391,4.65207547 C13.9382174,2.01781132 11.235913,0.188679245 8.10326087,0.188679245 C3.76143478,0.188679245 0.22826087,3.69207547 0.22826087,8 C0.22826087,12.306717 3.76143478,15.8125283 8.10326087,15.8125283 C11.235913,15.8125283 13.9382174,13.9809811 15.2067391,11.3491321 L12.5744348,11.3491321 C11.5463478,12.6946415 9.933,13.5800755 8.10326087,13.5800755 L8.10326087,13.5800755 Z" id="Fill-2"></path>
                    </g>
                </g>
            </g>
        </g>
    </g>
</svg>