<?xml version="1.0" encoding="utf-8"?>
<!-- Generator: Adobe Illustrator 21.0.0, SVG Export Plug-In . SVG Version: 6.00 Build 0)  -->
<svg version="1.1" id="Layer_1" xmlns="http://www.w3.org/2000/svg" xmlns:xlink="http://www.w3.org/1999/xlink" x="0px" y="0px"
	 viewBox="0 0 18 21" style="enable-background:new 0 0 18 21;" xml:space="preserve">
<style type="text/css">
	.st0{fill:#FFFFFF;}
</style>
<title>MakerMount</title>
<desc>Created with Sketch.</desc>
<g id="Symbols">
	<g id="Map_x2C_-Quests-_x26_-Tents" transform="translate(-443.000000, -114.000000)">
		<g id="Makers-Mount-Quests" transform="translate(84.000000, 26.000000)">
			<g id="Group" transform="translate(350.000000, 79.000000)">
				<g id="MakerMount" transform="translate(9.000000, 9.000000)">
					<path id="Fill-1" class="st0" d="M14.2,0.3c-1.5,1.5-3.5,2.4-5.6,2.5s-4.1,1-5.6,2.5L2.8,5.4l3.5,7.3l0.1-0.1
						c1.5-1.5,3.5-2.4,5.6-2.5c2.1-0.1,4.1-1,5.6-2.5l0.1-0.1l-3.5-7.3L14.2,0.3z"/>
					<path id="Fill-2" class="st0" d="M1.5,5C1.3,4.6,0.9,4.5,0.6,4.7C0.2,4.8,0.1,5.2,0.3,5.5l7.1,15c0.1,0.2,0.3,0.4,0.6,0.4
						c0.1,0,0.2,0,0.3-0.1c0.3-0.2,0.5-0.5,0.3-0.9L1.5,5z"/>
				</g>
			</g>
		</g>
	</g>
</g>
</svg>
