<svg width="30" height="30" viewBox="0 0 30 30" fill="none" xmlns="http://www.w3.org/2000/svg">
<path d="M25.625 5.62583L25.625 11.2508C25.625 11.9387 25.0625 12.5012 24.3746 12.5012C23.6867 12.5012 23.1242 11.9387 23.1242 11.2508L23.1242 8.62583L18.3746 13.3754C17.8742 13.8758 17.1242 13.8758 16.625 13.3754C16.1246 12.875 16.1246 12.125 16.625 11.6258L21.3758 6.87623L18.7508 6.87623C18.0629 6.87623 17.5004 6.31373 17.5004 5.62583C17.5004 4.93793 18.0629 4.37543 18.7508 4.37543L24.3758 4.37543C25.0625 4.37661 25.625 4.9391 25.625 5.62583Z" fill="white"/>
<path d="M6.87648 11.2508C6.87648 11.9387 6.31398 12.5012 5.62608 12.5012C4.93935 12.5012 4.37685 11.9387 4.37568 11.2508L4.37568 5.62583C4.37568 4.93793 4.93818 4.37543 5.62608 4.37543L11.2511 4.37543C11.939 4.37543 12.5015 4.93793 12.5015 5.62583C12.5015 6.31373 11.939 6.87623 11.2511 6.87623L8.62608 6.87623L13.3757 11.6258C13.8761 12.125 13.8761 12.875 13.3757 13.3754C12.8765 13.8758 12.1265 13.8758 11.6261 13.3754L6.87648 8.62583L6.87648 11.2508Z" fill="white"/>
<path d="M11.2511 25.6255L5.62608 25.6255C4.93935 25.6255 4.37682 25.063 4.37565 24.3763L4.37565 18.7513C4.37565 18.0634 4.93815 17.5009 5.62605 17.5009C6.31395 17.5009 6.87645 18.0634 6.87645 18.7513L6.87645 21.3751L11.626 16.6255C11.8768 16.3759 12.1885 16.2505 12.5014 16.2505C12.8143 16.2505 13.1261 16.3759 13.3757 16.6255C13.8761 17.1247 13.8761 17.8747 13.3757 18.3751L8.62608 23.1247L11.2511 23.1247C11.939 23.1247 12.5015 23.6872 12.5015 24.3751C12.5015 25.063 11.939 25.6255 11.2511 25.6255Z" fill="white"/>
<path d="M18.7516 23.1247L21.3766 23.1247L16.6258 18.3739C16.1254 17.8747 16.1254 17.1247 16.6258 16.6243C16.8766 16.3747 17.1883 16.2493 17.5012 16.2493C17.8141 16.2493 18.1258 16.3747 18.3766 16.6255L23.1262 21.3751L23.1262 18.7501C23.1262 18.0622 23.6887 17.4997 24.3766 17.4997C25.0645 17.4997 25.627 18.0622 25.627 18.7501L25.627 24.3751C25.627 25.063 25.0645 25.6255 24.3766 25.6255L18.7516 25.6255C18.0637 25.6255 17.5012 25.063 17.5012 24.3751C17.5012 23.6872 18.0637 23.1247 18.7516 23.1247Z" fill="white"/>
</svg>
