<?xml version="1.0" encoding="UTF-8"?>
<svg fill="#FFFFFF" width="30px" height="30px" version="1.1" viewBox="0 0 100 100" xmlns="http://www.w3.org/2000/svg">
 <path d="m54.168 41.668v-18.75c0-2.293 1.875-4.168 4.168-4.168 2.293 0 4.168 1.875 4.168 4.168v8.75l15.832-15.832c1.668-1.668 4.168-1.668 5.832 0 1.668 1.668 1.668 4.168 0 5.832l-15.836 15.832h8.75c2.293 0 4.168 1.875 4.168 4.168s-1.875 4.168-4.168 4.168h-18.75c-2.2891-0.003907-4.1641-1.8789-4.1641-4.168zm-12.5-22.918c-2.293 0-4.168 1.875-4.168 4.168v8.75l-15.832-15.832c-1.668-1.668-4.168-1.668-5.832 0-1.668 1.668-1.668 4.168 0 5.832l15.832 15.832h-8.75c-2.293 0-4.168 1.875-4.168 4.168s1.875 4.168 4.168 4.168h18.75c2.293 0 4.168-1.875 4.168-4.168v-18.75c-0.003907-2.293-1.8789-4.168-4.168-4.168zm26.664 43.75h8.75c2.293 0 4.168-1.875 4.168-4.168s-1.875-4.168-4.168-4.168h-18.75c-2.293 0-4.168 1.875-4.168 4.168v18.75c0 2.293 1.875 4.168 4.168 4.168s4.168-1.875 4.168-4.168v-8.75l15.832 15.832c0.83594 0.83594 1.875 1.2539 2.918 1.2539s2.082-0.41797 2.918-1.25c1.668-1.668 1.668-4.168 0-5.832zm-26.664-8.332h-18.75c-2.293 0-4.168 1.875-4.168 4.168 0 2.293 1.875 4.168 4.168 4.168h8.75l-15.832 15.832c-1.668 1.668-1.668 4.168 0 5.832 0.83203 0.83203 1.8711 1.25 2.9141 1.25s2.082-0.41797 2.918-1.25l15.832-15.832v8.7461c0 2.293 1.875 4.168 4.168 4.168s4.168-1.875 4.168-4.168v-18.75c-0.003907-2.2891-1.8789-4.1641-4.168-4.1641z"/>
</svg>
