<svg width="16" height="16" viewBox="0 0 16 16" fill="none" xmlns="http://www.w3.org/2000/svg">
<path d="M5.54549 3.1001H3.45883C2.62417 3.1001 1.92839 3.7261 1.71973 4.49163V4.83919V5.18674C1.85862 5.95163 2.55439 6.57763 3.45883 6.57763L3.80639 6.57828H5.54483C6.37949 6.57828 7.07527 5.95228 7.28393 5.1874V4.83984V4.49229C7.07527 3.7261 6.38014 3.1001 5.54549 3.1001V3.1001Z" fill="white"/>
<path d="M3.80664 14.2292C3.80664 14.5767 4.15419 14.925 4.50242 14.925C4.84997 14.925 5.19819 14.5774 5.19819 14.2292L5.19754 7.27344H3.80666L3.80664 14.2292Z" fill="white"/>
<path d="M5.19755 1.7092C5.19755 1.36165 4.84999 1.01343 4.50177 1.01343C4.15421 1.01343 3.80664 1.36163 3.80664 1.7092V2.40498H5.19753L5.19755 1.7092Z" fill="white"/>
<path d="M14.24 9.36013C14.1011 8.59524 13.4053 7.96924 12.5009 7.96924H10.4149C9.58022 7.96924 8.88445 8.59524 8.67578 9.36013V9.70768V10.0552C8.81467 10.8201 9.51045 11.4461 10.4149 11.4461L10.7624 11.4468H12.5009C13.3355 11.4468 14.0313 10.8208 14.24 10.0559V9.70834V9.36013V9.36013Z" fill="white"/>
<path d="M10.7617 14.2292C10.7617 14.5768 11.1093 14.925 11.4575 14.925C11.805 14.925 12.1533 14.5775 12.1533 14.2292V12.1426H10.7624L10.7617 14.2292Z" fill="white"/>
<path d="M12.1533 1.7092C12.1533 1.36165 11.8057 1.01343 11.4575 1.01343C11.1099 1.01343 10.7617 1.36098 10.7617 1.7092V7.27341H12.1526L12.1533 1.7092Z" fill="white"/>
</svg>
