<svg width="668" height="295" viewBox="0 0 668 295" fill="none" xmlns="http://www.w3.org/2000/svg">
<path d="M132.5 85.125C133 81.5 131.75 79.875 129.125 79.875C127.625 80 126.375 81.25 125.125 82.75C119.875 89 116.75 91.625 114.5 91.625C107.5 91.625 109.625 77.5 110.125 70.125C110.625 62.875 112.625 46.875 111 44.75C108.625 41.625 101.625 38 98.625 37.75C95.375 37.5 88.375 43 82.5 50.5C82.5 48.375 82.25 46.625 81.875 45.5C80.875 42.75 70.75 37.25 68.625 37.625C64.75 38.375 54.875 45.875 48.5 55.75C48.5 52.125 50.25 41 48.5 40.625C43.75 39.75 33.375 41.5 32 42.75C30.75 44.375 31.25 56.25 31.125 63.625C30.375 78 28.125 94.375 32.875 103.125C38.375 104.125 41.5 103.375 45.625 101.125C47 91.125 47.625 80.125 50.75 72.5C52.875 67.625 57.25 59.875 62.375 57.125C63.875 57 64 61.75 63.75 63.75C63.125 73.375 61.25 99 63.625 101.875C65.375 104 76.25 102 78.125 101.25C79.375 97.625 79.375 86.375 80.125 77.125C82.125 69.375 86 60.875 91.875 56.875C93.375 56.75 93.75 61.5 93.5 63.5C93.375 73.125 92.625 93.375 94.75 97.75C96.125 100.625 100.5 104.625 105.375 104.625C110.625 104.625 114.75 104 118.5 103C124.25 101.375 131.875 90.375 132.5 85.125ZM192.462 85.125C192.962 81.5 191.712 79.875 189.087 79.875C187.587 80 186.337 81.25 185.087 82.75C183.212 84.875 178.087 92.25 175.212 91.75C174.087 91.5 172.962 90.25 171.837 87.125C169.462 80.375 174.587 45.625 173.587 43.375C172.587 40.25 167.462 40 164.212 40C161.212 40 156.212 41.375 156.212 45C154.587 65.25 154.587 74.875 153.962 79.875C152.087 82.375 145.087 87.5 142.462 86.125C139.212 80.5 145.337 48.125 147.337 42.375C144.337 38.5 133.337 39.75 130.337 41.125C126.337 44.75 123.337 72 123.337 79.5C123.337 84.875 123.587 93.125 126.337 98.375C127.962 101.5 133.462 104.125 137.087 104.25C143.212 104.375 151.087 98.125 155.087 92.75C156.212 96.875 159.962 105.125 174.087 104.625C179.587 104.375 191.337 94.125 192.462 85.125ZM179.396 88.875C177.021 90.75 175.646 95 175.646 98.375C175.646 100.875 176.521 103 178.271 103C181.771 103 187.646 96 189.896 92C197.771 103.5 208.271 106.125 218.521 106.125C224.021 106.125 229.146 104.875 233.896 102.75C240.396 99.125 247.146 90.875 247.146 83.75C247.146 81.125 245.896 79.875 243.646 79.875C239.646 80.25 239.021 86.375 231.521 90.125C231.771 88.75 232.396 86.875 232.396 84.5C232.396 75.25 221.646 58.5 216.396 47.25C215.271 44.875 215.896 40.875 213.771 39.375C212.146 38.25 211.021 37.5 209.146 37.5C205.146 37.5 202.021 39.375 200.646 41C197.896 41.125 195.396 40.75 195.146 43.875C193.771 56.75 189.521 78.125 179.396 88.875ZM211.646 84.25C210.771 87 207.896 88.125 205.021 86.125C202.896 84.75 199.646 81.625 199.146 79.25C200.521 75.75 203.271 67 204.146 61.875C208.521 67.25 213.271 79.125 211.646 84.25ZM261.586 27.875C261.586 24.875 258.586 20.875 254.836 20.875C250.461 20.875 247.086 23.5 247.086 28.5C247.086 31.125 248.961 34.75 254.086 34.75C258.211 34.75 261.586 31.375 261.586 27.875ZM273.711 85.125C274.211 81.5 272.836 79.875 270.211 79.875C268.711 80 267.461 81.25 266.211 82.75C264.211 85 262.336 88 260.461 88.875C255.586 91.125 253.461 90.25 252.711 86C252.711 76.875 260.336 48.25 257.836 44.625C257.086 42.625 245.961 42.125 244.336 42.5C239.336 47 235.086 79.25 236.211 89.125C236.836 94.625 239.586 100.75 242.711 103.25C248.336 107.75 255.211 105.75 260.586 102.75C266.461 99.375 272.836 91.875 273.711 85.125ZM322.947 85.125C323.447 81.5 322.197 79.875 319.572 79.875C318.072 80 316.822 81.25 315.572 82.75C313.572 85 311.822 87.25 309.822 88.875C306.572 92.125 301.197 93 296.947 93C287.447 93 281.947 81.625 281.947 71.125C281.947 63.25 283.447 50.375 289.947 50.375C290.572 50.375 292.322 50.125 292.822 52.5C292.822 53.25 292.697 53.875 292.697 54.5C292.697 60.125 294.322 64.125 300.197 64.5C306.322 64.5 307.197 58.5 307.197 55.625C307.197 44.625 298.572 37.375 287.947 37.375C273.697 37.375 263.947 53 263.947 72C263.947 88.375 271.072 106.125 292.822 106.125C298.572 106.125 305.947 105.125 309.822 102.75C315.697 99.375 322.072 91.875 322.947 85.125Z" fill="#032D60"/>
<path d="M385.288 29.68L382.168 38.936C380.504 38.4507 378.597 38.208 376.448 38.208C370.416 38.208 367.4 41.12 367.4 46.944V49.44H380.192V59.32H367.4V103H354.4V59.32H345.56V51L354.4 49.44V46.528C354.4 40.704 356.029 36.1627 359.288 32.904C362.616 29.6453 367.677 27.9813 374.472 27.912C378.355 27.912 381.96 28.5013 385.288 29.68ZM442.012 75.752C442.012 81.368 440.868 86.36 438.58 90.728C436.361 95.0267 433.103 98.3893 428.804 100.816C424.575 103.243 419.583 104.456 413.828 104.456C408.073 104.456 403.081 103.243 398.852 100.816C394.623 98.32 391.364 94.9227 389.076 90.624C386.857 86.256 385.748 81.2987 385.748 75.752C385.748 70.0667 386.857 65.1093 389.076 60.88C391.295 56.6507 394.484 53.3573 398.644 51C402.873 48.6427 407.935 47.464 413.828 47.464C419.721 47.464 424.783 48.6427 429.012 51C433.241 53.3573 436.465 56.6507 438.684 60.88C440.903 65.1093 442.012 70.0667 442.012 75.752ZM399.268 75.752C399.268 81.2987 400.412 85.7707 402.7 89.168C405.057 92.496 408.801 94.16 413.932 94.16C419.063 94.16 422.807 92.496 425.164 89.168C427.521 85.7707 428.7 81.2987 428.7 75.752C428.7 70.2747 427.521 65.9413 425.164 62.752C422.807 59.4933 419.028 57.864 413.828 57.864C408.697 57.864 404.988 59.4933 402.7 62.752C400.412 65.9413 399.268 70.2747 399.268 75.752ZM454.792 61.296C454.792 58.6613 454.48 54.536 453.856 48.92H466.336C466.821 51.832 467.098 54.328 467.168 56.408H467.376C470.565 50.4453 475.904 47.464 483.392 47.464C484.64 47.464 485.749 47.6027 486.72 47.88L486.2 59.112C485.16 58.904 483.842 58.8 482.248 58.8C477.672 58.8 474.101 60.2907 471.536 63.272C469.04 66.2533 467.792 70.032 467.792 74.608V103H454.792V61.296Z" fill="#0D9DDA"/>
<path fill-rule="evenodd" clip-rule="evenodd" d="M208.277 174.858C215.635 191.37 206.828 211.291 188.565 219.43C170.301 227.569 155.221 218.294 147.862 201.781C140.504 185.269 143.688 167.854 161.953 159.714C180.216 151.575 200.918 158.346 208.277 174.858V174.858Z" fill="#0D9DDA"/>
<path fill-rule="evenodd" clip-rule="evenodd" d="M143.997 226.419L38.4166 266.312C33.0237 259.877 29.5791 252.147 28.3968 243.828L128.499 191.643C130.461 205.501 135.003 215.693 143.997 226.419L143.997 226.419ZM122.278 215.47C123.372 217.926 122.397 220.468 119.942 221.562L106.596 227.509C104.489 228.448 101.599 227.629 100.504 225.173C99.41 222.717 100.733 220.021 102.84 219.082L116.186 213.134C118.642 212.04 121.183 213.015 122.278 215.47Z" fill="#0D9DDA"/>
<path d="M210 153.44L201.12 163.52C198.4 161.2 195.28 159.4 191.76 158.12C188.24 156.84 184.56 156.2 180.72 156.2C171.44 156.2 164.6 159.04 160.2 164.72C155.8 170.32 153.6 177.88 153.6 187.4C153.6 196.76 155.8 204.28 160.2 209.96C164.6 215.56 171.32 218.36 180.36 218.36C184.6 218.36 188.52 217.6 192.12 216.08C195.72 214.48 198.88 212.4 201.6 209.84L211.08 220.16C207.48 223.76 202.96 226.68 197.52 228.92C192.16 231.16 186.28 232.28 179.88 232.28C170.84 232.28 163.12 230.4 156.72 226.64C150.32 222.8 145.48 217.52 142.2 210.8C138.92 204 137.28 196.2 137.28 187.4C137.28 178.44 138.92 170.6 142.2 163.88C145.56 157.16 150.44 151.96 156.84 148.28C163.32 144.52 171.08 142.64 180.12 142.64C186.04 142.64 191.64 143.6 196.92 145.52C202.2 147.44 206.56 150.08 210 153.44ZM293.728 230H277.888V192.68H238.648V230H222.928V145.04H238.648V180.08H277.888V145.04H293.728V230ZM360.691 211.64H326.131L319.291 230H302.851L335.491 145.04H351.691L384.211 230H367.171L360.691 211.64ZM330.331 199.64H356.611L343.531 161.12L330.331 199.64ZM393.553 145.04H411.433L453.433 208.4H453.673L453.313 145.04H467.833V230H449.953L407.953 166.52H407.713L408.193 230H393.553V145.04ZM482.749 187.4C482.749 178.52 484.429 170.72 487.789 164C491.229 157.28 496.189 152.08 502.669 148.4C509.149 144.64 516.909 142.76 525.949 142.76C531.869 142.76 537.469 143.72 542.749 145.64C548.029 147.56 552.389 150.2 555.829 153.56L546.949 163.64C544.229 161.32 541.069 159.52 537.469 158.24C533.949 156.88 530.309 156.2 526.549 156.2C517.189 156.2 510.229 159.04 505.669 164.72C501.109 170.32 498.829 177.88 498.829 187.4C498.829 208.6 507.989 219.2 526.309 219.2C532.229 219.2 537.909 218.04 543.349 215.72V196.76H525.949V184.76H557.869V224.24C548.269 229.6 537.669 232.28 526.069 232.28C516.709 232.28 508.789 230.4 502.309 226.64C495.829 222.88 490.949 217.64 487.669 210.92C484.389 204.2 482.749 196.36 482.749 187.4ZM629.771 157.64H591.851V180.32H624.251V192.44H591.851V217.16H631.811V230H576.131V145.04H629.771V157.64Z" fill="#032D60"/>
<path d="M210 153.44L211.501 154.762L212.756 153.337L211.397 152.009L210 153.44ZM201.12 163.52L199.822 165.042L201.32 166.319L202.621 164.842L201.12 163.52ZM191.76 158.12L192.443 156.24L191.76 158.12ZM160.2 164.72L161.773 165.956L161.781 165.945L160.2 164.72ZM160.2 209.96L158.619 211.185L158.627 211.196L160.2 209.96ZM192.12 216.08L192.898 217.923L192.915 217.915L192.932 217.908L192.12 216.08ZM201.6 209.84L203.073 208.487L201.703 206.996L200.229 208.384L201.6 209.84ZM211.08 220.16L212.494 221.574L213.85 220.219L212.553 218.807L211.08 220.16ZM197.52 228.92L196.758 227.071L196.749 227.075L197.52 228.92ZM156.72 226.64L155.691 228.355L155.699 228.36L155.707 228.364L156.72 226.64ZM142.2 210.8L140.399 211.669L140.403 211.677L142.2 210.8ZM142.2 163.88L140.411 162.986L140.407 162.994L140.403 163.003L142.2 163.88ZM156.84 148.28L157.837 150.014L157.844 150.01L156.84 148.28ZM196.92 145.52L197.603 143.64L196.92 145.52ZM208.499 152.118L199.619 162.198L202.621 164.842L211.501 154.762L208.499 152.118ZM202.418 161.998C199.508 159.516 196.177 157.598 192.443 156.24L191.077 160C194.383 161.202 197.292 162.884 199.822 165.042L202.418 161.998ZM192.443 156.24C188.699 154.879 184.787 154.2 180.72 154.2V158.2C184.333 158.2 187.781 158.801 191.077 160L192.443 156.24ZM180.72 154.2C171.018 154.2 163.504 157.189 158.619 163.495L161.781 165.945C165.696 160.891 171.862 158.2 180.72 158.2V154.2ZM158.627 163.484C153.87 169.539 151.6 177.582 151.6 187.4H155.6C155.6 178.178 157.73 171.101 161.773 165.956L158.627 163.484ZM151.6 187.4C151.6 197.068 153.875 205.061 158.619 211.185L161.781 208.735C157.725 203.499 155.6 196.451 155.6 187.4H151.6ZM158.627 211.196C163.506 217.405 170.887 220.36 180.36 220.36V216.36C171.753 216.36 165.694 213.715 161.773 208.724L158.627 211.196ZM180.36 220.36C184.844 220.36 189.031 219.555 192.898 217.923L191.342 214.238C188.009 215.645 184.356 216.36 180.36 216.36V220.36ZM192.932 217.908C196.727 216.221 200.078 214.019 202.971 211.296L200.229 208.384C197.682 210.781 194.713 212.739 191.308 214.252L192.932 217.908ZM200.127 211.193L209.607 221.513L212.553 218.807L203.073 208.487L200.127 211.193ZM209.666 218.746C206.279 222.132 201.992 224.916 196.758 227.071L198.282 230.769C203.928 228.444 208.681 225.388 212.494 221.574L209.666 218.746ZM196.749 227.075C191.657 229.203 186.042 230.28 179.88 230.28V234.28C186.518 234.28 192.663 233.117 198.291 230.765L196.749 227.075ZM179.88 230.28C171.119 230.28 163.765 228.46 157.733 224.916L155.707 228.364C162.475 232.34 170.561 234.28 179.88 234.28V230.28ZM157.749 224.925C151.681 221.284 147.108 216.296 143.997 209.923L140.403 211.677C143.852 218.744 148.959 224.316 155.691 228.355L157.749 224.925ZM144.001 209.931C140.872 203.444 139.28 195.949 139.28 187.4H135.28C135.28 196.451 136.968 204.556 140.399 211.669L144.001 209.931ZM139.28 187.4C139.28 178.684 140.875 171.155 143.997 164.757L140.403 163.003C136.965 170.045 135.28 178.196 135.28 187.4H139.28ZM143.989 164.774C147.176 158.399 151.784 153.494 157.837 150.014L155.843 146.546C149.096 150.426 143.944 155.921 140.411 162.986L143.989 164.774ZM157.844 150.01C163.961 146.46 171.36 144.64 180.12 144.64V140.64C170.8 140.64 162.679 142.58 155.836 146.55L157.844 150.01ZM180.12 144.64C185.82 144.64 191.187 145.563 196.237 147.4L197.603 143.64C192.093 141.637 186.26 140.64 180.12 140.64V144.64ZM196.237 147.4C201.294 149.239 205.397 151.74 208.603 154.871L211.397 152.009C207.723 148.42 203.106 145.641 197.603 143.64L196.237 147.4ZM293.728 230V232H295.728V230H293.728ZM277.888 230H275.888V232H277.888V230ZM277.888 192.68H279.888V190.68H277.888V192.68ZM238.648 192.68V190.68H236.648V192.68H238.648ZM238.648 230V232H240.648V230H238.648ZM222.928 230H220.928V232H222.928V230ZM222.928 145.04V143.04H220.928V145.04H222.928ZM238.648 145.04H240.648V143.04H238.648V145.04ZM238.648 180.08H236.648V182.08H238.648V180.08ZM277.888 180.08V182.08H279.888V180.08H277.888ZM277.888 145.04V143.04H275.888V145.04H277.888ZM293.728 145.04H295.728V143.04H293.728V145.04ZM293.728 228H277.888V232H293.728V228ZM279.888 230V192.68H275.888V230H279.888ZM277.888 190.68H238.648V194.68H277.888V190.68ZM236.648 192.68V230H240.648V192.68H236.648ZM238.648 228H222.928V232H238.648V228ZM224.928 230V145.04H220.928V230H224.928ZM222.928 147.04H238.648V143.04H222.928V147.04ZM236.648 145.04V180.08H240.648V145.04H236.648ZM238.648 182.08H277.888V178.08H238.648V182.08ZM279.888 180.08V145.04H275.888V180.08H279.888ZM277.888 147.04H293.728V143.04H277.888V147.04ZM291.728 145.04V230H295.728V145.04H291.728ZM360.691 211.64L362.577 210.974L362.106 209.64H360.691V211.64ZM326.131 211.64V209.64H324.742L324.257 210.942L326.131 211.64ZM319.291 230V232H320.68L321.165 230.698L319.291 230ZM302.851 230L300.984 229.283L299.94 232H302.851V230ZM335.491 145.04V143.04H334.117L333.624 144.323L335.491 145.04ZM351.691 145.04L353.559 144.325L353.067 143.04H351.691V145.04ZM384.211 230V232H387.118L386.079 229.285L384.211 230ZM367.171 230L365.285 230.666L365.756 232H367.171V230ZM330.331 199.64L328.439 198.992L327.531 201.64H330.331V199.64ZM356.611 199.64V201.64H359.402L358.505 198.997L356.611 199.64ZM343.531 161.12L345.425 160.477L343.54 154.925L341.639 160.472L343.531 161.12ZM360.691 209.64H326.131V213.64H360.691V209.64ZM324.257 210.942L317.417 229.302L321.165 230.698L328.005 212.338L324.257 210.942ZM319.291 228H302.851V232H319.291V228ZM304.718 230.717L337.358 145.757L333.624 144.323L300.984 229.283L304.718 230.717ZM335.491 147.04H351.691V143.04H335.491V147.04ZM349.823 145.755L382.343 230.715L386.079 229.285L353.559 144.325L349.823 145.755ZM384.211 228H367.171V232H384.211V228ZM369.057 229.334L362.577 210.974L358.805 212.306L365.285 230.666L369.057 229.334ZM330.331 201.64H356.611V197.64H330.331V201.64ZM358.505 198.997L345.425 160.477L341.637 161.763L354.717 200.283L358.505 198.997ZM341.639 160.472L328.439 198.992L332.223 200.288L345.423 161.768L341.639 160.472ZM393.553 145.04V143.04H391.553V145.04H393.553ZM411.433 145.04L413.1 143.935L412.507 143.04H411.433V145.04ZM453.433 208.4L451.766 209.505L452.359 210.4H453.433V208.4ZM453.673 208.4V210.4H455.685L455.673 208.389L453.673 208.4ZM453.313 145.04V143.04H451.302L451.313 145.051L453.313 145.04ZM467.833 145.04H469.833V143.04H467.833V145.04ZM467.833 230V232H469.833V230H467.833ZM449.953 230L448.285 231.104L448.878 232H449.953V230ZM407.953 166.52L409.621 165.416L409.028 164.52H407.953V166.52ZM407.713 166.52V164.52H405.698L405.713 166.535L407.713 166.52ZM408.193 230V232H410.208L410.193 229.985L408.193 230ZM393.553 230H391.553V232H393.553V230ZM393.553 147.04H411.433V143.04H393.553V147.04ZM409.766 146.145L451.766 209.505L455.1 207.295L413.1 143.935L409.766 146.145ZM453.433 210.4H453.673V206.4H453.433V210.4ZM455.673 208.389L455.313 145.029L451.313 145.051L451.673 208.411L455.673 208.389ZM453.313 147.04H467.833V143.04H453.313V147.04ZM465.833 145.04V230H469.833V145.04H465.833ZM467.833 228H449.953V232H467.833V228ZM451.621 228.896L409.621 165.416L406.285 167.624L448.285 231.104L451.621 228.896ZM407.953 164.52H407.713V168.52H407.953V164.52ZM405.713 166.535L406.193 230.015L410.193 229.985L409.713 166.505L405.713 166.535ZM408.193 228H393.553V232H408.193V228ZM395.553 230V145.04H391.553V230H395.553ZM487.789 164L486.008 163.089L486.004 163.097L486 163.106L487.789 164ZM502.669 148.4L503.656 150.139L503.664 150.135L503.673 150.13L502.669 148.4ZM542.749 145.64L542.065 147.52L542.749 145.64ZM555.829 153.56L557.329 154.882L558.585 153.457L557.226 152.129L555.829 153.56ZM546.949 163.64L545.651 165.162L547.148 166.439L548.449 164.962L546.949 163.64ZM537.469 158.24L536.748 160.106L536.773 160.115L536.799 160.124L537.469 158.24ZM505.669 164.72L507.22 165.983L507.228 165.972L505.669 164.72ZM543.349 215.72L544.133 217.56L545.349 217.041V215.72H543.349ZM543.349 196.76H545.349V194.76H543.349V196.76ZM525.949 196.76H523.949V198.76H525.949V196.76ZM525.949 184.76V182.76H523.949V184.76H525.949ZM557.869 184.76H559.869V182.76H557.869V184.76ZM557.869 224.24L558.844 225.986L559.869 225.414V224.24H557.869ZM502.309 226.64L503.312 224.91L502.309 226.64ZM487.669 210.92L485.871 211.797L487.669 210.92ZM484.749 187.4C484.749 178.774 486.38 171.29 489.578 164.894L486 163.106C482.478 170.149 480.749 178.266 480.749 187.4H484.749ZM489.569 164.911C492.834 158.534 497.52 153.624 503.656 150.139L501.681 146.661C494.857 150.536 489.624 156.026 486.008 163.089L489.569 164.911ZM503.673 150.13C509.79 146.58 517.188 144.76 525.949 144.76V140.76C516.629 140.76 508.507 142.7 501.665 146.67L503.673 150.13ZM525.949 144.76C531.648 144.76 537.016 145.683 542.065 147.52L543.432 143.76C537.922 141.757 532.089 140.76 525.949 140.76V144.76ZM542.065 147.52C547.123 149.359 551.226 151.86 554.431 154.991L557.226 152.129C553.551 148.54 548.935 145.761 543.432 143.76L542.065 147.52ZM554.328 152.238L545.448 162.318L548.449 164.962L557.329 154.882L554.328 152.238ZM548.247 162.118C545.329 159.63 541.953 157.712 538.139 156.356L536.799 160.124C540.185 161.328 543.129 163.01 545.651 165.162L548.247 162.118ZM538.19 156.374C534.44 154.926 530.556 154.2 526.549 154.2V158.2C530.061 158.2 533.457 158.834 536.748 160.106L538.19 156.374ZM526.549 154.2C516.77 154.2 509.152 157.186 504.109 163.468L507.228 165.972C511.305 160.894 517.608 158.2 526.549 158.2V154.2ZM504.118 163.457C499.186 169.514 496.829 177.567 496.829 187.4H500.829C500.829 178.193 503.031 171.126 507.22 165.983L504.118 163.457ZM496.829 187.4C496.829 198.243 499.165 206.748 504.185 212.558C509.254 218.423 516.758 221.2 526.309 221.2V217.2C517.539 217.2 511.303 214.677 507.212 209.942C503.073 205.152 500.829 197.757 500.829 187.4H496.829ZM526.309 221.2C532.498 221.2 538.445 219.986 544.133 217.56L542.564 213.88C537.372 216.094 531.959 217.2 526.309 217.2V221.2ZM545.349 215.72V196.76H541.349V215.72H545.349ZM543.349 194.76H525.949V198.76H543.349V194.76ZM527.949 196.76V184.76H523.949V196.76H527.949ZM525.949 186.76H557.869V182.76H525.949V186.76ZM555.869 184.76V224.24H559.869V184.76H555.869ZM556.894 222.494C547.608 227.678 537.347 230.28 526.069 230.28V234.28C537.991 234.28 548.929 231.522 558.844 225.986L556.894 222.494ZM526.069 230.28C516.974 230.28 509.42 228.454 503.312 224.91L501.305 228.37C508.157 232.346 516.443 234.28 526.069 234.28V230.28ZM503.312 224.91C497.175 221.349 492.572 216.405 489.466 210.043L485.871 211.797C489.326 218.875 494.482 224.411 501.305 228.37L503.312 224.91ZM489.466 210.043C486.343 203.645 484.749 196.116 484.749 187.4H480.749C480.749 196.604 482.434 204.755 485.871 211.797L489.466 210.043ZM629.771 157.64V159.64H631.771V157.64H629.771ZM591.851 157.64V155.64H589.851V157.64H591.851ZM591.851 180.32H589.851V182.32H591.851V180.32ZM624.251 180.32H626.251V178.32H624.251V180.32ZM624.251 192.44V194.44H626.251V192.44H624.251ZM591.851 192.44V190.44H589.851V192.44H591.851ZM591.851 217.16H589.851V219.16H591.851V217.16ZM631.811 217.16H633.811V215.16H631.811V217.16ZM631.811 230V232H633.811V230H631.811ZM576.131 230H574.131V232H576.131V230ZM576.131 145.04V143.04H574.131V145.04H576.131ZM629.771 145.04H631.771V143.04H629.771V145.04ZM629.771 155.64H591.851V159.64H629.771V155.64ZM589.851 157.64V180.32H593.851V157.64H589.851ZM591.851 182.32H624.251V178.32H591.851V182.32ZM622.251 180.32V192.44H626.251V180.32H622.251ZM624.251 190.44H591.851V194.44H624.251V190.44ZM589.851 192.44V217.16H593.851V192.44H589.851ZM591.851 219.16H631.811V215.16H591.851V219.16ZM629.811 217.16V230H633.811V217.16H629.811ZM631.811 228H576.131V232H631.811V228ZM578.131 230V145.04H574.131V230H578.131ZM576.131 147.04H629.771V143.04H576.131V147.04ZM627.771 145.04V157.64H631.771V145.04H627.771Z" fill="#032D60"/>
</svg>
