<svg width="312" height="312" viewBox="0 0 312 312" fill="none" xmlns="http://www.w3.org/2000/svg">
<circle cx="156" cy="156" r="148" fill="#C8E1F5" stroke="#4B8BCA" stroke-width="16"/>
<path d="M94.159 119.619C97.3144 114.258 101.141 109.346 105.528 104.995L68.2531 64.124C58.8756 73.0865 50.8789 83.4765 44.589 94.9262L94.159 119.619Z" fill="#62B134"/>
<path d="M185.537 90.7453C191.18 93.3317 196.431 96.6306 201.168 100.538L238.547 59.7265C228.702 51.2364 217.537 44.2314 205.419 39.0586L185.537 90.7453Z" fill="#E4B634"/>
<path d="M218.044 120.571L267.58 95.8788C261.444 84.4761 253.617 74.1174 244.432 65.1445L207.051 105.945C211.31 110.319 215.011 115.231 218.044 120.571Z" fill="#4B9E37"/>
<path d="M84.3145 155.776C84.3145 154.661 84.351 153.547 84.4006 152.44L29.2767 147.505C29.1044 150.237 29 152.996 29 155.776C29 166.348 30.3128 176.621 32.7531 186.437L85.9927 171.164C84.9017 166.205 84.3145 161.061 84.3145 155.776Z" fill="#3E7E45"/>
<path d="M211.107 201.084C207.189 205.852 202.667 210.104 197.663 213.729L226.769 260.851C237.571 253.533 247.189 244.594 255.272 234.384L211.107 201.084Z" fill="#FBC10D"/>
<path d="M227.33 155.777C227.33 160.997 226.769 166.086 225.691 170.987L278.922 186.282C281.35 176.507 282.644 166.29 282.644 155.777C282.644 153.167 282.558 150.575 282.399 147.994L227.28 153.198C227.309 154.062 227.33 154.916 227.33 155.777Z" fill="#E7412E"/>
<path d="M101.431 202.139L57.3727 235.624C65.5678 245.714 75.2715 254.51 86.147 261.69L115.247 214.617C110.119 211.073 105.473 206.871 101.431 202.139Z" fill="#F49C2C"/>
<path d="M85.2097 144.489C86.1962 138.262 87.9997 132.309 90.4895 126.731L40.9664 102.057C35.4935 113.703 31.743 126.308 30.0361 139.541L85.2097 144.489Z" fill="#1595D3"/>
<path d="M219.999 265.116L190.935 218.057C185.655 221.037 179.968 223.378 173.973 224.949L184.23 279.387C196.992 276.453 209.024 271.589 219.999 265.116Z" fill="#A21A43"/>
<path d="M223.569 178.697C221.64 184.358 219.036 189.7 215.831 194.63L260.029 227.969C267.209 217.647 272.883 206.218 276.756 193.983L223.569 178.697Z" fill="#2CBADF"/>
<path d="M166.135 226.537C162.771 227.022 159.328 227.288 155.821 227.288C153.005 227.288 150.225 227.113 147.498 226.795L137.246 281.235C143.314 282.125 149.513 282.598 155.821 282.598C162.821 282.598 169.69 282.023 176.382 280.927L166.135 226.537Z" fill="#EC692F"/>
<path d="M160.393 84.4116C166.534 84.8057 172.467 85.9749 178.088 87.828L197.971 36.1569C186.142 31.9811 173.524 29.5069 160.393 29.0449V84.4116Z" fill="#E5233B"/>
<path d="M139.618 225.435C133.42 223.989 127.529 221.737 122.064 218.795L92.948 265.891C104.15 272.304 116.398 277.051 129.377 279.815L139.618 225.435Z" fill="#DC1668"/>
<path d="M134.333 87.5743C140.075 85.7578 146.133 84.6538 152.399 84.3589V29C139.091 29.3549 126.305 31.7796 114.315 35.9371L134.333 87.5743Z" fill="#18486A"/>
<path d="M96.5806 195.777C93.0677 190.588 90.202 184.909 88.1454 178.867L34.9449 194.135C38.9747 206.825 44.9461 218.647 52.5175 229.262L96.5806 195.777Z" fill="#C7982C"/>
<path d="M111.517 99.6891C116.192 95.9856 121.339 92.8667 126.853 90.4108L106.846 38.7998C94.9314 43.803 83.9515 50.5757 74.2166 58.7839L111.517 99.6891Z" fill="#00689D"/>
<path d="M271.142 103.035L221.599 127.73C223.966 133.253 225.646 139.117 226.557 145.235L281.668 140.033C280.045 126.986 276.433 114.545 271.142 103.035Z" fill="#C41B2D"/>
<path fill-rule="evenodd" clip-rule="evenodd" d="M183.816 198.953L182.673 196.545L177.371 199.113L178.514 201.521L183.816 198.953Z" fill="#C41B2D"/>
<path fill-rule="evenodd" clip-rule="evenodd" d="M254.45 172.622L203.919 196.891L205.373 199.953L177.416 213.228L167.709 192.785L195.667 179.511L197.312 182.976L239.352 163.016L239.971 143.96L262 141.87L254.45 172.622ZM183.816 198.953L182.673 196.545L177.371 199.113L178.514 201.521L183.816 198.953Z" fill="#C41B2D"/>
<path fill-rule="evenodd" clip-rule="evenodd" d="M180.673 197.545L181.816 199.953L178.514 201.521L177.371 199.113L180.673 197.545Z" fill="#C8E1F5"/>
<path d="M236.334 161.038L198.774 178.872L197.128 175.406L163.605 191.323L175.954 217.332L209.477 201.415L208.017 198.34L257.094 174.769L265.255 141.583L262.009 141.885L254.45 172.621L203.919 196.89L205.373 199.953L177.415 213.227L167.709 192.785L195.667 179.51L197.312 182.976L239.352 163.016L239.972 143.961L236.881 144.254L236.334 161.038Z" fill="#C8E1F5"/>
<path fill-rule="evenodd" clip-rule="evenodd" d="M217.14 138.943C216.091 139.253 214.989 138.653 214.68 137.604C212.484 130.163 208.697 123.273 203.608 117.434C202.889 116.61 202.975 115.359 203.8 114.64C204.624 113.922 205.875 114.008 206.594 114.832C212.056 121.099 216.121 128.495 218.478 136.483C218.788 137.532 218.189 138.633 217.14 138.943Z" fill="#034B6C"/>
<path fill-rule="evenodd" clip-rule="evenodd" d="M98.0816 182.162C99.0753 181.705 100.251 182.14 100.708 183.134C103.951 190.182 108.688 196.457 114.563 201.504C115.393 202.216 115.487 203.467 114.775 204.296C114.062 205.126 112.812 205.221 111.982 204.508C105.676 199.091 100.591 192.356 97.1101 184.789C96.653 183.795 97.088 182.619 98.0816 182.162Z" fill="#034B6C"/>
<path fill-rule="evenodd" clip-rule="evenodd" d="M156.882 94.8494C156.957 96.0683 156.017 97.1093 154.783 97.1746C135.246 98.2076 117.323 108.595 106.958 124.95C106.304 125.981 104.924 126.288 103.874 125.635C102.824 124.982 102.503 123.617 103.157 122.585C114.289 105.02 133.529 93.87 154.511 92.7605C155.745 92.6953 156.806 93.6305 156.882 94.8494Z" fill="#034B6C"/>
<path fill-rule="evenodd" clip-rule="evenodd" d="M157.456 111.842C157.491 113.084 156.513 114.12 155.271 114.156C141.701 114.544 128.946 121.631 121.253 133.133C120.562 134.165 119.165 134.443 118.132 133.752C117.099 133.061 116.822 131.664 117.513 130.631C126.002 117.938 140.093 110.089 155.142 109.658C156.384 109.622 157.42 110.6 157.456 111.842Z" fill="#034B6C"/>
<path fill-rule="evenodd" clip-rule="evenodd" d="M156.192 128.153C156.194 129.395 155.189 130.404 153.946 130.406C147.403 130.417 141.258 133.576 137.54 138.826C136.822 139.841 135.418 140.081 134.404 139.363C133.39 138.645 133.15 137.24 133.868 136.226C138.442 129.766 145.964 125.919 153.939 125.906C155.181 125.904 156.19 126.91 156.192 128.153Z" fill="#034B6C"/>
<path d="M170.707 155.744C170.707 164.007 164.008 170.706 155.744 170.706C147.48 170.706 140.781 164.007 140.781 155.744C140.781 147.48 147.48 140.781 155.744 140.781C164.008 140.781 170.707 147.48 170.707 155.744Z" fill="#034B6C"/>
</svg>
