<?xml version="1.0" encoding="UTF-8"?>
<svg fill="#FFFFFF" width="100pt" height="100pt" version="1.1" viewBox="0 0 100 100" xmlns="http://www.w3.org/2000/svg">
 <g>
  <path d="m50 19.461c6.4297 0.015624 12.688 2.0781 17.871 5.8906l7.3008-7.3008c-11.273-8.9102-26.41-11.207-39.812-6.0391-13.406 5.168-23.086 17.027-25.461 31.199h10.391c1.5352-6.7383 5.3125-12.754 10.707-17.066 5.3945-4.3125 12.094-6.668 19.004-6.6836z"/>
  <path d="m50 80.539c-8.082-0.007812-15.824-3.25-21.5-9l-7.2617 7.2617c7.0703 7.0859 16.504 11.316 26.5 11.879 9.9922 0.55859 19.844-2.5859 27.66-8.8398 7.8164-6.25 13.051-15.168 14.703-25.039h-10.391c-1.5391 6.7344-5.3125 12.746-10.711 17.059-5.3945 4.3125-12.094 6.668-19 6.6797z"/>
  <path d="m20.289 43.211h-17.789l13.57 20.359 13.57-20.359z"/>
  <path d="m83.93 36.43-13.57 20.359h27.141z"/>
 </g>
</svg>
