<svg width="16" height="14" viewBox="0 0 16 14" fill="none" xmlns="http://www.w3.org/2000/svg">
<path d="M15.6962 6.20326C15.4997 5.99465 15.2748 5.80081 14.9694 5.80081C14.559 5.80081 14.2567 6.12112 13.5937 6.82334C13.469 6.95558 13.3278 7.10588 13.1707 7.2685C13.0326 4.82849 12.383 3.02893 11.196 1.78716C10.0619 0.601201 8.47249 0 6.47327 0C2.26895 0 0 3.63845 0 7.06245C0 10.4044 2.10812 14 6.73532 14C7.34935 14 7.84656 13.4818 7.84656 12.8436C7.84656 12.2054 7.34935 11.6872 6.73532 11.6872C3.40403 11.6872 2.22248 9.19611 2.22248 7.06245C2.22248 5.82146 2.62499 4.61487 3.3266 3.75346C4.09374 2.81142 5.18209 2.31288 6.47323 2.31288C7.87963 2.31288 8.90886 2.67427 9.62066 3.41836C10.3728 4.20517 10.814 5.4823 10.9387 7.22018C10.8006 7.07563 10.6759 6.94258 10.5638 6.82267C9.91661 6.13194 9.62064 5.81656 9.20789 5.81656C8.90876 5.81656 8.67831 6.00711 8.49283 6.19355C7.76121 6.92862 8.34446 7.56512 9.62143 8.9605L9.94581 9.3153C10.7295 10.1752 11.2062 10.6976 11.6308 10.9185C11.7729 11.0014 11.9228 11.0442 12.0799 11.0442H12.0815L12.1028 11.045C12.2583 11.045 12.409 11.0031 12.5511 10.9193C12.9757 10.6992 13.4492 10.1793 14.2306 9.32186L14.5581 8.96378C15.8232 7.58316 16.4002 6.9524 15.6962 6.20335L15.6962 6.20326Z" fill="#ACACAC"/>
</svg>
