<svg width="93" height="65" viewBox="0 0 93 65" fill="none" xmlns="http://www.w3.org/2000/svg">
<path d="M38.5307 7.0458C41.526 3.94837 45.6786 2.00822 50.2737 2.00822C56.4004 2.00822 61.7103 5.41199 64.5695 10.4836C67.0542 9.3944 69.7773 8.78173 72.6364 8.78173C83.6646 8.78173 92.6166 17.8017 92.6166 28.932C92.6166 40.0624 83.6646 49.0824 72.6364 49.0824C71.2749 49.0824 69.9815 48.9462 68.6881 48.6739C66.2033 53.1328 61.404 56.1622 55.958 56.1622C53.6774 56.1622 51.499 55.6176 49.5589 54.6986C47.0061 60.6552 41.1175 64.8418 34.2419 64.8418C27.06 64.8418 20.9672 60.3148 18.6186 53.9497C17.5975 54.154 16.5423 54.2901 15.4531 54.2901C6.90965 54.2901 0 47.2784 0 38.6668C0 32.8804 3.09742 27.8428 7.72655 25.1198C6.77349 22.9414 6.26293 20.5247 6.26293 17.9719C6.26293 8.03289 14.3299 0 24.2689 0C30.0553 0 35.229 2.75705 38.5307 7.0458Z" fill="#00A1E0"/>
<path d="M13.3768 33.6292C13.3087 33.7654 13.4108 33.7994 13.4108 33.8334C13.581 33.9696 13.7512 34.0377 13.9554 34.1398C14.9085 34.6504 15.7935 34.7865 16.7125 34.7865C18.6186 34.7865 19.8099 33.7654 19.8099 32.1656V32.1316C19.8099 30.6339 18.4825 30.0893 17.2231 29.6809L17.0529 29.6128C16.0998 29.3064 15.2829 29.0341 15.2829 28.4215V28.3874C15.2829 27.8428 15.7594 27.4684 16.5083 27.4684C17.3252 27.4684 18.3123 27.7407 18.9249 28.0811C18.9249 28.0811 19.0951 28.1832 19.1632 28.013C19.1972 27.9109 19.5036 27.06 19.5376 26.9578C19.5717 26.8557 19.5036 26.7876 19.4355 26.7536C18.7207 26.3111 17.7336 26.0388 16.7125 26.0388H16.5083C14.7723 26.0388 13.547 27.094 13.547 28.5916V28.6257C13.547 30.2255 14.8745 30.736 16.1338 31.0764L16.3381 31.1445C17.2571 31.4168 18.04 31.655 18.04 32.3018V32.3358C18.04 32.9144 17.5294 33.3569 16.7125 33.3569C16.4062 33.3569 15.385 33.3569 14.2618 32.6421C14.1256 32.5741 14.0576 32.506 13.9554 32.4379C13.8874 32.4039 13.7512 32.3358 13.7172 32.54L13.3768 33.6292Z" fill="white"/>
<path d="M41.2197 33.6292C41.1516 33.7654 41.2537 33.7994 41.2537 33.8334C41.4239 33.9696 41.5941 34.0377 41.7983 34.1398C42.7514 34.6504 43.6364 34.7865 44.5554 34.7865C46.4615 34.7865 47.6528 33.7654 47.6528 32.1656V32.1316C47.6528 30.6339 46.3253 30.0893 45.0659 29.6809L44.8958 29.6128C43.9427 29.3064 43.1258 29.0341 43.1258 28.4215V28.3874C43.1258 27.8428 43.6023 27.4684 44.3512 27.4684C45.1681 27.4684 46.1552 27.7407 46.7678 28.0811C46.7678 28.0811 46.938 28.1832 47.0061 28.013C47.0401 27.9109 47.3465 27.06 47.3805 26.9578C47.4145 26.8557 47.3465 26.7876 47.2784 26.7536C46.5636 26.3111 45.5765 26.0388 44.5554 26.0388H44.3512C42.6152 26.0388 41.3899 27.094 41.3899 28.5916V28.6257C41.3899 30.2255 42.7173 30.736 43.9767 31.0764L44.181 31.1445C45.1 31.4168 45.8828 31.655 45.8828 32.3018V32.3358C45.8828 32.9144 45.3723 33.3569 44.5554 33.3569C44.249 33.3569 43.2279 33.3569 42.1047 32.6421C41.9685 32.5741 41.9004 32.506 41.7983 32.4379C41.7643 32.4039 41.5941 32.3698 41.5601 32.54L41.2197 33.6292Z" fill="white"/>
<path d="M61.7784 28.7278C61.6082 28.2172 61.37 27.7407 61.0636 27.3663C60.7233 26.9919 60.3148 26.6515 59.8383 26.4473C59.3618 26.209 58.7831 26.1069 58.1364 26.1069C57.4897 26.1069 56.911 26.209 56.4345 26.4473C55.958 26.6855 55.5495 26.9919 55.2092 27.3663C54.9028 27.7407 54.6305 28.2172 54.4944 28.7278C54.3242 29.2384 54.2561 29.817 54.2561 30.4297C54.2561 31.0424 54.3242 31.621 54.4944 32.1316C54.6646 32.6421 54.9028 33.1187 55.2092 33.4931C55.5495 33.8675 55.958 34.2079 56.4345 34.4121C56.911 34.6163 57.4897 34.7525 58.1364 34.7525C58.7831 34.7525 59.3618 34.6504 59.8383 34.4121C60.3148 34.2079 60.7233 33.8675 61.0636 33.4931C61.37 33.1187 61.6423 32.6421 61.7784 32.1316C61.9486 31.621 62.0167 31.0424 62.0167 30.4297C62.0167 29.817 61.9486 29.2384 61.7784 28.7278ZM60.2127 30.4297C60.2127 31.3487 60.0425 32.0635 59.7021 32.5741C59.3618 33.0846 58.8512 33.3229 58.1704 33.3229C57.4556 33.3229 56.9791 33.0846 56.6387 32.5741C56.2984 32.0635 56.1282 31.3487 56.1282 30.4297C56.1282 29.5107 56.2984 28.7959 56.6387 28.2853C56.9791 27.7747 57.4556 27.5365 58.1704 27.5365C58.8852 27.5365 59.3958 27.7747 59.7021 28.2853C60.0425 28.7959 60.2127 29.5107 60.2127 30.4297Z" fill="white"/>
<path fill-rule="evenodd" clip-rule="evenodd" d="M74.8148 33.0846C74.7468 32.9145 74.6106 32.9825 74.6106 32.9825C74.3724 33.0846 74.1341 33.1527 73.8618 33.1868C73.5895 33.2208 73.3172 33.2548 72.9768 33.2548C72.1939 33.2548 71.6153 33.0166 71.1728 32.5741C70.7303 32.1316 70.4921 31.3827 70.4921 30.3957C70.4921 29.5107 70.6963 28.8299 71.1047 28.3194C71.4792 27.8088 72.0918 27.5365 72.8747 27.5365C73.5214 27.5365 74.032 27.6046 74.5426 27.7748C74.5426 27.7748 74.6787 27.8428 74.7127 27.6726C74.8489 27.2982 74.951 27.0259 75.0872 26.5834C75.1212 26.4473 75.0191 26.4133 74.985 26.4133C74.7808 26.3452 74.3043 26.209 73.9299 26.1409C73.5895 26.0729 73.181 26.0729 72.7385 26.0729C72.0578 26.0729 71.4792 26.175 70.9686 26.4133C70.458 26.6515 70.0155 26.9578 69.6752 27.3323C69.3348 27.7067 69.0625 28.1832 68.8923 28.6938C68.7221 29.2043 68.62 29.783 68.62 30.3957C68.62 31.7231 68.9604 32.7783 69.6752 33.5612C70.3899 34.344 71.4451 34.7525 72.8066 34.7525C73.6235 34.7525 74.4404 34.5823 75.0531 34.344C75.0531 34.344 75.1552 34.276 75.1212 34.1398L74.8148 33.0846Z" fill="white"/>
<path fill-rule="evenodd" clip-rule="evenodd" d="M82.9158 28.4215C82.7797 27.9109 82.4393 27.4003 82.2351 27.1621C81.8947 26.7877 81.5543 26.5154 81.214 26.3792C80.7715 26.175 80.2609 26.0729 79.6823 26.0729C79.0015 26.0729 78.3888 26.175 77.9123 26.4133C77.4017 26.6515 76.9933 26.9579 76.6869 27.3663C76.3466 27.7748 76.1083 28.2172 75.9721 28.7619C75.802 29.3065 75.7339 29.8511 75.7339 30.4637C75.7339 31.0764 75.802 31.6551 75.9721 32.1656C76.1423 32.6762 76.3806 33.1527 76.755 33.5271C77.0954 33.9015 77.5719 34.2079 78.1165 34.4121C78.6611 34.6163 79.3078 34.7184 80.0567 34.7184C81.6224 34.7184 82.4393 34.3781 82.7457 34.1738C82.8137 34.1398 82.8478 34.0717 82.7797 33.9015L82.4393 32.9145C82.3712 32.7783 82.2351 32.8123 82.2351 32.8123C81.8607 32.9485 81.3161 33.2208 80.0226 33.2208C79.2057 33.2208 78.559 32.9825 78.1846 32.5741C77.7761 32.1656 77.606 31.587 77.5719 30.8041H82.9499C82.9499 30.8041 83.086 30.8041 83.1201 30.668C83.086 30.668 83.2562 29.6468 82.9158 28.4215ZM77.5719 29.5447C77.64 29.0341 77.7761 28.6257 78.0144 28.2853C78.3548 27.7748 78.8313 27.5025 79.5461 27.5025C80.2609 27.5025 80.7034 27.7748 81.0438 28.2853C81.282 28.6257 81.3501 29.0682 81.3841 29.5447H77.5719Z" fill="white"/>
<path fill-rule="evenodd" clip-rule="evenodd" d="M39.9262 28.4215C39.7901 27.9109 39.4497 27.4003 39.2455 27.1621C38.9051 26.7877 38.5647 26.5154 38.2243 26.3792C37.7818 26.175 37.2713 26.0729 36.6926 26.0729C36.0119 26.0729 35.3992 26.175 34.9227 26.4133C34.4121 26.6515 34.0037 26.9579 33.6973 27.3663C33.3569 27.7748 33.1187 28.2172 32.9825 28.7619C32.8123 29.3065 32.7443 29.8511 32.7443 30.4637C32.7443 31.0764 32.8123 31.6551 32.9825 32.1656C33.1527 32.6762 33.391 33.1527 33.7654 33.5271C34.1058 33.9015 34.5823 34.2079 35.1269 34.4121C35.6715 34.6163 36.3182 34.7184 37.0671 34.7184C38.6328 34.7184 39.4497 34.3781 39.756 34.1738C39.8241 34.1398 39.8581 34.0717 39.7901 33.9015L39.4497 32.9145C39.3816 32.7783 39.2455 32.8123 39.2455 32.8123C38.871 32.9485 38.3264 33.2208 37.033 33.2208C36.2161 33.2208 35.5694 32.9825 35.195 32.5741C34.7865 32.1656 34.6163 31.587 34.5823 30.8041H39.9603C39.9603 30.8041 40.0964 30.8041 40.1304 30.668C40.0964 30.668 40.2666 29.6468 39.9262 28.4215ZM34.5823 29.5447C34.6504 29.0341 34.7865 28.6257 35.0248 28.2853C35.3652 27.7748 35.8417 27.5025 36.5565 27.5025C37.2713 27.5025 37.7138 27.7748 38.0541 28.2853C38.2584 28.6257 38.3605 29.0682 38.3945 29.5447H34.5823Z" fill="white"/>
<path d="M25.1198 29.2724C24.9156 29.2724 24.6093 29.2384 24.2689 29.2384C23.7924 29.2384 23.3499 29.3064 22.9414 29.4086C22.533 29.5107 22.1585 29.6809 21.8182 29.9191C21.4778 30.1574 21.2395 30.4637 21.0353 30.8041C20.8311 31.1445 20.763 31.587 20.763 32.0295C20.763 32.506 20.8311 32.9144 21.0013 33.2548C21.1714 33.5952 21.4097 33.8675 21.7161 34.1058C22.0224 34.31 22.3968 34.4802 22.8053 34.5823C23.2137 34.6844 23.6902 34.7184 24.2348 34.7184C24.7794 34.7184 25.3241 34.6844 25.8687 34.5823C26.3792 34.4802 27.0259 34.3781 27.2302 34.31C27.4004 34.2759 27.6046 34.2079 27.6046 34.2079C27.7407 34.1738 27.7407 34.0377 27.7407 34.0377V29.1363C27.7407 28.0471 27.4684 27.2642 26.8898 26.7536C26.3111 26.2771 25.4942 26.0048 24.4391 26.0048C24.0306 26.0048 23.3839 26.0729 23.0095 26.1409C23.0095 26.1409 21.8522 26.3792 21.3416 26.7536C21.3416 26.7536 21.2395 26.8217 21.3076 26.9579L21.682 27.979C21.716 28.1151 21.8522 28.0811 21.8522 28.0811C21.8522 28.0811 21.8862 28.0811 21.9543 28.0471C22.9755 27.5024 24.3029 27.5024 24.3029 27.5024C24.8816 27.5024 25.324 27.6046 25.6304 27.8428C25.9367 28.0811 26.0729 28.4215 26.0729 29.1363V29.3745C25.5283 29.3405 25.1198 29.2724 25.1198 29.2724ZM22.9755 33.0506C22.7712 32.8804 22.7372 32.8464 22.6691 32.7443C22.567 32.5741 22.4989 32.3358 22.4989 32.0295C22.4989 31.5529 22.6691 31.2126 22.9755 30.9743C22.9755 30.9743 23.452 30.5658 24.5412 30.5999C25.3241 30.5999 26.0048 30.736 26.0048 30.736V33.1867C26.0048 33.1867 25.3241 33.3229 24.5412 33.391C23.452 33.425 22.9755 33.0506 22.9755 33.0506Z" fill="white"/>
<path fill-rule="evenodd" clip-rule="evenodd" d="M68.4158 26.5154C68.4498 26.3792 68.3818 26.3452 68.3477 26.3111C68.2456 26.2771 67.8031 26.175 67.4627 26.175C66.782 26.1409 66.4076 26.2431 66.0672 26.4132C65.7268 26.5494 65.3524 26.8217 65.1482 27.094V26.4473C65.1482 26.3452 65.0801 26.2771 64.978 26.2771H63.6165C63.5144 26.2771 63.4463 26.3452 63.4463 26.4473V34.4461C63.4463 34.5483 63.5144 34.6163 63.6165 34.6163H65.012C65.1141 34.6163 65.1822 34.5483 65.1822 34.4461V30.4297C65.1822 29.8851 65.2503 29.3405 65.3524 29.0341C65.4545 28.6938 65.6247 28.4215 65.8289 28.2513C66.0332 28.0471 66.2374 27.9109 66.4756 27.8428C66.7139 27.7747 66.9862 27.7407 67.1904 27.7407C67.4627 27.7407 67.7691 27.8088 67.7691 27.8088C67.8712 27.8088 67.9393 27.7407 67.9733 27.6726C68.1094 27.4003 68.3818 26.6515 68.4158 26.5154Z" fill="white"/>
<path fill-rule="evenodd" clip-rule="evenodd" d="M55.1752 22.8052C55.005 22.7372 54.8348 22.7031 54.6306 22.6691C54.4263 22.6351 54.1881 22.601 53.9158 22.601C52.9287 22.601 52.1798 22.8733 51.6352 23.4179C51.0906 23.9625 50.7503 24.7794 50.546 25.8686L50.4779 26.2431H49.2526C49.2526 26.2431 49.1164 26.2431 49.0824 26.4132L48.8782 27.5365C48.8782 27.6386 48.9122 27.7067 49.0484 27.7067H50.2397L49.0484 34.4121C48.9463 34.9567 48.8441 35.3992 48.742 35.7396C48.6399 36.0799 48.5038 36.3182 48.3676 36.4884C48.2315 36.6586 48.0953 36.7947 47.8911 36.8628C47.7209 36.9309 47.4826 36.9649 47.2444 36.9649C47.1082 36.9649 46.938 36.9309 46.8019 36.9309C46.6657 36.8968 46.5977 36.8628 46.4955 36.8288C46.4955 36.8288 46.3594 36.7607 46.2913 36.9309C46.2573 37.033 45.9169 37.918 45.8829 38.0201C45.8488 38.1222 45.8829 38.2243 45.9509 38.2243C46.1211 38.2924 46.2232 38.3264 46.4275 38.3605C46.7338 38.4285 46.9721 38.4285 47.2103 38.4285C47.7209 38.4285 48.1634 38.3605 48.5378 38.2243C48.9122 38.0882 49.2526 37.8499 49.5249 37.5436C49.8312 37.2032 50.0355 36.8288 50.2057 36.3522C50.3758 35.8757 50.546 35.263 50.6822 34.5482L51.9075 27.7067H53.6775C53.6775 27.7067 53.8136 27.7067 53.8477 27.5365L54.0519 26.4132C54.0519 26.3111 54.0179 26.2431 53.8817 26.2431H52.1798C52.1798 26.209 52.282 25.5963 52.4521 25.0177C52.5202 24.7794 52.6904 24.5752 52.8265 24.439C52.9627 24.3029 53.0989 24.2008 53.269 24.1667C53.4392 24.0987 53.6435 24.0987 53.8477 24.0987C54.0179 24.0987 54.154 24.1327 54.2902 24.1327C54.4604 24.1667 54.5284 24.2008 54.5625 24.2008C54.7327 24.2689 54.7667 24.2008 54.8007 24.1327L55.2092 23.0095C55.3113 22.8733 55.2092 22.8393 55.1752 22.8052Z" fill="white"/>
<path fill-rule="evenodd" clip-rule="evenodd" d="M31.1785 34.4121C31.1785 34.5142 31.1105 34.5823 31.0083 34.5823H29.5788C29.4766 34.5823 29.4086 34.5142 29.4086 34.4121V22.9754C29.4086 22.8733 29.4766 22.8052 29.5788 22.8052H31.0083C31.1105 22.8052 31.1785 22.8733 31.1785 22.9754V34.4121Z" fill="white"/>
</svg>
