<svg width="16" height="16" viewBox="0 0 16 16" fill="none" xmlns="http://www.w3.org/2000/svg">
<path d="M15.95 7.11445C15.9243 6.88879 15.6617 6.72066 15.4341 6.72066C14.6969 6.73691 14.0272 6.29185 13.757 5.60551C13.4868 4.91916 13.6732 4.13719 14.2241 3.64654C14.3979 3.48902 14.4198 3.22399 14.2735 3.0402C13.8996 2.56765 13.4738 2.13822 13.0042 1.76004C12.8197 1.61314 12.5527 1.6344 12.3945 1.80942C11.8818 2.34886 11.0945 2.52639 10.3998 2.25948C9.71075 1.96443 9.2793 1.26997 9.32119 0.521814C9.3337 0.286152 9.16112 0.0811335 8.92727 0.0523778C8.32949 -0.0157558 7.72609 -0.0176312 7.12772 0.0480022C6.89699 0.0736311 6.72441 0.271775 6.73065 0.503693C6.75754 1.24566 6.32046 1.92575 5.63452 2.20951C4.94295 2.46642 4.16509 2.29015 3.65296 1.76008C3.49539 1.58818 3.23214 1.56631 3.04894 1.7107C2.57059 2.08638 2.13664 2.51579 1.75585 2.99086C1.60953 3.17463 1.62954 3.4403 1.80212 3.60032C2.363 4.10288 2.54495 4.90548 2.25545 5.60057C1.94405 6.27692 1.25748 6.70009 0.513361 6.67572C0.278885 6.66134 0.0744064 6.83511 0.0525243 7.06951C-0.0175081 7.67334 -0.0175081 8.28341 0.0525243 8.88719C0.0731594 9.12096 0.34578 9.28098 0.574637 9.28098C1.29622 9.27536 1.94839 9.71041 2.21972 10.3786C2.49797 11.0668 2.31976 11.8544 1.77325 12.3563C1.60068 12.5138 1.5788 12.7782 1.72386 12.9614C2.0959 13.4346 2.52048 13.8646 2.99007 14.2416C3.17328 14.3897 3.44091 14.3691 3.59973 14.1953C4.11309 13.6546 4.90096 13.4758 5.59745 13.7421C6.28902 14.034 6.72172 14.7291 6.67795 15.4787C6.66545 15.7143 6.8374 15.9193 7.07188 15.9475C7.37765 15.9825 7.68591 16 7.99355 16C8.28743 16.0006 8.5807 15.9844 8.87271 15.9506C9.10469 15.925 9.27789 15.7249 9.26977 15.4912C9.24164 14.7504 9.67747 14.0697 10.3628 13.7853C11.0537 13.5297 11.831 13.7091 12.34 14.2417C12.497 14.4136 12.7602 14.4354 12.9434 14.291C13.4211 13.9147 13.8551 13.4853 14.2365 13.0109C14.3847 12.8277 14.3647 12.5608 14.1902 12.4014C13.6375 11.9139 13.4468 11.1338 13.7125 10.4461C13.9783 9.75916 14.6442 9.30973 15.3814 9.321H15.4809H15.4802C15.716 9.3335 15.9211 9.1616 15.9498 8.9272C16.0167 8.32463 16.0167 7.71705 15.9498 7.11449L15.95 7.11445ZM8.01126 10.6844C7.30406 10.6844 6.62499 10.4037 6.12479 9.903C5.62456 9.40294 5.34318 8.7241 5.34318 8.01716C5.34318 7.30957 5.62456 6.63073 6.12479 6.13068C6.62502 5.63063 7.30409 5.34933 8.01126 5.34933C8.71909 5.34933 9.39816 5.63062 9.89837 6.13068C10.3986 6.63074 10.68 7.30958 10.68 8.01716C10.6794 8.72413 10.398 9.40233 9.89775 9.90236C9.39752 10.4024 8.71908 10.6837 8.01128 10.6843L8.01126 10.6844Z" fill="white"/>
</svg>
