<svg width="16" height="10" viewBox="0 0 16 10" fill="none" xmlns="http://www.w3.org/2000/svg">
<path fill-rule="evenodd" clip-rule="evenodd" d="M15.5044 4.30517C15.3562 4.12479 12.0368 0 7.81384 0C3.59084 0 0.27163 4.1249 0.123244 4.30517C-0.0410814 4.50222 -0.0410814 4.78145 0.123244 4.9952C0.271522 5.17622 3.59084 9.30103 7.81384 9.30103C12.0368 9.30103 15.3561 5.16018 15.5044 4.99586C15.6521 4.79816 15.6521 4.50288 15.5044 4.30518V4.30517ZM7.81384 7.7399C6.10519 7.7399 4.72436 6.35983 4.72436 4.65041C4.72436 2.94176 6.10443 1.56093 7.81384 1.56093C9.5225 1.56093 10.9033 2.94164 10.9033 4.65041C10.9033 6.35919 9.52262 7.7399 7.81384 7.7399Z" fill="#ACACAC"/>
<path fill-rule="evenodd" clip-rule="evenodd" d="M9.68688 4.65057C9.68688 5.68531 8.84856 6.52355 7.8139 6.52355C6.77924 6.52355 5.94092 5.68523 5.94092 4.65057C5.94092 3.61591 6.77924 2.77759 7.8139 2.77759C8.84856 2.77759 9.68688 3.61591 9.68688 4.65057Z" fill="#ACACAC"/>
</svg>
